{
.appVersion = "1286";
DisplayStrings = (
"As I went on, still gaining velocity, the palpitation of night and day merged into one continuous greyness; the sky took on a wonderful deepness of blue, a splendid luminous color like that of early twilight; the jerking sun became a projecting streak of fire, a brilliant arch, in space; the moon a fainter fluctuating band; and I could see nothing of the stars, save now and then a brighter circlet flickering in the blue.",
"/zerosuperior ¹²³/four.numr/foursuperior/five.numr/fivesuperior/six.numr/sixsuperior/seven.numr/sevensuperior/eightsuperior/ninesuperior",
"/zero.numr/one.numr/two.numr/three.numr/four.numr/five.numr/six.numr/seven.numr/eight.numr/nine.numr",
"0123456789",
groupon,
"Æ",
"why ",
"Greenbook Papers",
"Battleship\012Carrier\012Destroyer\012Fighter\012Bomberman\012Convoy\012Cruiser\012Crusade",
"Print is back",
"/Wacute/Wcircumflex/Wdieresis/Wgrave",
"",
"æ",
CRIMSON,
"Pronoun Checkers",
"End of story. Period.",
"1+1=2",
"",
"¢¤$/euro £¥",
"=/upArrow/northEastArrow/rightArrow/southEastArrow/downArrow/southWestArrow/leftArrow/northWestArrow/leftRightArrow/upDownArrow",
"backstory*",
Corey.,
"80",
"¡?¿",
"·/bullet *#///backslash (){}[]-­/endash/emdash _/quotesinglbase/quotedblbase/quotedblleft/quotedblright/quoteleft/quoteright «»/guilsinglleft/guilsinglright/primeReversed \"'",
"Jingle Bells.",
"+=/southWestArrow",
"/emptyset/infinity/integral/product/summation/radical/partialdiff µ%/perthousand",
"&¶§©®/trademark °|¦/dagger/daggerdbl",
"/replacementCharacter",
"/apostrophemod",
z,
"and then they didn't say a thing",
"And then they said hello.",
"/zeroinferior",
"/oneinferior/twoinferior/threeinferior/fourinferior/fiveinferior/sixinferior/seveninferior/eightinferior/nineinferior",
"/zerosuperior ¹²³/foursuperior/fivesuperior/sixsuperior/sevensuperior/eightsuperior/ninesuperior",
"½¼¾/oneeighth/threeeighths/fiveeighths/seveneighths",
"/eight.dnom/eightinferior",
"?",
"¿",
"/five.dnom/fiveinferior",

glyphs = (
{
glyphname = A;
lastChange = "2020-01-28 10:10:21 +0000";
layers = (
{
layerId = "10BC12B3-5274-42E3-B5BC-F74F362F0DF4";
paths = (
{
closed = 1;
nodes = (
"-62 0 LINE",
"259 0 LINE",
"370 220 LINE",
"932 220 LINE",
"981 0 LINE",
"1289 0 LINE",
"977 1400 LINE",
"643 1400 LINE"
);
},
{
closed = 1;
nodes = (
"761 984 LINE",
"863 520 LINE",
"522 520 LINE"
);
}
);
width = 1516;
},
{
layerId = "9AF1F7D9-E035-453E-B2A8-46DE370997D0";
paths = (
{
closed = 1;
nodes = (
"-61 0 LINE",
"4 0 LINE",
"176 340 LINE",
"912 340 LINE",
"988 0 LINE",
"1051 0 LINE",
"738 1400 LINE",
"646 1400 LINE"
);
},
{
closed = 1;
nodes = (
"686 1350 LINE",
"898 400 LINE",
"206 400 LINE"
);
}
);
width = 1272;
}
);
leftKerningGroup = A;
rightKerningGroup = A;
unicode = 0041;
},
{
glyphname = AE;
lastChange = "2020-01-28 10:10:21 +0000";
layers = (
{
layerId = "10BC12B3-5274-42E3-B5BC-F74F362F0DF4";
paths = (
{
closed = 1;
nodes = (
"259 0 LINE",
"370 220 LINE",
"751 220 LINE",
"720 0 LINE",
"1466 0 LINE",
"1509 300 LINE",
"1057 300 LINE",
"1092 550 LINE",
"1448 550 LINE",
"1490 850 LINE",
"1134 850 LINE",
"1169 1100 LINE",
"1621 1100 LINE",
"1663 1400 LINE",
"643 1400 LINE",
"-62 0 LINE"
);
},
{
closed = 1;
nodes = (
"814 1100 LINE",
"874 1100 LINE",
"794 520 LINE",
"522 520 LINE"
);
}
);
width = 1690;
},
{
layerId = "9AF1F7D9-E035-453E-B2A8-46DE370997D0";
paths = (
{
closed = 1;
nodes = (
"4 0 LINE",
"176 340 LINE",
"689 340 LINE",
"641 0 LINE",
"1333 0 LINE",
"1342 60 LINE",
"710 60 LINE",
"796 670 LINE",
"1332 670 LINE",
"1340 730 LINE",
"804 730 LINE",
"890 1340 LINE",
"1522 1340 LINE",
"1530 1400 LINE",
"646 1400 LINE",
"-61 0 LINE"
);
},
{
closed = 1;
nodes = (
"682 1340 LINE",
"830 1340 LINE",
"698 400 LINE",
"206 400 LINE"
);
}
);
width = 1554;
}
);
leftKerningGroup = A;
rightKerningGroup = E;
unicode = 00C6;
},
{
glyphname = B;
lastChange = "2020-01-28 10:10:21 +0000";
layers = (
{
layerId = "10BC12B3-5274-42E3-B5BC-F74F362F0DF4";
paths = (
{
closed = 1;
nodes = (
"572 0 LINE SMOOTH",
"804 0 OFFCURVE",
"1002 162 OFFCURVE",
"1028 384 CURVE SMOOTH",
"1051 518 OFFCURVE",
"1059 709 OFFCURVE",
"890 730 CURVE",
"1010 779 OFFCURVE",
"1040 898 OFFCURVE",
"1045 976 CURVE SMOOTH",
"1085 1220 OFFCURVE",
"928 1400 OFFCURVE",
"698 1400 CURVE SMOOTH",
"178 1400 LINE",
"-19 0 LINE"
);
},
{
closed = 1;
nodes = (
"361 594 LINE",
"623 594 LINE SMOOTH",
"727 594 OFFCURVE",
"799 524 OFFCURVE",
"793 442 CURVE SMOOTH",
"773 340 OFFCURVE",
"663 254 OFFCURVE",
"559 254 CURVE SMOOTH",
"313 254 LINE"
);
},
{
closed = 1;
nodes = (
"438 1144 LINE",
"643 1144 LINE SMOOTH",
"723 1144 OFFCURVE",
"778 1084 OFFCURVE",
"775 1012 CURVE SMOOTH",
"755 920 OFFCURVE",
"664 844 OFFCURVE",
"584 844 CURVE SMOOTH",
"396 844 LINE"
);
}
);
width = 1186;
},
{
layerId = "9AF1F7D9-E035-453E-B2A8-46DE370997D0";
paths = (
{
closed = 1;
nodes = (
"491 0 LINE SMOOTH",
"689 0 OFFCURVE",
"872 160 OFFCURVE",
"900 359 CURVE SMOOTH",
"923 524 OFFCURVE",
"833 664 OFFCURVE",
"691 707 CURVE",
"807 769 OFFCURVE",
"897 890 OFFCURVE",
"916 1027 CURVE SMOOTH",
"944 1230 OFFCURVE",
"810 1398 OFFCURVE",
"618 1398 CURVE SMOOTH",
"176 1398 LINE",
"-21 0 LINE"
);
},
{
closed = 1;
nodes = (
"132 662 LINE",
"584 662 LINE SMOOTH",
"750 662 OFFCURVE",
"864 530 OFFCURVE",
"841 365 CURVE SMOOTH",
"817 198 OFFCURVE",
"662 60 OFFCURVE",
"496 60 CURVE SMOOTH",
"48 60 LINE"
);
},
{
closed = 1;
nodes = (
"228 1338 LINE",
"613 1338 LINE SMOOTH",
"771 1338 OFFCURVE",
"880 1202 OFFCURVE",
"857 1033 CURVE SMOOTH",
"833 862 OFFCURVE",
"681 722 OFFCURVE",
"523 722 CURVE SMOOTH",
"141 722 LINE"
);
}
);
width = 1050;
}
);
leftKerningGroup = H;
rightKerningGroup = B;
unicode = 0042;
},
{
glyphname = C;
lastChange = "2020-01-28 10:10:21 +0000";
layers = (
{
layerId = "10BC12B3-5274-42E3-B5BC-F74F362F0DF4";
paths = (
{
closed = 1;
nodes = (
"838 -26 OFFCURVE",
"1044 80 OFFCURVE",
"1194 254 CURVE",
"945 416 LINE",
"864 334 OFFCURVE",
"750 274 OFFCURVE",
"629 274 CURVE",
"424 274 OFFCURVE",
"278 458 OFFCURVE",
"303 682 CURVE",
"344 928 OFFCURVE",
"560 1126 OFFCURVE",
"782 1126 CURVE",
"886 1126 OFFCURVE",
"981 1078 OFFCURVE",
"1040 998 CURVE",
"1309 1132 LINE",
"1205 1306 OFFCURVE",
"1025 1426 OFFCURVE",
"791 1426 CURVE",
"419 1426 OFFCURVE",
"82 1110 OFFCURVE",
"32 718 CURVE",
"-31 308 OFFCURVE",
"232 -26 OFFCURVE",
"621 -26 CURVE"
);
}
);
width = 1358;
},
{
layerId = "9AF1F7D9-E035-453E-B2A8-46DE370997D0";
paths = (
{
closed = 1;
nodes = (
"831 -26 OFFCURVE",
"1044 85 OFFCURVE",
"1195 261 CURVE",
"1145 291 LINE",
"1014 139 OFFCURVE",
"815 34 OFFCURVE",
"609 34 CURVE SMOOTH",
"265 34 OFFCURVE",
"26 330 OFFCURVE",
"77 697 CURVE SMOOTH",
"128 1056 OFFCURVE",
"449 1366 OFFCURVE",
"803 1366 CURVE SMOOTH",
"995 1366 OFFCURVE",
"1171 1267 OFFCURVE",
"1262 1109 CURVE",
"1316 1135 LINE",
"1215 1311 OFFCURVE",
"1032 1426 OFFCURVE",
"805 1426 CURVE SMOOTH",
"426 1426 OFFCURVE",
"74 1102 OFFCURVE",
"18 703 CURVE SMOOTH",
"-38 300 OFFCURVE",
"225 -26 OFFCURVE",
"607 -26 CURVE SMOOTH"
);
}
);
width = 1358;
}
);
leftKerningGroup = O;
rightKerningGroup = C;
unicode = 0043;
},
{
glyphname = D;
lastChange = "2020-01-28 10:10:21 +0000";
layers = (
{
layerId = "10BC12B3-5274-42E3-B5BC-F74F362F0DF4";
paths = (
{
closed = 1;
nodes = (
"412 0 LINE SMOOTH",
"798 0 OFFCURVE",
"1140 306 OFFCURVE",
"1187 682 CURVE SMOOTH",
"1249 1078 OFFCURVE",
"978 1400 OFFCURVE",
"592 1400 CURVE SMOOTH",
"138 1400 LINE",
"-59 0 LINE"
);
},
{
closed = 1;
nodes = (
"391 1100 LINE",
"566 1100 LINE SMOOTH",
"784 1100 OFFCURVE",
"940 928 OFFCURVE",
"916 718 CURVE SMOOTH",
"878 486 OFFCURVE",
"653 300 OFFCURVE",
"437 300 CURVE SMOOTH",
"279 300 LINE"
);
}
);
width = 1264;
},
{
layerId = "9AF1F7D9-E035-453E-B2A8-46DE370997D0";
paths = (
{
closed = 1;
nodes = (
"403 0 LINE SMOOTH",
"791 0 OFFCURVE",
"1145 312 OFFCURVE",
"1199 697 CURVE SMOOTH",
"1254 1084 OFFCURVE",
"985 1400 OFFCURVE",
"597 1400 CURVE SMOOTH",
"136 1400 LINE",
"-61 0 LINE"
);
},
{
closed = 1;
nodes = (
"188 1340 LINE",
"591 1340 LINE SMOOTH",
"945 1340 OFFCURVE",
"1190 1056 OFFCURVE",
"1140 703 CURVE SMOOTH",
"1090 348 OFFCURVE",
"764 60 OFFCURVE",
"408 60 CURVE SMOOTH",
"8 60 LINE"
);
}
);
width = 1262;
}
);
leftKerningGroup = H;
rightKerningGroup = O;
unicode = 0044;
},
{
glyphname = Eth;
lastChange = "2020-01-28 10:10:21 +0000";
layers = (
{
layerId = "10BC12B3-5274-42E3-B5BC-F74F362F0DF4";
paths = (
{
closed = 1;
nodes = (
"550 0 LINE SMOOTH",
"936 0 OFFCURVE",
"1278 306 OFFCURVE",
"1325 682 CURVE SMOOTH",
"1387 1078 OFFCURVE",
"1116 1400 OFFCURVE",
"730 1400 CURVE SMOOTH",
"278 1400 LINE",
"202 850 LINE",
"61 850 LINE",
"19 550 LINE",
"159 550 LINE",
"81 0 LINE"
);
},
{
closed = 1;
nodes = (
"454 550 LINE",
"692 550 LINE",
"734 850 LINE",
"496 850 LINE",
"531 1100 LINE",
"704 1100 LINE SMOOTH",
"924 1100 OFFCURVE",
"1078 928 OFFCURVE",
"1054 718 CURVE SMOOTH",
"1016 488 OFFCURVE",
"795 300 OFFCURVE",
"575 300 CURVE SMOOTH",
"420 300 LINE"
);
}
);
width = 1402;
},
{
layerId = "9AF1F7D9-E035-453E-B2A8-46DE370997D0";
paths = (
{
closed = 1;
nodes = (
"553 0 LINE SMOOTH",
"939 0 OFFCURVE",
"1295 312 OFFCURVE",
"1349 697 CURVE SMOOTH",
"1404 1084 OFFCURVE",
"1133 1400 OFFCURVE",
"747 1400 CURVE SMOOTH",
"284 1400 LINE",
"190 730 LINE",
"62 730 LINE",
"54 670 LINE",
"182 670 LINE",
"87 0 LINE"
);
},
{
closed = 1;
nodes = (
"242 670 LINE",
"640 670 LINE",
"648 730 LINE",
"250 730 LINE",
"336 1340 LINE",
"741 1340 LINE SMOOTH",
"1085 1340 OFFCURVE",
"1341 1062 OFFCURVE",
"1290 703 CURVE SMOOTH",
"1241 356 OFFCURVE",
"918 60 OFFCURVE",
"558 60 CURVE SMOOTH",
"156 60 LINE"
);
}
);
width = 1412;
}
);
leftKerningGroup = H;
rightKerningGroup = O;
unicode = 00D0;
},
{
glyphname = E;
lastChange = "2020-01-28 10:10:21 +0000";
layers = (
{
layerId = "10BC12B3-5274-42E3-B5BC-F74F362F0DF4";
paths = (
{
closed = 1;
nodes = (
"888 0 LINE",
"931 300 LINE",
"339 300 LINE",
"374 550 LINE",
"870 550 LINE",
"912 850 LINE",
"416 850 LINE",
"451 1100 LINE",
"1043 1100 LINE",
"1085 1400 LINE",
"198 1400 LINE",
"1 0 LINE"
);
}
);
width = 1132;
},
{
layerId = "9AF1F7D9-E035-453E-B2A8-46DE370997D0";
paths = (
{
closed = 1;
nodes = (
"791 0 LINE",
"800 60 LINE",
"28 60 LINE",
"114 670 LINE",
"790 670 LINE",
"798 730 LINE",
"122 730 LINE",
"208 1340 LINE",
"980 1340 LINE",
"988 1400 LINE",
"156 1400 LINE",
"-41 0 LINE"
);
}
);
width = 1032;
}
);
leftKerningGroup = H;
rightKerningGroup = E;
unicode = 0045;
},
{
glyphname = F;
lastChange = "2020-01-28 10:10:21 +0000";
layers = (
{
layerId = "10BC12B3-5274-42E3-B5BC-F74F362F0DF4";
paths = (
{
closed = 1;
nodes = (
"236 0 LINE",
"314 550 LINE",
"750 550 LINE",
"792 850 LINE",
"356 850 LINE",
"391 1100 LINE",
"923 1100 LINE",
"965 1400 LINE",
"138 1400 LINE",
"-59 0 LINE"
);
}
);
width = 972;
},
{
layerId = "9AF1F7D9-E035-453E-B2A8-46DE370997D0";
paths = (
{
closed = 1;
nodes = (
"-9 0 LINE",
"86 670 LINE",
"742 670 LINE",
"750 730 LINE",
"94 730 LINE",
"180 1340 LINE",
"932 1340 LINE",
"940 1400 LINE",
"128 1400 LINE",
"-69 0 LINE"
);
}
);
width = 952;
}
);
leftKerningGroup = H;
rightKerningGroup = F;
unicode = 0046;
},
{
glyphname = G;
lastChange = "2020-01-28 10:10:21 +0000";
layers = (
{
layerId = "10BC12B3-5274-42E3-B5BC-F74F362F0DF4";
paths = (
{
closed = 1;
nodes = (
"1008 -26 OFFCURVE",
"1353 314 OFFCURVE",
"1392 732 CURVE",
"860 740 LINE",
"824 480 LINE",
"1010 489 LINE",
"908 347 OFFCURVE",
"764 274 OFFCURVE",
"633 274 CURVE SMOOTH",
"426 274 OFFCURVE",
"277 452 OFFCURVE",
"303 678 CURVE SMOOTH",
"346 944 OFFCURVE",
"576 1126 OFFCURVE",
"784 1126 CURVE SMOOTH",
"874 1126 OFFCURVE",
"971 1088 OFFCURVE",
"1039 996 CURVE",
"1309 1130 LINE",
"1182 1332 OFFCURVE",
"999 1424 OFFCURVE",
"797 1424 CURVE SMOOTH",
"449 1424 OFFCURVE",
"85 1138 OFFCURVE",
"32 720 CURVE SMOOTH",
"-31 312 OFFCURVE",
"220 -26 OFFCURVE",
"621 -26 CURVE SMOOTH"
);
}
);
width = 1496;
},
{
layerId = "9AF1F7D9-E035-453E-B2A8-46DE370997D0";
paths = (
{
closed = 1;
nodes = (
"967 -26 OFFCURVE",
"1310 270 OFFCURVE",
"1386 640 CURVE",
"846 642 LINE",
"837 582 LINE",
"1309 584 LINE",
"1221 284 OFFCURVE",
"927 34 OFFCURVE",
"611 34 CURVE SMOOTH",
"265 34 OFFCURVE",
"26 334 OFFCURVE",
"77 697 CURVE SMOOTH",
"128 1056 OFFCURVE",
"451 1366 OFFCURVE",
"805 1366 CURVE SMOOTH",
"993 1366 OFFCURVE",
"1165 1273 OFFCURVE",
"1262 1109 CURVE",
"1319 1137 LINE",
"1217 1311 OFFCURVE",
"1032 1426 OFFCURVE",
"807 1426 CURVE SMOOTH",
"426 1426 OFFCURVE",
"74 1102 OFFCURVE",
"18 703 CURVE SMOOTH",
"-38 302 OFFCURVE",
"225 -26 OFFCURVE",
"609 -26 CURVE SMOOTH"
);
}
);
width = 1496;
}
);
leftKerningGroup = O;
rightKerningGroup = G;
unicode = 0047;
},
{
glyphname = H;
lastChange = "2020-01-28 10:10:21 +0000";
layers = (
{
layerId = "10BC12B3-5274-42E3-B5BC-F74F362F0DF4";
paths = (
{
closed = 1;
nodes = (
"860 866 LINE",
"359 866 LINE",
"433 1400 LINE",
"138 1400 LINE",
"-59 0 LINE",
"236 0 LINE",
"316 566 LINE",
"818 566 LINE",
"737 0 LINE",
"1032 0 LINE",
"1229 1400 LINE",
"934 1400 LINE"
);
}
);
width = 1256;
},
{
layerId = "9AF1F7D9-E035-453E-B2A8-46DE370997D0";
paths = (
{
closed = 1;
nodes = (
"958 746 LINE",
"104 746 LINE",
"196 1400 LINE",
"136 1400 LINE",
"-61 0 LINE",
"-1 0 LINE",
"96 686 LINE",
"950 686 LINE",
"853 0 LINE",
"913 0 LINE",
"1110 1400 LINE",
"1050 1400 LINE"
);
}
);
width = 1134;
}
);
leftKerningGroup = H;
rightKerningGroup = H;
unicode = 0048;
},
{
glyphname = I;
lastChange = "2020-01-28 10:10:21 +0000";
layers = (
{
layerId = "10BC12B3-5274-42E3-B5BC-F74F362F0DF4";
paths = (
{
closed = 1;
nodes = (
"236 0 LINE",
"433 1400 LINE",
"138 1400 LINE",
"-59 0 LINE"
);
}
);
width = 460;
},
{
layerId = "9AF1F7D9-E035-453E-B2A8-46DE370997D0";
paths = (
{
closed = 1;
nodes = (
"39 0 LINE",
"236 1400 LINE",
"176 1400 LINE",
"-21 0 LINE"
);
}
);
width = 300;
}
);
leftKerningGroup = H;
rightKerningGroup = H;
unicode = 0049;
},
{
glyphname = J;
lastChange = "2020-01-28 10:10:21 +0000";
layers = (
{
layerId = "10BC12B3-5274-42E3-B5BC-F74F362F0DF4";
paths = (
{
closed = 1;
nodes = (
"466 -26 OFFCURVE",
"692 178 OFFCURVE",
"730 438 CURVE SMOOTH",
"867 1400 LINE",
"573 1400 LINE",
"446 454 LINE SMOOTH",
"431 360 OFFCURVE",
"326 274 OFFCURVE",
"223 274 CURVE SMOOTH",
"180 274 OFFCURVE",
"145 292 OFFCURVE",
"125 310 CURVE",
"-82 88 LINE",
"-4 16 OFFCURVE",
"96 -26 OFFCURVE",
"215 -26 CURVE SMOOTH"
);
}
);
width = 894;
},
{
layerId = "9AF1F7D9-E035-453E-B2A8-46DE370997D0";
paths = (
{
closed = 1;
nodes = (
"317 -26 OFFCURVE",
"499 150 OFFCURVE",
"526 344 CURVE SMOOTH",
"674 1400 LINE",
"614 1400 LINE",
"466 348 LINE SMOOTH",
"444 186 OFFCURVE",
"289 34 OFFCURVE",
"125 34 CURVE SMOOTH",
"59 34 OFFCURVE",
"-4 57 OFFCURVE",
"-50 101 CURVE",
"-92 57 LINE",
"-37 3 OFFCURVE",
"39 -26 OFFCURVE",
"123 -26 CURVE SMOOTH"
);
}
);
width = 698;
}
);
leftKerningGroup = J;
rightKerningGroup = J;
unicode = 004A;
},
{
glyphname = K;
lastChange = "2020-01-28 10:10:21 +0000";
layers = (
{
layerId = "10BC12B3-5274-42E3-B5BC-F74F362F0DF4";
paths = (
{
closed = 1;
nodes = (
"579 740 LINE",
"1229 1400 LINE",
"831 1400 LINE",
"363 924 LINE",
"433 1400 LINE",
"138 1400 LINE",
"-59 0 LINE",
"236 0 LINE",
"306 458 LINE",
"360 506 LINE",
"642 0 LINE",
"1026 0 LINE"
);
}
);
width = 1190;
},
{
layerId = "9AF1F7D9-E035-453E-B2A8-46DE370997D0";
paths = (
{
closed = 1;
nodes = (
"301 738 LINE",
"951 1400 LINE",
"872 1400 LINE",
"82 594 LINE",
"196 1400 LINE",
"136 1400 LINE",
"-61 0 LINE",
"-1 0 LINE",
"70 500 LINE",
"256 690 LINE",
"668 0 LINE",
"743 0 LINE"
);
}
);
width = 914;
}
);
leftKerningGroup = H;
rightKerningGroup = K;
unicode = 004B;
},
{
glyphname = L;
lastChange = "2020-01-28 10:10:21 +0000";
layers = (
{
layerId = "10BC12B3-5274-42E3-B5BC-F74F362F0DF4";
paths = (
{
closed = 1;
nodes = (
"-64 0 LINE",
"133 1400 LINE",
"438 1400 LINE",
"284 300 LINE",
"904 300 LINE",
"861 0 LINE"
);
}
);
width = 1020;
},
{
layerId = "9AF1F7D9-E035-453E-B2A8-46DE370997D0";
paths = (
{
closed = 1;
nodes = (
"-61 0 LINE",
"136 1400 LINE",
"196 1400 LINE",
"8 60 LINE",
"768 60 LINE",
"759 0 LINE"
);
}
);
width = 920;
}
);
leftKerningGroup = H;
rightKerningGroup = L;
unicode = 004C;
},
{
glyphname = M;
lastChange = "2020-01-28 10:10:21 +0000";
layers = (
{
layerId = "10BC12B3-5274-42E3-B5BC-F74F362F0DF4";
paths = (
{
closed = 1;
nodes = (
"246 0 LINE",
"502 756 LINE",
"682 0 LINE",
"887 0 LINE",
"1284 756 LINE",
"1322 0 LINE",
"1619 0 LINE",
"1544 1400 LINE",
"1291 1400 LINE",
"856 574 LINE",
"659 1400 LINE",
"409 1400 LINE",
"-60 0 LINE"
);
}
);
width = 1844;
},
{
layerId = "9AF1F7D9-E035-453E-B2A8-46DE370997D0";
paths = (
{
closed = 1;
nodes = (
"0 0 LINE",
"411 1228 LINE",
"669 138 LINE",
"699 138 LINE",
"1265 1228 LINE",
"1330 0 LINE",
"1391 0 LINE",
"1316 1400 LINE",
"1290 1400 LINE",
"702 268 LINE",
"432 1400 LINE",
"406 1400 LINE",
"-61 0 LINE"
);
}
);
width = 1612;
}
);
leftKerningGroup = M;
rightKerningGroup = M;
unicode = 004D;
},
{
glyphname = N;
lastChange = "2020-01-28 10:10:21 +0000";
layers = (
{
layerId = "10BC12B3-5274-42E3-B5BC-F74F362F0DF4";
paths = (
{
closed = 1;
nodes = (
"276 0 LINE",
"402 858 LINE",
"796 0 LINE",
"1112 0 LINE",
"1309 1400 LINE",
"1015 1400 LINE",
"889 542 LINE",
"496 1400 LINE",
"178 1400 LINE",
"-19 0 LINE"
);
}
);
width = 1376;
},
{
layerId = "9AF1F7D9-E035-453E-B2A8-46DE370997D0";
paths = (
{
closed = 1;
nodes = (
"39 0 LINE",
"222 1292 LINE",
"894 0 LINE",
"957 0 LINE",
"1154 1400 LINE",
"1094 1400 LINE",
"912 108 LINE",
"242 1400 LINE",
"176 1400 LINE",
"-21 0 LINE"
);
}
);
width = 1218;
}
);
leftKerningGroup = H;
rightKerningGroup = H;
unicode = 004E;
},
{
glyphname = O;
lastChange = "2020-01-28 10:10:21 +0000";
layers = (
{
layerId = "10BC12B3-5274-42E3-B5BC-F74F362F0DF4";
paths = (
{
closed = 1;
nodes = (
"1014 -26 OFFCURVE",
"1354 292 OFFCURVE",
"1403 682 CURVE SMOOTH",
"1467 1092 OFFCURVE",
"1201 1426 OFFCURVE",
"813 1426 CURVE SMOOTH",
"441 1426 OFFCURVE",
"101 1108 OFFCURVE",
"52 718 CURVE SMOOTH",
"-11 308 OFFCURVE",
"254 -26 OFFCURVE",
"643 -26 CURVE SMOOTH"
);
},
{
closed = 1;
nodes = (
"446 274 OFFCURVE",
"298 458 OFFCURVE",
"323 682 CURVE SMOOTH",
"364 926 OFFCURVE",
"582 1126 OFFCURVE",
"804 1126 CURVE SMOOTH",
"1010 1126 OFFCURVE",
"1158 942 OFFCURVE",
"1132 718 CURVE SMOOTH",
"1092 474 OFFCURVE",
"874 274 OFFCURVE",
"651 274 CURVE SMOOTH"
);
}
);
width = 1540;
},
{
layerId = "9AF1F7D9-E035-453E-B2A8-46DE370997D0";
paths = (
{
closed = 1;
nodes = (
"1007 -26 OFFCURVE",
"1361 298 OFFCURVE",
"1417 697 CURVE SMOOTH",
"1474 1098 OFFCURVE",
"1208 1426 OFFCURVE",
"827 1426 CURVE SMOOTH",
"448 1426 OFFCURVE",
"94 1102 OFFCURVE",
"38 703 CURVE SMOOTH",
"-18 302 OFFCURVE",
"247 -26 OFFCURVE",
"629 -26 CURVE SMOOTH"
);
},
{
closed = 1;
nodes = (
"285 34 OFFCURVE",
"46 332 OFFCURVE",
"97 697 CURVE SMOOTH",
"148 1058 OFFCURVE",
"471 1366 OFFCURVE",
"825 1366 CURVE SMOOTH",
"1171 1366 OFFCURVE",
"1409 1066 OFFCURVE",
"1358 703 CURVE SMOOTH",
"1307 342 OFFCURVE",
"985 34 OFFCURVE",
"631 34 CURVE SMOOTH"
);
}
);
width = 1540;
}
);
leftKerningGroup = O;
rightKerningGroup = O;
unicode = 004F;
},
{
glyphname = Oslash;
lastChange = "2020-01-28 10:10:21 +0000";
layers = (
{
layerId = "10BC12B3-5274-42E3-B5BC-F74F362F0DF4";
paths = (
{
closed = 1;
nodes = (
"422 17 LINE",
"485 -9 OFFCURVE",
"556 -26 OFFCURVE",
"643 -26 CURVE SMOOTH",
"1014 -26 OFFCURVE",
"1354 292 OFFCURVE",
"1403 682 CURVE SMOOTH",
"1440 898 OFFCURVE",
"1380 1087 OFFCURVE",
"1268 1221 CURVE",
"1387 1372 LINE",
"1141 1522 LINE",
"1035 1385 LINE",
"973 1409 OFFCURVE",
"901 1426 OFFCURVE",
"813 1426 CURVE SMOOTH",
"441 1426 OFFCURVE",
"101 1108 OFFCURVE",
"52 718 CURVE SMOOTH",
"16 502 OFFCURVE",
"77 313 OFFCURVE",
"189 181 CURVE",
"71 28 LINE",
"317 -122 LINE"
);
},
{
closed = 1;
nodes = (
"331 515 OFFCURVE",
"318 600 OFFCURVE",
"323 682 CURVE SMOOTH",
"364 926 OFFCURVE",
"582 1126 OFFCURVE",
"804 1126 CURVE SMOOTH",
"820 1126 OFFCURVE",
"845 1125 OFFCURVE",
"866 1121 CURVE",
"363 445 LINE"
);
},
{
closed = 1;
nodes = (
"638 274 OFFCURVE",
"613 274 OFFCURVE",
"592 280 CURVE",
"1094 955 LINE",
"1126 885 OFFCURVE",
"1138 800 OFFCURVE",
"1132 718 CURVE SMOOTH",
"1092 474 OFFCURVE",
"874 274 OFFCURVE",
"651 274 CURVE SMOOTH"
);
}
);
width = 1540;
},
{
layerId = "9AF1F7D9-E035-453E-B2A8-46DE370997D0";
paths = (
{
closed = 1;
nodes = (
"309 65 LINE",
"400 9 OFFCURVE",
"507 -26 OFFCURVE",
"629 -26 CURVE SMOOTH",
"1007 -26 OFFCURVE",
"1361 298 OFFCURVE",
"1417 697 CURVE SMOOTH",
"1453 950 OFFCURVE",
"1361 1173 OFFCURVE",
"1195 1303 CURVE",
"1289 1432 LINE",
"1240 1462 LINE",
"1149 1335 LINE",
"1058 1393 OFFCURVE",
"950 1426 OFFCURVE",
"827 1426 CURVE SMOOTH",
"448 1426 OFFCURVE",
"94 1102 OFFCURVE",
"38 703 CURVE SMOOTH",
"3 452 OFFCURVE",
"97 229 OFFCURVE",
"262 97 CURVE",
"169 -32 LINE",
"218 -62 LINE"
);
},
{
closed = 1;
nodes = (
"146 269 OFFCURVE",
"66 470 OFFCURVE",
"97 697 CURVE SMOOTH",
"148 1058 OFFCURVE",
"471 1366 OFFCURVE",
"825 1366 CURVE SMOOTH",
"933 1366 OFFCURVE",
"1033 1337 OFFCURVE",
"1115 1285 CURVE",
"296 149 LINE"
);
},
{
closed = 1;
nodes = (
"525 34 OFFCURVE",
"425 63 OFFCURVE",
"342 115 CURVE",
"1162 1253 LINE",
"1310 1131 OFFCURVE",
"1390 930 OFFCURVE",
"1358 703 CURVE SMOOTH",
"1307 342 OFFCURVE",
"985 34 OFFCURVE",
"631 34 CURVE SMOOTH"
);
}
);
width = 1540;
}
);
leftKerningGroup = O;
rightKerningGroup = O;
unicode = 00D8;
},
{
glyphname = OE;
lastChange = "2020-01-28 10:10:21 +0000";
layers = (
{
layerId = "10BC12B3-5274-42E3-B5BC-F74F362F0DF4";
paths = (
{
closed = 1;
nodes = (
"760 -26 OFFCURVE",
"899 16 OFFCURVE",
"1022 98 CURVE",
"1004 0 LINE",
"1832 0 LINE",
"1875 300 LINE",
"1343 300 LINE",
"1378 550 LINE",
"1814 550 LINE",
"1856 850 LINE",
"1420 850 LINE",
"1455 1100 LINE",
"1987 1100 LINE",
"2029 1400 LINE",
"1203 1400 LINE",
"1179 1292 LINE",
"1076 1374 OFFCURVE",
"947 1426 OFFCURVE",
"793 1426 CURVE SMOOTH",
"421 1426 OFFCURVE",
"81 1108 OFFCURVE",
"32 718 CURVE SMOOTH",
"-31 308 OFFCURVE",
"234 -26 OFFCURVE",
"623 -26 CURVE SMOOTH"
);
},
{
closed = 1;
nodes = (
"426 274 OFFCURVE",
"278 458 OFFCURVE",
"303 682 CURVE SMOOTH",
"344 926 OFFCURVE",
"562 1126 OFFCURVE",
"784 1126 CURVE SMOOTH",
"990 1126 OFFCURVE",
"1138 942 OFFCURVE",
"1112 718 CURVE SMOOTH",
"1072 474 OFFCURVE",
"854 274 OFFCURVE",
"631 274 CURVE SMOOTH"
);
}
);
width = 2056;
},
{
layerId = "9AF1F7D9-E035-453E-B2A8-46DE370997D0";
paths = (
{
closed = 1;
nodes = (
"887 -26 OFFCURVE",
"1153 150 OFFCURVE",
"1297 402 CURVE",
"1239 0 LINE",
"1945 0 LINE",
"1954 60 LINE",
"1308 60 LINE",
"1394 670 LINE",
"1944 670 LINE",
"1952 730 LINE",
"1402 730 LINE",
"1488 1340 LINE",
"2134 1340 LINE",
"2142 1400 LINE",
"1436 1400 LINE",
"1379 994 LINE",
"1306 1246 OFFCURVE",
"1088 1426 OFFCURVE",
"807 1426 CURVE SMOOTH",
"428 1426 OFFCURVE",
"74 1102 OFFCURVE",
"18 703 CURVE SMOOTH",
"-38 302 OFFCURVE",
"227 -26 OFFCURVE",
"609 -26 CURVE SMOOTH"
);
},
{
closed = 1;
nodes = (
"265 34 OFFCURVE",
"26 332 OFFCURVE",
"77 697 CURVE SMOOTH",
"128 1058 OFFCURVE",
"451 1366 OFFCURVE",
"805 1366 CURVE SMOOTH",
"1151 1366 OFFCURVE",
"1389 1066 OFFCURVE",
"1338 703 CURVE SMOOTH",
"1287 342 OFFCURVE",
"965 34 OFFCURVE",
"611 34 CURVE SMOOTH"
);
}
);
width = 2166;
}
);
leftKerningGroup = O;
rightKerningGroup = E;
unicode = 0152;
},
{
glyphname = P;
lastChange = "2020-01-28 10:10:21 +0000";
layers = (
{
layerId = "10BC12B3-5274-42E3-B5BC-F74F362F0DF4";
paths = (
{
closed = 1;
nodes = (
"276 0 LINE",
"353 544 LINE",
"592 544 LINE SMOOTH",
"814 544 OFFCURVE",
"1016 728 OFFCURVE",
"1042 954 CURVE SMOOTH",
"1081 1196 OFFCURVE",
"926 1400 OFFCURVE",
"696 1400 CURVE SMOOTH",
"178 1400 LINE",
"-19 0 LINE"
);
},
{
closed = 1;
nodes = (
"438 1144 LINE",
"643 1144 LINE SMOOTH",
"723 1144 OFFCURVE",
"778 1084 OFFCURVE",
"775 1012 CURVE SMOOTH",
"755 920 OFFCURVE",
"664 844 OFFCURVE",
"584 844 CURVE SMOOTH",
"396 844 LINE"
);
}
);
width = 1090;
},
{
layerId = "9AF1F7D9-E035-453E-B2A8-46DE370997D0";
paths = (
{
closed = 1;
nodes = (
"39 0 LINE",
"124 600 LINE",
"473 600 LINE SMOOTH",
"687 600 OFFCURVE",
"887 768 OFFCURVE",
"920 997 CURVE SMOOTH",
"952 1226 OFFCURVE",
"803 1400 OFFCURVE",
"583 1400 CURVE SMOOTH",
"176 1400 LINE",
"-21 0 LINE"
);
},
{
closed = 1;
nodes = (
"228 1340 LINE",
"577 1340 LINE SMOOTH",
"759 1340 OFFCURVE",
"888 1198 OFFCURVE",
"860 1003 CURVE SMOOTH",
"833 806 OFFCURVE",
"661 660 OFFCURVE",
"479 660 CURVE SMOOTH",
"132 660 LINE"
);
}
);
width = 950;
}
);
leftKerningGroup = H;
rightKerningGroup = P;
unicode = 0050;
},
{
glyphname = Thorn;
lastChange = "2020-01-28 10:10:21 +0000";
layers = (
{
layerId = "10BC12B3-5274-42E3-B5BC-F74F362F0DF4";
paths = (
{
closed = 1;
nodes = (
"276 0 LINE",
"315 272 LINE",
"554 272 LINE SMOOTH",
"776 272 OFFCURVE",
"977 456 OFFCURVE",
"1003 682 CURVE SMOOTH",
"1043 924 OFFCURVE",
"888 1128 OFFCURVE",
"658 1128 CURVE SMOOTH",
"435 1128 LINE",
"473 1400 LINE",
"178 1400 LINE",
"-19 0 LINE"
);
},
{
closed = 1;
nodes = (
"400 872 LINE",
"604 872 LINE SMOOTH",
"684 872 OFFCURVE",
"740 812 OFFCURVE",
"736 740 CURVE SMOOTH",
"718 648 OFFCURVE",
"625 572 OFFCURVE",
"545 572 CURVE SMOOTH",
"358 572 LINE"
);
}
);
width = 1100;
},
{
layerId = "9AF1F7D9-E035-453E-B2A8-46DE370997D0";
paths = (
{
closed = 1;
nodes = (
"39 0 LINE",
"82 300 LINE",
"431 300 LINE SMOOTH",
"645 300 OFFCURVE",
"845 468 OFFCURVE",
"877 697 CURVE SMOOTH",
"910 926 OFFCURVE",
"760 1100 OFFCURVE",
"540 1100 CURVE SMOOTH",
"194 1100 LINE",
"236 1400 LINE",
"176 1400 LINE",
"-21 0 LINE"
);
},
{
closed = 1;
nodes = (
"186 1040 LINE",
"535 1040 LINE SMOOTH",
"717 1040 OFFCURVE",
"846 898 OFFCURVE",
"818 703 CURVE SMOOTH",
"791 506 OFFCURVE",
"618 360 OFFCURVE",
"436 360 CURVE SMOOTH",
"90 360 LINE"
);
}
);
width = 960;
}
);
leftKerningGroup = H;
rightKerningGroup = Thorn;
unicode = 00DE;
},
{
glyphname = Q;
lastChange = "2020-01-28 10:10:21 +0000";
layers = (
{
layerId = "10BC12B3-5274-42E3-B5BC-F74F362F0DF4";
paths = (
{
closed = 1;
nodes = (
"1387 160 LINE",
"1251 306 LINE",
"1337 420 OFFCURVE",
"1391 554 OFFCURVE",
"1405 690 CURVE SMOOTH",
"1468 1100 OFFCURVE",
"1203 1434 OFFCURVE",
"814 1434 CURVE SMOOTH",
"443 1434 OFFCURVE",
"102 1116 OFFCURVE",
"53 726 CURVE SMOOTH",
"-10 314 OFFCURVE",
"255 -18 OFFCURVE",
"644 -18 CURVE SMOOTH",
"773 -18 OFFCURVE",
"903 18 OFFCURVE",
"1019 90 CURVE",
"1150 -52 LINE"
);
},
{
closed = 1;
nodes = (
"447 282 OFFCURVE",
"299 464 OFFCURVE",
"325 690 CURVE SMOOTH",
"365 934 OFFCURVE",
"583 1134 OFFCURVE",
"806 1134 CURVE SMOOTH",
"1011 1134 OFFCURVE",
"1160 950 OFFCURVE",
"1134 726 CURVE SMOOTH",
"1118 656 OFFCURVE",
"1093 599 OFFCURVE",
"1063 547 CURVE",
"992 612 LINE",
"755 400 LINE",
"825 319 LINE",
"771 297 OFFCURVE",
"715 282 OFFCURVE",
"652 282 CURVE SMOOTH"
);
}
);
width = 1584;
},
{
layerId = "9AF1F7D9-E035-453E-B2A8-46DE370997D0";
paths = (
{
closed = 1;
nodes = (
"1298 32 LINE",
"1145 207 LINE",
"1278 337 OFFCURVE",
"1369 508 OFFCURVE",
"1395 697 CURVE SMOOTH",
"1452 1098 OFFCURVE",
"1188 1426 OFFCURVE",
"807 1426 CURVE SMOOTH",
"426 1426 OFFCURVE",
"74 1102 OFFCURVE",
"18 703 CURVE SMOOTH",
"-38 302 OFFCURVE",
"225 -26 OFFCURVE",
"609 -26 CURVE SMOOTH",
"785 -26 OFFCURVE",
"959 45 OFFCURVE",
"1100 165 CURVE",
"1251 -10 LINE"
);
},
{
closed = 1;
nodes = (
"267 34 OFFCURVE",
"26 332 OFFCURVE",
"77 697 CURVE SMOOTH",
"128 1056 OFFCURVE",
"451 1366 OFFCURVE",
"805 1366 CURVE SMOOTH",
"1147 1366 OFFCURVE",
"1388 1068 OFFCURVE",
"1336 703 CURVE SMOOTH",
"1313 538 OFFCURVE",
"1231 377 OFFCURVE",
"1108 253 CURVE",
"877 520 LINE",
"830 476 LINE",
"1060 209 LINE",
"934 99 OFFCURVE",
"767 34 OFFCURVE",
"611 34 CURVE SMOOTH"
);
}
);
width = 1538;
}
);
leftKerningGroup = O;
rightKerningGroup = O;
unicode = 0051;
},
{
glyphname = R;
lastChange = "2020-01-28 10:10:21 +0000";
layers = (
{
layerId = "10BC12B3-5274-42E3-B5BC-F74F362F0DF4";
paths = (
{
closed = 1;
nodes = (
"276 0 LINE",
"353 544 LINE",
"464 544 LINE",
"704 0 LINE",
"1040 0 LINE",
"795 568 LINE",
"959 640 OFFCURVE",
"1064 784 OFFCURVE",
"1082 954 CURVE SMOOTH",
"1122 1198 OFFCURVE",
"968 1400 OFFCURVE",
"738 1400 CURVE SMOOTH",
"178 1400 LINE",
"-19 0 LINE"
);
},
{
closed = 1;
nodes = (
"438 1144 LINE",
"683 1144 LINE SMOOTH",
"763 1144 OFFCURVE",
"818 1084 OFFCURVE",
"815 1012 CURVE SMOOTH",
"795 920 OFFCURVE",
"704 844 OFFCURVE",
"624 844 CURVE SMOOTH",
"396 844 LINE"
);
}
);
width = 1246;
},
{
layerId = "9AF1F7D9-E035-453E-B2A8-46DE370997D0";
paths = (
{
closed = 1;
nodes = (
"39 0 LINE",
"124 600 LINE",
"456 600 LINE",
"720 0 LINE",
"789 0 LINE",
"527 602 LINE",
"728 618 OFFCURVE",
"909 780 OFFCURVE",
"940 997 CURVE SMOOTH",
"972 1226 OFFCURVE",
"823 1400 OFFCURVE",
"603 1400 CURVE SMOOTH",
"176 1400 LINE",
"-21 0 LINE"
);
},
{
closed = 1;
nodes = (
"228 1340 LINE",
"597 1340 LINE SMOOTH",
"779 1340 OFFCURVE",
"908 1198 OFFCURVE",
"880 1003 CURVE SMOOTH",
"853 806 OFFCURVE",
"681 660 OFFCURVE",
"499 660 CURVE SMOOTH",
"132 660 LINE"
);
}
);
width = 1000;
}
);
leftKerningGroup = H;
rightKerningGroup = R;
unicode = 0052;
},
{
glyphname = S;
lastChange = "2020-01-28 10:10:21 +0000";
layers = (
{
layerId = "10BC12B3-5274-42E3-B5BC-F74F362F0DF4";
paths = (
{
closed = 1;
nodes = (
"782 -26 OFFCURVE",
"1037 142 OFFCURVE",
"1067 394 CURVE SMOOTH",
"1110 662 OFFCURVE",
"884 807 OFFCURVE",
"593 847 CURVE SMOOTH",
"479 867 OFFCURVE",
"376 872 OFFCURVE",
"384 970 CURVE SMOOTH",
"402 1058 OFFCURVE",
"542 1126 OFFCURVE",
"666 1124 CURVE SMOOTH",
"788 1124 OFFCURVE",
"881 1073 OFFCURVE",
"893 1015 CURVE",
"1171 1103 LINE",
"1127 1301 OFFCURVE",
"919 1426 OFFCURVE",
"675 1426 CURVE SMOOTH",
"401 1426 OFFCURVE",
"142 1258 OFFCURVE",
"113 1006 CURVE SMOOTH",
"67 722 OFFCURVE",
"279 595 OFFCURVE",
"586 554 CURVE SMOOTH",
"688 535 OFFCURVE",
"800 504 OFFCURVE",
"796 430 CURVE SMOOTH",
"778 338 OFFCURVE",
"642 274 OFFCURVE",
"513 274 CURVE SMOOTH",
"392 274 OFFCURVE",
"299 327 OFFCURVE",
"287 385 CURVE",
"8 295 LINE",
"53 99 OFFCURVE",
"260 -26 OFFCURVE",
"505 -26 CURVE SMOOTH"
);
}
);
width = 1264;
},
{
layerId = "9AF1F7D9-E035-453E-B2A8-46DE370997D0";
paths = (
{
closed = 1;
nodes = (
"715 -26 OFFCURVE",
"964 118 OFFCURVE",
"996 347 CURVE SMOOTH",
"1028 574 OFFCURVE",
"810 682 OFFCURVE",
"557 729 CURVE SMOOTH",
"319 776 OFFCURVE",
"145 824 OFFCURVE",
"175 1039 CURVE SMOOTH",
"202 1230 OFFCURVE",
"422 1358 OFFCURVE",
"652 1358 CURVE SMOOTH",
"832 1358 OFFCURVE",
"1024 1278 OFFCURVE",
"1057 1120 CURVE",
"1117 1136 LINE",
"1072 1318 OFFCURVE",
"863 1418 OFFCURVE",
"653 1418 CURVE SMOOTH",
"397 1418 OFFCURVE",
"148 1274 OFFCURVE",
"116 1045 CURVE SMOOTH",
"81 792 OFFCURVE",
"282 718 OFFCURVE",
"554 667 CURVE SMOOTH",
"763 626 OFFCURVE",
"964 548 OFFCURVE",
"937 353 CURVE SMOOTH",
"910 160 OFFCURVE",
"687 34 OFFCURVE",
"459 34 CURVE SMOOTH",
"279 34 OFFCURVE",
"87 114 OFFCURVE",
"53 272 CURVE",
"-5 254 LINE",
"31 80 OFFCURVE",
"237 -26 OFFCURVE",
"457 -26 CURVE SMOOTH"
);
}
);
width = 1198;
}
);
leftKerningGroup = S;
rightKerningGroup = S;
unicode = 0053;
},
{
glyphname = Germandbls;
lastChange = "2020-01-28 10:10:21 +0000";
layers = (
{
layerId = "10BC12B3-5274-42E3-B5BC-F74F362F0DF4";
paths = (
{
closed = 1;
nodes = (
"276 0 LINE",
"404 942 LINE SMOOTH",
"421 1050 OFFCURVE",
"537 1144 OFFCURVE",
"631 1144 CURVE SMOOTH",
"709 1144 OFFCURVE",
"787 1156 OFFCURVE",
"784 1093 CURVE SMOOTH",
"772 1049 OFFCURVE",
"577 866 OFFCURVE",
"556 712 CURVE SMOOTH",
"536 594 LINE",
"623 594 LINE SMOOTH",
"727 594 OFFCURVE",
"865 564 OFFCURVE",
"853 442 CURVE SMOOTH",
"828 300 OFFCURVE",
"663 254 OFFCURVE",
"559 254 CURVE SMOOTH",
"489 254 LINE",
"514 0 LINE",
"572 0 LINE SMOOTH",
"804 0 OFFCURVE",
"1059 142 OFFCURVE",
"1090 404 CURVE SMOOTH",
"1121 578 OFFCURVE",
"971 771 OFFCURVE",
"789 727 CURVE",
"962 899 OFFCURVE",
"1046 964 OFFCURVE",
"1053 1050 CURVE SMOOTH",
"1086 1240 OFFCURVE",
"906 1400 OFFCURVE",
"689 1400 CURVE SMOOTH",
"406 1400 OFFCURVE",
"149 1170 OFFCURVE",
"109 878 CURVE SMOOTH",
"-19 0 LINE"
);
}
);
width = 1246;
},
{
layerId = "9AF1F7D9-E035-453E-B2A8-46DE370997D0";
paths = (
{
closed = 1;
nodes = (
"39 0 LINE",
"179 992 LINE SMOOTH",
"206 1182 OFFCURVE",
"381 1338 OFFCURVE",
"573 1338 CURVE SMOOTH",
"721 1338 OFFCURVE",
"844 1284 OFFCURVE",
"828 1155 CURVE SMOOTH",
"813 1034 OFFCURVE",
"476 756 OFFCURVE",
"475 696 CURVE SMOOTH",
"475 662 LINE",
"542 662 LINE SMOOTH",
"708 662 OFFCURVE",
"890 570 OFFCURVE",
"861 367 CURVE SMOOTH",
"832 158 OFFCURVE",
"622 60 OFFCURVE",
"456 60 CURVE SMOOTH",
"364 60 LINE",
"376 0 LINE",
"451 0 LINE SMOOTH",
"649 0 OFFCURVE",
"886 120 OFFCURVE",
"920 359 CURVE SMOOTH",
"952 586 OFFCURVE",
"764 740 OFFCURVE",
"562 719 CURVE",
"800 991 OFFCURVE",
"886 1068 OFFCURVE",
"897 1149 CURVE SMOOTH",
"921 1318 OFFCURVE",
"770 1398 OFFCURVE",
"579 1398 CURVE SMOOTH",
"356 1398 OFFCURVE",
"151 1218 OFFCURVE",
"119 994 CURVE SMOOTH",
"-21 0 LINE"
);
}
);
width = 1070;
}
);
leftKerningGroup = Germandbls;
rightKerningGroup = Germandbls;
unicode = 1E9E;
},
{
glyphname = T;
lastChange = "2020-01-28 10:10:21 +0000";
layers = (
{
layerId = "10BC12B3-5274-42E3-B5BC-F74F362F0DF4";
paths = (
{
closed = 1;
nodes = (
"118 1400 LINE",
"76 1100 LINE",
"476 1100 LINE",
"321 0 LINE",
"616 0 LINE",
"771 1100 LINE",
"1171 1100 LINE",
"1213 1400 LINE"
);
}
);
width = 1220;
},
{
layerId = "9AF1F7D9-E035-453E-B2A8-46DE370997D0";
paths = (
{
closed = 1;
nodes = (
"116 1400 LINE",
"108 1340 LINE",
"626 1340 LINE",
"437 0 LINE",
"497 0 LINE",
"686 1340 LINE",
"1206 1340 LINE",
"1214 1400 LINE"
);
}
);
width = 1218;
}
);
leftKerningGroup = T;
rightKerningGroup = T;
unicode = 0054;
},
{
glyphname = U;
lastChange = "2020-01-28 10:10:21 +0000";
layers = (
{
layerId = "10BC12B3-5274-42E3-B5BC-F74F362F0DF4";
paths = (
{
closed = 1;
nodes = (
"850 -26 OFFCURVE",
"1105 238 OFFCURVE",
"1152 576 CURVE SMOOTH",
"1271 1400 LINE",
"977 1400 LINE",
"870 592 LINE SMOOTH",
"843 420 OFFCURVE",
"712 274 OFFCURVE",
"531 274 CURVE SMOOTH",
"370 274 OFFCURVE",
"290 406 OFFCURVE",
"314 576 CURVE SMOOTH",
"433 1400 LINE",
"139 1400 LINE",
"32 592 LINE SMOOTH",
"-19 254 OFFCURVE",
"178 -26 OFFCURVE",
"523 -26 CURVE SMOOTH"
);
}
);
width = 1298;
},
{
layerId = "9AF1F7D9-E035-453E-B2A8-46DE370997D0";
paths = (
{
closed = 1;
nodes = (
"803 -26 OFFCURVE",
"1034 244 OFFCURVE",
"1081 582 CURVE SMOOTH",
"1196 1400 LINE",
"1136 1400 LINE",
"1022 586 LINE SMOOTH",
"980 290 OFFCURVE",
"781 34 OFFCURVE",
"471 34 CURVE SMOOTH",
"169 34 OFFCURVE",
"39 282 OFFCURVE",
"81 582 CURVE SMOOTH",
"196 1400 LINE",
"136 1400 LINE",
"22 586 LINE SMOOTH",
"-26 248 OFFCURVE",
"131 -26 OFFCURVE",
"469 -26 CURVE SMOOTH"
);
}
);
width = 1220;
}
);
leftKerningGroup = U;
rightKerningGroup = U;
unicode = 0055;
},
{
glyphname = V;
lastChange = "2020-01-28 10:10:21 +0000";
layers = (
{
layerId = "10BC12B3-5274-42E3-B5BC-F74F362F0DF4";
paths = (
{
closed = 1;
nodes = (
"777 0 LINE",
"1482 1400 LINE",
"1161 1400 LINE",
"623 344 LINE",
"389 1400 LINE",
"82 1400 LINE",
"393 0 LINE"
);
}
);
width = 1444;
},
{
layerId = "9AF1F7D9-E035-453E-B2A8-46DE370997D0";
paths = (
{
closed = 1;
nodes = (
"488 0 LINE",
"1195 1400 LINE",
"1130 1400 LINE",
"469 92 LINE",
"180 1400 LINE",
"117 1400 LINE",
"428 0 LINE"
);
}
);
width = 1198;
}
);
leftKerningGroup = V;
rightKerningGroup = V;
unicode = 0056;
},
{
glyphname = W;
lastChange = "2020-01-28 10:10:21 +0000";
layers = (
{
layerId = "10BC12B3-5274-42E3-B5BC-F74F362F0DF4";
paths = (
{
closed = 1;
nodes = (
"600 0 LINE",
"890 726 LINE",
"974 0 LINE",
"1308 0 LINE",
"1861 1400 LINE",
"1549 1400 LINE",
"1210 552 LINE",
"1113 1400 LINE",
"841 1400 LINE",
"502 552 LINE",
"405 1400 LINE",
"105 1400 LINE",
"266 0 LINE"
);
}
);
width = 1848;
},
{
layerId = "9AF1F7D9-E035-453E-B2A8-46DE370997D0";
paths = (
{
closed = 1;
nodes = (
"340 0 LINE",
"836 1250 LINE",
"980 0 LINE",
"1060 0 LINE",
"1613 1400 LINE",
"1550 1400 LINE",
"1031 86 LINE",
"880 1400 LINE",
"832 1400 LINE",
"313 86 LINE",
"162 1400 LINE",
"101 1400 LINE",
"262 0 LINE"
);
}
);
width = 1600;
}
);
leftKerningGroup = W;
rightKerningGroup = W;
unicode = 0057;
},
{
glyphname = X;
lastChange = "2020-01-28 10:10:21 +0000";
layers = (
{
layerId = "10BC12B3-5274-42E3-B5BC-F74F362F0DF4";
paths = (
{
closed = 1;
nodes = (
"296 0 LINE",
"689 448 LINE",
"948 0 LINE",
"1312 0 LINE",
"902 704 LINE",
"1513 1402 LINE",
"1135 1402 LINE",
"745 958 LINE",
"486 1402 LINE",
"125 1402 LINE",
"530 704 LINE",
"-84 0 LINE"
);
}
);
width = 1516;
},
{
layerId = "9AF1F7D9-E035-453E-B2A8-46DE370997D0";
paths = (
{
closed = 1;
nodes = (
"-4 0 LINE",
"562 652 LINE",
"946 0 LINE",
"1019 0 LINE",
"606 704 LINE",
"1213 1402 LINE",
"1138 1402 LINE",
"574 754 LINE",
"194 1402 LINE",
"121 1402 LINE",
"532 704 LINE",
"-81 0 LINE"
);
}
);
width = 1220;
}
);
leftKerningGroup = X;
rightKerningGroup = X;
unicode = 0058;
},
{
glyphname = Y;
lastChange = "2020-01-28 10:10:21 +0000";
layers = (
{
layerId = "10BC12B3-5274-42E3-B5BC-F74F362F0DF4";
paths = (
{
closed = 1;
nodes = (
"682 956 LINE",
"466 1400 LINE",
"120 1400 LINE",
"501 630 LINE",
"407 0 LINE",
"702 0 LINE",
"794 630 LINE",
"1392 1400 LINE",
"1031 1400 LINE"
);
}
);
width = 1392;
},
{
layerId = "9AF1F7D9-E035-453E-B2A8-46DE370997D0";
paths = (
{
closed = 1;
nodes = (
"511 702 LINE",
"186 1400 LINE",
"117 1400 LINE",
"473 636 LINE",
"383 0 LINE",
"443 0 LINE",
"533 636 LINE",
"1105 1400 LINE",
"1034 1400 LINE"
);
}
);
width = 1108;
}
);
leftKerningGroup = Y;
rightKerningGroup = Y;
unicode = 0059;
},
{
glyphname = Z;
lastChange = "2020-01-28 10:10:21 +0000";
layers = (
{
layerId = "10BC12B3-5274-42E3-B5BC-F74F362F0DF4";
paths = (
{
closed = 1;
nodes = (
"1028 0 LINE",
"1071 300 LINE",
"351 300 LINE",
"1186 1100 LINE",
"1225 1400 LINE",
"98 1400 LINE",
"56 1100 LINE",
"776 1100 LINE",
"-59 300 LINE",
"-97 0 LINE"
);
}
);
width = 1212;
},
{
layerId = "9AF1F7D9-E035-453E-B2A8-46DE370997D0";
paths = (
{
closed = 1;
nodes = (
"1031 0 LINE",
"1040 60 LINE",
"-13 60 LINE",
"1220 1340 LINE",
"1228 1400 LINE",
"96 1400 LINE",
"88 1340 LINE",
"1141 1340 LINE",
"-93 60 LINE",
"-101 0 LINE"
);
}
);
width = 1212;
}
);
leftKerningGroup = Z;
rightKerningGroup = Z;
unicode = 005A;
},
{
glyphname = a;
lastChange = "2020-01-28 10:10:21 +0000";
layers = (
{
layerId = "10BC12B3-5274-42E3-B5BC-F74F362F0DF4";
paths = (
{
closed = 1;
nodes = (
"830 903 LINE",
"774 973 OFFCURVE",
"700 1028 OFFCURVE",
"583 1028 CURVE SMOOTH",
"302 1028 OFFCURVE",
"48 800 OFFCURVE",
"14 518 CURVE SMOOTH",
"-33 218 OFFCURVE",
"170 -26 OFFCURVE",
"469 -26 CURVE SMOOTH",
"568 -26 OFFCURVE",
"653 17 OFFCURVE",
"723 87 CURVE",
"710 0 LINE",
"1006 0 LINE",
"1147 1000 LINE",
"851 1000 LINE"
);
},
{
closed = 1;
nodes = (
"366 262 OFFCURVE",
"282 362 OFFCURVE",
"293 482 CURVE SMOOTH",
"319 624 OFFCURVE",
"450 738 OFFCURVE",
"580 738 CURVE SMOOTH",
"696 738 OFFCURVE",
"779 640 OFFCURVE",
"768 518 CURVE SMOOTH",
"743 378 OFFCURVE",
"612 262 OFFCURVE",
"480 262 CURVE SMOOTH"
);
}
);
width = 1270;
},
{
layerId = "9AF1F7D9-E035-453E-B2A8-46DE370997D0";
paths = (
{
closed = 1;
nodes = (
"970 766 LINE",
"920 922 OFFCURVE",
"792 1028 OFFCURVE",
"597 1028 CURVE",
"308 1028 OFFCURVE",
"41 794 OFFCURVE",
"0 503 CURVE",
"-41 212 OFFCURVE",
"163 -26 OFFCURVE",
"455 -26 CURVE",
"647 -26 OFFCURVE",
"803 76 OFFCURVE",
"897 232 CURVE",
"863 0 LINE",
"923 0 LINE",
"1064 1000 LINE",
"1004 1000 LINE"
);
},
{
closed = 1;
nodes = (
"209 34 OFFCURVE",
"23 236 OFFCURVE",
"59 497 CURVE",
"96 756 OFFCURVE",
"335 968 OFFCURVE",
"595 968 CURVE",
"847 968 OFFCURVE",
"967 764 OFFCURVE",
"930 503 CURVE",
"894 246 OFFCURVE",
"717 34 OFFCURVE",
"457 34 CURVE"
);
}
);
width = 1184;
}
);
leftKerningGroup = "1";
rightKerningGroup = n;
unicode = 0061;
},
{
glyphname = ae;
lastChange = "2020-01-28 10:10:21 +0000";
layers = (
{
layerId = "10BC12B3-5274-42E3-B5BC-F74F362F0DF4";
paths = (
{
closed = 1;
nodes = (
"494 -26 LINE SMOOTH",
"628 -26 OFFCURVE",
"708 7 OFFCURVE",
"817 101 CURVE",
"891 28 OFFCURVE",
"996 -26 OFFCURVE",
"1131 -26 CURVE SMOOTH",
"1322 -26 OFFCURVE",
"1501 89 OFFCURVE",
"1607 267 CURVE",
"1312 356 LINE",
"1270 310 OFFCURVE",
"1206 274 OFFCURVE",
"1139 274 CURVE SMOOTH",
"1054 276 OFFCURVE",
"1006 323 OFFCURVE",
"988 395 CURVE",
"1659 393 LINE",
"1764 713 OFFCURVE",
"1572 1028 OFFCURVE",
"1245 1028 CURVE SMOOTH",
"1130 1028 OFFCURVE",
"1016 989 OFFCURVE",
"907 906 CURVE",
"835 985 OFFCURVE",
"710 1028 OFFCURVE",
"539 1028 CURVE SMOOTH",
"352 1028 OFFCURVE",
"215 1013 OFFCURVE",
"96 847 CURVE",
"332 677 LINE",
"352 707 OFFCURVE",
"390 756 OFFCURVE",
"534 756 CURVE SMOOTH",
"638 756 OFFCURVE",
"714 715 OFFCURVE",
"718 629 CURVE",
"296 622 LINE SMOOTH",
"136 622 OFFCURVE",
"6 500 OFFCURVE",
"-9 352 CURVE SMOOTH",
"-48 116 OFFCURVE",
"84 -26 OFFCURVE",
"368 -26 CURVE SMOOTH"
);
},
{
closed = 1;
nodes = (
"314 174 OFFCURVE",
"254 226 OFFCURVE",
"260 312 CURVE SMOOTH",
"279 404 OFFCURVE",
"369 422 OFFCURVE",
"457 422 CURVE SMOOTH",
"675 422 LINE",
"675 382 LINE SMOOTH",
"656 274 OFFCURVE",
"538 174 OFFCURVE",
"417 174 CURVE SMOOTH"
);
},
{
closed = 1;
nodes = (
"1053 699 OFFCURVE",
"1148 768 OFFCURVE",
"1242 768 CURVE SMOOTH",
"1320 768 OFFCURVE",
"1385 715 OFFCURVE",
"1401 629 CURVE",
"1013 613 LINE"
);
}
);
width = 1818;
},
{
layerId = "9AF1F7D9-E035-453E-B2A8-46DE370997D0";
paths = (
{
closed = 1;
nodes = (
"433 0 LINE SMOOTH",
"601 0 OFFCURVE",
"757 120 OFFCURVE",
"804 284 CURVE",
"865 117 OFFCURVE",
"1015 0 OFFCURVE",
"1211 0 CURVE SMOOTH",
"1409 0 OFFCURVE",
"1597 122 OFFCURVE",
"1702 300 CURVE",
"1643 317 LINE",
"1541 157 OFFCURVE",
"1384 60 OFFCURVE",
"1213 60 CURVE SMOOTH",
"984 60 OFFCURVE",
"822 244 OFFCURVE",
"837 494 CURVE",
"1775 494 LINE",
"1816 828 OFFCURVE",
"1640 1054 OFFCURVE",
"1352 1054 CURVE SMOOTH",
"1148 1054 OFFCURVE",
"953 924 OFFCURVE",
"850 734 CURVE",
"845 912 OFFCURVE",
"784 1054 OFFCURVE",
"534 1054 CURVE SMOOTH",
"404 1054 OFFCURVE",
"235 1015 OFFCURVE",
"144 889 CURVE",
"193 857 LINE",
"272 963 OFFCURVE",
"421 994 OFFCURVE",
"533 994 CURVE SMOOTH",
"827 994 OFFCURVE",
"802 798 OFFCURVE",
"784 558 CURVE",
"362 556 LINE SMOOTH",
"182 556 OFFCURVE",
"12 518 OFFCURVE",
"-25 321 CURVE",
"-53 94 OFFCURVE",
"141 0 OFFCURVE",
"321 0 CURVE SMOOTH"
);
},
{
closed = 1;
nodes = (
"178 60 OFFCURVE",
"9 110 OFFCURVE",
"34 315 CURVE",
"60 456 OFFCURVE",
"181 496 OFFCURVE",
"357 496 CURVE SMOOTH",
"777 496 LINE",
"762 386 LINE",
"754 332 OFFCURVE",
"724 60 OFFCURVE",
"383 60 CURVE"
);
},
{
closed = 1;
nodes = (
"895 796 OFFCURVE",
"1111 994 OFFCURVE",
"1351 994 CURVE SMOOTH",
"1585 994 OFFCURVE",
"1749 792 OFFCURVE",
"1724 558 CURVE",
"845 554 LINE"
);
}
);
width = 1906;
}
);
leftKerningGroup = "1";
rightKerningGroup = e;
unicode = 00E6;
},
{
glyphname = b;
lastChange = "2020-01-28 10:10:21 +0000";
layers = (
{
layerId = "10BC12B3-5274-42E3-B5BC-F74F362F0DF4";
paths = (
{
closed = 1;
nodes = (
"562 1028 OFFCURVE",
"477 985 OFFCURVE",
"405 915 CURVE",
"488 1500 LINE",
"193 1500 LINE",
"-19 0 LINE",
"276 0 LINE",
"300 100 LINE",
"355 30 OFFCURVE",
"430 -26 OFFCURVE",
"545 -26 CURVE",
"828 -26 OFFCURVE",
"1082 202 OFFCURVE",
"1116 484 CURVE",
"1164 784 OFFCURVE",
"960 1028 OFFCURVE",
"659 1028 CURVE"
);
},
{
closed = 1;
nodes = (
"434 264 OFFCURVE",
"350 362 OFFCURVE",
"361 484 CURVE",
"387 624 OFFCURVE",
"518 740 OFFCURVE",
"648 740 CURVE",
"764 740 OFFCURVE",
"847 640 OFFCURVE",
"836 520 CURVE",
"811 378 OFFCURVE",
"680 264 OFFCURVE",
"548 264 CURVE"
);
}
);
width = 1260;
},
{
layerId = "9AF1F7D9-E035-453E-B2A8-46DE370997D0";
paths = (
{
closed = 1;
nodes = (
"396 1028 OFFCURVE",
"241 926 OFFCURVE",
"147 770 CURVE",
"250 1500 LINE",
"190 1500 LINE",
"-21 0 LINE",
"39 0 LINE",
"73 236 LINE",
"123 80 OFFCURVE",
"251 -26 OFFCURVE",
"447 -26 CURVE",
"735 -26 OFFCURVE",
"1003 208 OFFCURVE",
"1043 497 CURVE",
"1085 790 OFFCURVE",
"880 1028 OFFCURVE",
"589 1028 CURVE"
);
},
{
closed = 1;
nodes = (
"197 34 OFFCURVE",
"77 238 OFFCURVE",
"113 497 CURVE",
"149 754 OFFCURVE",
"327 968 OFFCURVE",
"587 968 CURVE",
"835 968 OFFCURVE",
"1021 766 OFFCURVE",
"984 503 CURVE",
"948 246 OFFCURVE",
"709 34 OFFCURVE",
"449 34 CURVE"
);
}
);
width = 1194;
}
);
leftKerningGroup = h;
rightKerningGroup = o;
unicode = 0062;
},
{
glyphname = c;
lastChange = "2020-01-28 10:10:21 +0000";
layers = (
{
layerId = "10BC12B3-5274-42E3-B5BC-F74F362F0DF4";
paths = (
{
closed = 1;
nodes = (
"553 301 OFFCURVE",
"498 274 OFFCURVE",
"441 274 CURVE",
"336 274 OFFCURVE",
"265 374 OFFCURVE",
"275 482 CURVE",
"299 612 OFFCURVE",
"416 728 OFFCURVE",
"539 728 CURVE",
"578 728 OFFCURVE",
"624 713 OFFCURVE",
"654 677 CURVE",
"925 812 LINE",
"850 940 OFFCURVE",
"720 1028 OFFCURVE",
"547 1028 CURVE",
"280 1028 OFFCURVE",
"38 800 OFFCURVE",
"4 518 CURVE",
"-43 218 OFFCURVE",
"148 -26 OFFCURVE",
"433 -26 CURVE",
"588 -26 OFFCURVE",
"736 48 OFFCURVE",
"846 174 CURVE",
"593 335 LINE"
);
}
);
width = 1020;
},
{
layerId = "9AF1F7D9-E035-453E-B2A8-46DE370997D0";
paths = (
{
closed = 1;
nodes = (
"702 109 OFFCURVE",
"563 34 OFFCURVE",
"421 34 CURVE",
"181 34 OFFCURVE",
"13 240 OFFCURVE",
"49 497 CURVE",
"85 752 OFFCURVE",
"309 968 OFFCURVE",
"559 968 CURVE",
"685 968 OFFCURVE",
"808 905 OFFCURVE",
"878 791 CURVE",
"932 817 LINE",
"859 945 OFFCURVE",
"724 1028 OFFCURVE",
"561 1028 CURVE",
"286 1028 OFFCURVE",
"31 794 OFFCURVE",
"-10 503 CURVE",
"-51 212 OFFCURVE",
"141 -26 OFFCURVE",
"419 -26 CURVE",
"579 -26 OFFCURVE",
"736 55 OFFCURVE",
"844 183 CURVE",
"794 213 LINE"
);
}
);
width = 1018;
}
);
leftKerningGroup = "1";
rightKerningGroup = c;
unicode = 0063;
},
{
glyphname = d;
lastChange = "2020-01-28 10:10:21 +0000";
layers = (
{
layerId = "10BC12B3-5274-42E3-B5BC-F74F362F0DF4";
paths = (
{
closed = 1;
nodes = (
"840 903 LINE",
"784 973 OFFCURVE",
"709 1026 OFFCURVE",
"593 1026 CURVE",
"311 1026 OFFCURVE",
"58 798 OFFCURVE",
"24 518 CURVE",
"-23 218 OFFCURVE",
"180 -26 OFFCURVE",
"479 -26 CURVE",
"578 -26 OFFCURVE",
"662 15 OFFCURVE",
"734 85 CURVE",
"720 0 LINE",
"1016 0 LINE",
"1228 1500 LINE",
"933 1500 LINE"
);
},
{
closed = 1;
nodes = (
"376 262 OFFCURVE",
"292 360 OFFCURVE",
"303 482 CURVE",
"329 624 OFFCURVE",
"460 738 OFFCURVE",
"590 738 CURVE",
"706 738 OFFCURVE",
"789 640 OFFCURVE",
"779 518 CURVE",
"752 376 OFFCURVE",
"622 262 OFFCURVE",
"490 262 CURVE"
);
}
);
width = 1280;
},
{
layerId = "9AF1F7D9-E035-453E-B2A8-46DE370997D0";
paths = (
{
closed = 1;
nodes = (
"980 766 LINE",
"930 922 OFFCURVE",
"802 1028 OFFCURVE",
"607 1028 CURVE",
"318 1028 OFFCURVE",
"51 794 OFFCURVE",
"10 503 CURVE",
"-31 212 OFFCURVE",
"173 -26 OFFCURVE",
"465 -26 CURVE",
"657 -26 OFFCURVE",
"813 76 OFFCURVE",
"907 232 CURVE",
"873 0 LINE",
"933 0 LINE",
"1144 1500 LINE",
"1084 1500 LINE"
);
},
{
closed = 1;
nodes = (
"219 34 OFFCURVE",
"33 236 OFFCURVE",
"69 497 CURVE",
"106 756 OFFCURVE",
"347 968 OFFCURVE",
"605 968 CURVE",
"857 968 OFFCURVE",
"977 764 OFFCURVE",
"940 503 CURVE",
"904 246 OFFCURVE",
"727 34 OFFCURVE",
"467 34 CURVE"
);
}
);
width = 1194;
}
);
leftKerningGroup = "2";
rightKerningGroup = l;
unicode = 0064;
},
{
glyphname = eth;
lastChange = "2020-01-28 10:10:21 +0000";
layers = (
{
components = (
{
name = partialdiff;
}
);
layerId = "10BC12B3-5274-42E3-B5BC-F74F362F0DF4";
paths = (
{
closed = 1;
nodes = (
"940 1450 LINE",
"813 1592 LINE",
"319 1160 LINE",
"448 1018 LINE"
);
}
);
width = 1126;
},
{
components = (
{
name = partialdiff;
}
);
layerId = "9AF1F7D9-E035-453E-B2A8-46DE370997D0";
paths = (
{
closed = 1;
nodes = (
"936 1500 LINE",
"899 1542 LINE",
"400 1114 LINE",
"439 1070 LINE"
);
}
);
width = 1200;
}
);
leftKerningGroup = "2";
rightKerningGroup = eth;
unicode = 00F0;
},
{
glyphname = e;
lastChange = "2020-01-28 10:10:21 +0000";
layers = (
{
layerId = "10BC12B3-5274-42E3-B5BC-F74F362F0DF4";
paths = (
{
closed = 1;
nodes = (
"624 -26 OFFCURVE",
"803 89 OFFCURVE",
"910 267 CURVE",
"613 354 LINE",
"570 309 OFFCURVE",
"507 273 OFFCURVE",
"441 274 CURVE SMOOTH",
"357 276 OFFCURVE",
"308 323 OFFCURVE",
"291 394 CURVE",
"961 392 LINE",
"1067 710 OFFCURVE",
"875 1028 OFFCURVE",
"547 1028 CURVE SMOOTH",
"280 1028 OFFCURVE",
"38 800 OFFCURVE",
"4 519 CURVE SMOOTH",
"-44 218 OFFCURVE",
"148 -26 OFFCURVE",
"433 -26 CURVE SMOOTH"
);
},
{
closed = 1;
nodes = (
"357 698 OFFCURVE",
"451 768 OFFCURVE",
"544 768 CURVE SMOOTH",
"622 768 OFFCURVE",
"688 714 OFFCURVE",
"705 628 CURVE",
"317 612 LINE"
);
}
);
width = 1121;
},
{
layerId = "9AF1F7D9-E035-453E-B2A8-46DE370997D0";
paths = (
{
closed = 1;
nodes = (
"617 -26 OFFCURVE",
"806 96 OFFCURVE",
"911 274 CURVE",
"852 291 LINE",
"749 131 OFFCURVE",
"593 34 OFFCURVE",
"421 34 CURVE SMOOTH",
"193 34 OFFCURVE",
"30 218 OFFCURVE",
"45 468 CURVE",
"983 468 LINE",
"1024 802 OFFCURVE",
"848 1028 OFFCURVE",
"561 1028 CURVE SMOOTH",
"286 1028 OFFCURVE",
"31 794 OFFCURVE",
"-10 503 CURVE SMOOTH",
"-51 212 OFFCURVE",
"141 -26 OFFCURVE",
"419 -26 CURVE SMOOTH"
);
},
{
closed = 1;
nodes = (
"104 770 OFFCURVE",
"319 968 OFFCURVE",
"559 968 CURVE SMOOTH",
"793 968 OFFCURVE",
"957 766 OFFCURVE",
"932 532 CURVE",
"54 528 LINE"
);
}
);
width = 1118;
}
);
leftKerningGroup = "1";
rightKerningGroup = e;
unicode = 0065;
},
{
glyphname = f;
lastChange = "2020-01-28 10:10:21 +0000";
layers = (
{
layerId = "10BC12B3-5274-42E3-B5BC-F74F362F0DF4";
paths = (
{
closed = 1;
nodes = (
"475 1197 OFFCURVE",
"514 1224 OFFCURVE",
"525 1224 CURVE",
"533 1224 OFFCURVE",
"565 1221 OFFCURVE",
"568 1217 CURVE",
"793 1417 LINE",
"736 1483 OFFCURVE",
"655 1524 OFFCURVE",
"555 1524 CURVE",
"373 1524 OFFCURVE",
"213 1378 OFFCURVE",
"187 1190 CURVE",
"157 1000 LINE",
"63 1000 LINE",
"21 700 LINE",
"115 700 LINE",
"15 0 LINE",
"310 0 LINE",
"410 700 LINE",
"636 700 LINE",
"677 1000 LINE",
"451 1000 LINE",
"468 1173 LINE"
);
}
);
width = 802;
},
{
layerId = "9AF1F7D9-E035-453E-B2A8-46DE370997D0";
paths = (
{
closed = 1;
nodes = (
"313 1388 OFFCURVE",
"399 1464 OFFCURVE",
"491 1464 CURVE",
"533 1464 OFFCURVE",
"572 1447 OFFCURVE",
"598 1417 CURVE",
"644 1457 LINE",
"607 1499 OFFCURVE",
"554 1524 OFFCURVE",
"492 1524 CURVE",
"370 1524 OFFCURVE",
"258 1426 OFFCURVE",
"240 1302 CURVE",
"198 1000 LINE",
"40 1000 LINE",
"32 940 LINE",
"190 940 LINE",
"57 0 LINE",
"117 0 LINE",
"250 940 LINE",
"572 940 LINE",
"580 1000 LINE",
"258 1000 LINE",
"300 1298 LINE"
);
}
);
width = 660;
}
);
leftKerningGroup = f;
rightKerningGroup = f;
unicode = 0066;
},
{
glyphname = g;
lastChange = "2020-01-28 10:10:21 +0000";
layers = (
{
layerId = "10BC12B3-5274-42E3-B5BC-F74F362F0DF4";
paths = (
{
closed = 1;
nodes = (
"834 907 LINE",
"781 975 OFFCURVE",
"707 1026 OFFCURVE",
"593 1026 CURVE SMOOTH",
"311 1026 OFFCURVE",
"58 798 OFFCURVE",
"24 518 CURVE SMOOTH",
"-23 218 OFFCURVE",
"180 -26 OFFCURVE",
"479 -26 CURVE SMOOTH",
"576 -26 OFFCURVE",
"658 13 OFFCURVE",
"727 81 CURVE",
"721 -2 LINE SMOOTH",
"701 -132 OFFCURVE",
"547 -198 OFFCURVE",
"401 -198 CURVE SMOOTH",
"315 -198 OFFCURVE",
"235 -153 OFFCURVE",
"205 -63 CURVE",
"-67 -173 LINE",
"-4 -363 OFFCURVE",
"172 -500 OFFCURVE",
"392 -500 CURVE SMOOTH",
"688 -500 OFFCURVE",
"963 -322 OFFCURVE",
"1005 -18 CURVE SMOOTH",
"1151 1000 LINE",
"855 1000 LINE"
);
},
{
closed = 1;
nodes = (
"376 262 OFFCURVE",
"292 360 OFFCURVE",
"303 482 CURVE SMOOTH",
"329 624 OFFCURVE",
"460 738 OFFCURVE",
"590 738 CURVE SMOOTH",
"706 738 OFFCURVE",
"789 640 OFFCURVE",
"779 518 CURVE SMOOTH",
"752 376 OFFCURVE",
"622 262 OFFCURVE",
"490 262 CURVE SMOOTH"
);
}
);
width = 1274;
},
{
layerId = "9AF1F7D9-E035-453E-B2A8-46DE370997D0";
paths = (
{
closed = 1;
nodes = (
"943 768 LINE",
"890 922 OFFCURVE",
"764 1028 OFFCURVE",
"581 1028 CURVE",
"306 1028 OFFCURVE",
"51 794 OFFCURVE",
"10 503 CURVE",
"-31 212 OFFCURVE",
"161 -26 OFFCURVE",
"439 -26 CURVE",
"619 -26 OFFCURVE",
"773 76 OFFCURVE",
"869 230 CURVE",
"829 -48 LINE",
"801 -248 OFFCURVE",
"570 -440 OFFCURVE",
"362 -440 CURVE",
"186 -440 OFFCURVE",
"18 -292 OFFCURVE",
"9 -112 CURVE",
"-49 -134 LINE",
"-30 -328 OFFCURVE",
"151 -500 OFFCURVE",
"361 -500 CURVE",
"595 -500 OFFCURVE",
"856 -284 OFFCURVE",
"888 -52 CURVE",
"1036 1000 LINE",
"976 1000 LINE"
);
},
{
closed = 1;
nodes = (
"203 34 OFFCURVE",
"33 238 OFFCURVE",
"69 497 CURVE",
"106 756 OFFCURVE",
"331 968 OFFCURVE",
"579 968 CURVE",
"821 968 OFFCURVE",
"940 756 OFFCURVE",
"904 503 CURVE",
"869 254 OFFCURVE",
"691 34 OFFCURVE",
"441 34 CURVE"
);
}
);
width = 1156;
}
);
leftKerningGroup = "1";
rightKerningGroup = g;
unicode = 0067;
},
{
glyphname = h;
lastChange = "2020-01-28 10:10:21 +0000";
layers = (
{
layerId = "10BC12B3-5274-42E3-B5BC-F74F362F0DF4";
paths = (
{
closed = 1;
nodes = (
"1057 784 OFFCURVE",
"915 1026 OFFCURVE",
"619 1026 CURVE",
"527 1026 OFFCURVE",
"464 1029 OFFCURVE",
"414 947 CURVE",
"488 1500 LINE",
"193 1500 LINE",
"-19 0 LINE",
"278 0 LINE",
"342 492 LINE",
"363 624 OFFCURVE",
"440 738 OFFCURVE",
"580 738 CURVE",
"682 738 OFFCURVE",
"753 640 OFFCURVE",
"735 508 CURVE",
"659 0 LINE",
"954 0 LINE",
"1018 496 LINE"
);
}
);
width = 1178;
},
{
layerId = "9AF1F7D9-E035-453E-B2A8-46DE370997D0";
paths = (
{
closed = 1;
nodes = (
"926 804 OFFCURVE",
"780 1028 OFFCURVE",
"539 1028 CURVE",
"392 1028 OFFCURVE",
"253 943 OFFCURVE",
"151 797 CURVE",
"250 1500 LINE",
"190 1500 LINE",
"-21 0 LINE",
"39 0 LINE",
"117 548 LINE",
"149 778 OFFCURVE",
"339 968 OFFCURVE",
"537 968 CURVE",
"733 968 OFFCURVE",
"867 782 OFFCURVE",
"835 552 CURVE",
"757 0 LINE",
"817 0 LINE",
"895 552 LINE"
);
}
);
width = 1038;
}
);
leftKerningGroup = "1";
rightKerningGroup = n;
unicode = 0068;
},
{
glyphname = i;
lastChange = "2020-01-28 10:10:21 +0000";
layers = (
{
layerId = "10BC12B3-5274-42E3-B5BC-F74F362F0DF4";
paths = (
{
closed = 1;
nodes = (
"-17 0 LINE",
"278 0 LINE",
"419 1000 LINE",
"125 1000 LINE"
);
},
{
closed = 1;
nodes = (
"376 1100 OFFCURVE",
"436 1158 OFFCURVE",
"440 1232 CURVE",
"458 1324 OFFCURVE",
"402 1400 OFFCURVE",
"309 1400 CURVE",
"236 1400 OFFCURVE",
"174 1340 OFFCURVE",
"170 1268 CURVE",
"152 1174 OFFCURVE",
"210 1100 OFFCURVE",
"301 1100 CURVE"
);
}
);
width = 542;
},
{
layerId = "9AF1F7D9-E035-453E-B2A8-46DE370997D0";
paths = (
{
closed = 1;
nodes = (
"-15 0 LINE",
"45 0 LINE",
"186 1000 LINE",
"126 1000 LINE"
);
},
{
closed = 1;
nodes = (
"218 1200 OFFCURVE",
"241 1222 OFFCURVE",
"244 1241 CURVE",
"247 1266 OFFCURVE",
"227 1290 OFFCURVE",
"201 1290 CURVE",
"179 1290 OFFCURVE",
"158 1270 OFFCURVE",
"155 1247 CURVE",
"152 1226 OFFCURVE",
"170 1200 OFFCURVE",
"195 1200 CURVE"
);
}
);
width = 330;
}
);
leftKerningGroup = i;
rightKerningGroup = i;
unicode = 0069;
},
{
glyphname = idotless;
lastChange = "2020-01-28 10:10:21 +0000";
layers = (
{
layerId = "10BC12B3-5274-42E3-B5BC-F74F362F0DF4";
paths = (
{
closed = 1;
nodes = (
"-19 0 LINE",
"276 0 LINE",
"417 1000 LINE",
"123 1000 LINE"
);
}
);
width = 540;
},
{
layerId = "9AF1F7D9-E035-453E-B2A8-46DE370997D0";
paths = (
{
closed = 1;
nodes = (
"-21 0 LINE",
"39 0 LINE",
"180 1000 LINE",
"120 1000 LINE"
);
}
);
width = 300;
}
);
leftKerningGroup = i;
rightKerningGroup = idotless;
unicode = 0131;
},
{
glyphname = iacute;
lastChange = "2020-01-28 10:10:21 +0000";
layers = (
{
components = (
{
name = acutecomb;
transform = "{1, 0, 0, 1, -290, 0}";
}
);
layerId = "10BC12B3-5274-42E3-B5BC-F74F362F0DF4";
paths = (
{
closed = 1;
nodes = (
"-19 0 LINE",
"276 0 LINE",
"417 1000 LINE",
"123 1000 LINE"
);
}
);
width = 540;
},
{
components = (
{
name = acutecomb;
transform = "{1, 0, 0, 1, -340, 0}";
}
);
layerId = "9AF1F7D9-E035-453E-B2A8-46DE370997D0";
paths = (
{
closed = 1;
nodes = (
"-21 0 LINE",
"39 0 LINE",
"180 1000 LINE",
"120 1000 LINE"
);
}
);
width = 300;
}
);
leftKerningGroup = i;
rightKerningGroup = i;
unicode = 00ED;
},
{
glyphname = icircumflex;
lastChange = "2020-01-28 10:10:21 +0000";
layers = (
{
components = (
{
name = circumflexcomb;
transform = "{1, 0, 0, 1, -380, 0}";
}
);
layerId = "10BC12B3-5274-42E3-B5BC-F74F362F0DF4";
paths = (
{
closed = 1;
nodes = (
"-19 0 LINE",
"276 0 LINE",
"417 1000 LINE",
"123 1000 LINE"
);
}
);
width = 540;
},
{
components = (
{
name = circumflexcomb;
transform = "{1, 0, 0, 1, -370, 0}";
}
);
layerId = "9AF1F7D9-E035-453E-B2A8-46DE370997D0";
paths = (
{
closed = 1;
nodes = (
"-21 0 LINE",
"39 0 LINE",
"180 1000 LINE",
"120 1000 LINE"
);
}
);
width = 300;
}
);
leftKerningGroup = i;
rightKerningGroup = i;
unicode = 00EE;
},
{
glyphname = idieresis;
lastChange = "2020-01-28 10:10:21 +0000";
layers = (
{
components = (
{
name = dieresiscomb;
transform = "{1, 0, 0, 1, -500, 0}";
}
);
layerId = "10BC12B3-5274-42E3-B5BC-F74F362F0DF4";
paths = (
{
closed = 1;
nodes = (
"-19 0 LINE",
"276 0 LINE",
"417 1000 LINE",
"123 1000 LINE"
);
}
);
width = 540;
},
{
components = (
{
name = dieresiscomb;
transform = "{1, 0, 0, 1, -422, 0}";
}
);
layerId = "9AF1F7D9-E035-453E-B2A8-46DE370997D0";
paths = (
{
closed = 1;
nodes = (
"-21 0 LINE",
"39 0 LINE",
"180 1000 LINE",
"120 1000 LINE"
);
}
);
width = 300;
}
);
leftKerningGroup = i;
rightKerningGroup = i;
unicode = 00EF;
},
{
glyphname = igrave;
lastChange = "2020-01-28 10:10:21 +0000";
layers = (
{
components = (
{
name = grave;
transform = "{1, 0, 0, 1, -350, 0}";
}
);
layerId = "10BC12B3-5274-42E3-B5BC-F74F362F0DF4";
paths = (
{
closed = 1;
nodes = (
"-19 0 LINE",
"276 0 LINE",
"417 1000 LINE",
"123 1000 LINE"
);
}
);
width = 540;
},
{
components = (
{
name = grave;
transform = "{1, 0, 0, 1, -300, 0}";
}
);
layerId = "9AF1F7D9-E035-453E-B2A8-46DE370997D0";
paths = (
{
closed = 1;
nodes = (
"-21 0 LINE",
"39 0 LINE",
"180 1000 LINE",
"120 1000 LINE"
);
}
);
width = 300;
}
);
leftKerningGroup = i;
rightKerningGroup = i;
unicode = 00EC;
},
{
glyphname = j;
lastChange = "2020-01-28 10:10:21 +0000";
layers = (
{
layerId = "10BC12B3-5274-42E3-B5BC-F74F362F0DF4";
paths = (
{
closed = 1;
nodes = (
"120 -500 OFFCURVE",
"344 -296 OFFCURVE",
"380 -36 CURVE",
"529 1000 LINE",
"235 1000 LINE",
"98 -20 LINE",
"81 -116 OFFCURVE",
"-23 -200 OFFCURVE",
"-109 -200 CURVE",
"-100 -200 OFFCURVE",
"-176 -500 OFFCURVE",
"-168 -500 CURVE"
);
},
{
closed = 1;
nodes = (
"486 1100 OFFCURVE",
"548 1160 OFFCURVE",
"552 1231 CURVE",
"572 1326 OFFCURVE",
"512 1400 OFFCURVE",
"421 1400 CURVE",
"346 1400 OFFCURVE",
"287 1342 OFFCURVE",
"282 1268 CURVE",
"264 1176 OFFCURVE",
"320 1100 OFFCURVE",
"413 1100 CURVE"
);
}
);
width = 652;
},
{
layerId = "9AF1F7D9-E035-453E-B2A8-46DE370997D0";
paths = (
{
closed = 1;
nodes = (
"63 -500 OFFCURVE",
"237 -346 OFFCURVE",
"264 -150 CURVE",
"426 1000 LINE",
"366 1000 LINE",
"205 -146 LINE",
"182 -312 OFFCURVE",
"32 -440 OFFCURVE",
"-142 -440 CURVE",
"-141 -440 OFFCURVE",
"-152 -500 OFFCURVE",
"-151 -500 CURVE SMOOTH"
);
},
{
closed = 1;
nodes = (
"450 1200 OFFCURVE",
"473 1218 OFFCURVE",
"476 1241 CURVE",
"479 1266 OFFCURVE",
"459 1290 OFFCURVE",
"433 1290 CURVE",
"411 1290 OFFCURVE",
"390 1270 OFFCURVE",
"387 1247 CURVE",
"383 1222 OFFCURVE",
"402 1200 OFFCURVE",
"427 1200 CURVE"
);
}
);
width = 582;
}
);
leftKerningGroup = j;
rightKerningGroup = j;
unicode = 006A;
},
{
glyphname = k;
lastChange = "2020-01-28 10:10:21 +0000";
layers = (
{
layerId = "10BC12B3-5274-42E3-B5BC-F74F362F0DF4";
paths = (
{
closed = 1;
nodes = (
"675 588 LINE",
"1082 1000 LINE",
"682 1000 LINE",
"369 682 LINE",
"488 1500 LINE",
"193 1500 LINE",
"-19 0 LINE",
"276 0 LINE",
"311 216 LINE",
"445 344 LINE",
"592 0 LINE",
"928 0 LINE"
);
}
);
width = 1158;
},
{
layerId = "9AF1F7D9-E035-453E-B2A8-46DE370997D0";
paths = (
{
closed = 1;
nodes = (
"410 602 LINE",
"803 1000 LINE",
"723 1000 LINE",
"88 352 LINE",
"250 1500 LINE",
"190 1500 LINE",
"-21 0 LINE",
"39 0 LINE",
"76 258 LINE",
"364 552 LINE",
"606 0 LINE",
"673 0 LINE"
);
}
);
width = 894;
}
);
leftKerningGroup = h;
rightKerningGroup = k;
unicode = 006B;
},
{
glyphname = l;
lastChange = "2020-01-28 10:10:21 +0000";
layers = (
{
layerId = "10BC12B3-5274-42E3-B5BC-F74F362F0DF4";
paths = (
{
closed = 1;
nodes = (
"256 0 LINE",
"468 1500 LINE",
"173 1500 LINE",
"-39 0 LINE"
);
}
);
width = 500;
},
{
layerId = "9AF1F7D9-E035-453E-B2A8-46DE370997D0";
paths = (
{
closed = 1;
nodes = (
"20 2 LINE",
"230 1500 LINE",
"170 1500 LINE",
"-40 2 LINE"
);
}
);
width = 260;
}
);
leftKerningGroup = h;
rightKerningGroup = l;
unicode = 006C;
},
{
glyphname = m;
lastChange = "2020-01-28 10:10:21 +0000";
layers = (
{
layerId = "10BC12B3-5274-42E3-B5BC-F74F362F0DF4";
paths = (
{
closed = 1;
nodes = (
"236 0 LINE",
"304 524 LINE SMOOTH",
"320 619 OFFCURVE",
"424 703 OFFCURVE",
"527 703 CURVE SMOOTH",
"613 703 OFFCURVE",
"678 635 OFFCURVE",
"664 540 CURVE SMOOTH",
"584 0 LINE",
"879 0 LINE",
"947 524 LINE SMOOTH",
"963 619 OFFCURVE",
"1067 703 OFFCURVE",
"1169 703 CURVE SMOOTH",
"1256 703 OFFCURVE",
"1321 635 OFFCURVE",
"1307 540 CURVE SMOOTH",
"1227 0 LINE",
"1522 0 LINE",
"1590 524 LINE SMOOTH",
"1631 784 OFFCURVE",
"1447 1003 OFFCURVE",
"1178 1003 CURVE SMOOTH",
"1066 1003 OFFCURVE",
"953 966 OFFCURVE",
"842 879 CURVE",
"769 954 OFFCURVE",
"664 1003 OFFCURVE",
"536 1003 CURVE SMOOTH",
"484 1003 OFFCURVE",
"429 998 OFFCURVE",
"370 957 CURVE",
"381 1000 LINE",
"83 1000 LINE",
"-59 0 LINE"
);
}
);
width = 1746;
},
{
layerId = "9AF1F7D9-E035-453E-B2A8-46DE370997D0";
paths = (
{
closed = 1;
nodes = (
"-1 0 LINE",
"74 528 LINE SMOOTH",
"106 758 OFFCURVE",
"265 968 OFFCURVE",
"457 968 CURVE SMOOTH",
"663 968 OFFCURVE",
"765 782 OFFCURVE",
"733 552 CURVE SMOOTH",
"655 0 LINE",
"715 0 LINE",
"793 548 LINE SMOOTH",
"825 778 OFFCURVE",
"983 968 OFFCURVE",
"1193 968 CURVE SMOOTH",
"1399 968 OFFCURVE",
"1481 782 OFFCURVE",
"1449 552 CURVE SMOOTH",
"1371 0 LINE",
"1431 0 LINE",
"1509 548 LINE SMOOTH",
"1544 804 OFFCURVE",
"1444 1028 OFFCURVE",
"1195 1028 CURVE SMOOTH",
"1012 1028 OFFCURVE",
"876 922 OFFCURVE",
"789 744 CURVE",
"751 914 OFFCURVE",
"650 1028 OFFCURVE",
"459 1028 CURVE SMOOTH",
"300 1028 OFFCURVE",
"206 935 OFFCURVE",
"110 793 CURVE",
"140 1000 LINE",
"80 1000 LINE",
"-61 0 LINE"
);
}
);
width = 1652;
}
);
leftKerningGroup = "3";
rightKerningGroup = n;
unicode = 006D;
},
{
glyphname = n;
lastChange = "2020-01-28 10:10:21 +0000";
layers = (
{
layerId = "10BC12B3-5274-42E3-B5BC-F74F362F0DF4";
paths = (
{
closed = 1;
nodes = (
"1098 786 OFFCURVE",
"956 1028 OFFCURVE",
"659 1028 CURVE",
"560 1028 OFFCURVE",
"478 987 OFFCURVE",
"405 915 CURVE",
"419 1000 LINE",
"123 1000 LINE",
"-19 0 LINE",
"276 0 LINE",
"340 494 LINE",
"361 624 OFFCURVE",
"460 740 OFFCURVE",
"598 740 CURVE",
"722 740 OFFCURVE",
"791 640 OFFCURVE",
"773 510 CURVE",
"697 0 LINE",
"992 0 LINE",
"1056 498 LINE"
);
}
);
width = 1216;
},
{
layerId = "9AF1F7D9-E035-453E-B2A8-46DE370997D0";
paths = (
{
closed = 1;
nodes = (
"926 804 OFFCURVE",
"780 1028 OFFCURVE",
"539 1028 CURVE",
"392 1028 OFFCURVE",
"253 943 OFFCURVE",
"151 797 CURVE",
"180 1000 LINE",
"120 1000 LINE",
"-21 0 LINE",
"39 0 LINE",
"117 548 LINE",
"149 778 OFFCURVE",
"339 968 OFFCURVE",
"537 968 CURVE",
"733 968 OFFCURVE",
"867 782 OFFCURVE",
"835 552 CURVE",
"757 0 LINE",
"817 0 LINE",
"895 552 LINE"
);
}
);
width = 1038;
}
);
leftKerningGroup = n;
rightKerningGroup = n;
unicode = 006E;
},
{
glyphname = o;
lastChange = "2020-01-28 10:10:21 +0000";
layers = (
{
layerId = "10BC12B3-5274-42E3-B5BC-F74F362F0DF4";
paths = (
{
closed = 1;
nodes = (
"700 -26 OFFCURVE",
"942 202 OFFCURVE",
"975 482 CURVE SMOOTH",
"1023 784 OFFCURVE",
"832 1028 OFFCURVE",
"547 1028 CURVE SMOOTH",
"280 1028 OFFCURVE",
"38 800 OFFCURVE",
"4 518 CURVE SMOOTH",
"-43 218 OFFCURVE",
"148 -26 OFFCURVE",
"433 -26 CURVE SMOOTH"
);
},
{
closed = 1;
nodes = (
"342 274 OFFCURVE",
"264 364 OFFCURVE",
"275 482 CURVE SMOOTH",
"299 614 OFFCURVE",
"418 728 OFFCURVE",
"539 728 CURVE SMOOTH",
"638 728 OFFCURVE",
"715 634 OFFCURVE",
"705 518 CURVE SMOOTH",
"680 386 OFFCURVE",
"564 274 OFFCURVE",
"441 274 CURVE SMOOTH"
);
}
);
width = 1120;
},
{
layerId = "9AF1F7D9-E035-453E-B2A8-46DE370997D0";
paths = (
{
closed = 1;
nodes = (
"693 -26 OFFCURVE",
"949 208 OFFCURVE",
"989 497 CURVE SMOOTH",
"1031 790 OFFCURVE",
"838 1028 OFFCURVE",
"561 1028 CURVE SMOOTH",
"286 1028 OFFCURVE",
"31 794 OFFCURVE",
"-10 503 CURVE SMOOTH",
"-51 212 OFFCURVE",
"141 -26 OFFCURVE",
"419 -26 CURVE SMOOTH"
);
},
{
closed = 1;
nodes = (
"183 34 OFFCURVE",
"13 238 OFFCURVE",
"49 497 CURVE SMOOTH",
"85 750 OFFCURVE",
"307 968 OFFCURVE",
"559 968 CURVE SMOOTH",
"805 968 OFFCURVE",
"965 754 OFFCURVE",
"930 503 CURVE SMOOTH",
"895 252 OFFCURVE",
"671 34 OFFCURVE",
"421 34 CURVE SMOOTH"
);
}
);
width = 1120;
}
);
leftKerningGroup = "1";
rightKerningGroup = o;
unicode = 006F;
},
{
glyphname = oslash;
lastChange = "2020-01-28 10:10:21 +0000";
layers = (
{
layerId = "10BC12B3-5274-42E3-B5BC-F74F362F0DF4";
paths = (
{
closed = 1;
nodes = (
"280 1 LINE",
"322 -15 OFFCURVE",
"370 -26 OFFCURVE",
"433 -26 CURVE SMOOTH",
"700 -26 OFFCURVE",
"942 202 OFFCURVE",
"975 482 CURVE SMOOTH",
"1003 638 OFFCURVE",
"962 773 OFFCURVE",
"886 869 CURVE",
"966 968 LINE",
"767 1088 LINE",
"698 1001 LINE",
"658 1017 OFFCURVE",
"608 1028 OFFCURVE",
"547 1028 CURVE SMOOTH",
"280 1028 OFFCURVE",
"38 800 OFFCURVE",
"4 518 CURVE SMOOTH",
"-23 364 OFFCURVE",
"18 229 OFFCURVE",
"94 133 CURVE",
"14 34 LINE",
"212 -86 LINE"
);
},
{
closed = 1;
nodes = (
"252 405 OFFCURVE",
"249 435 OFFCURVE",
"247 463 CURVE SMOOTH",
"277 624 OFFCURVE",
"416 762 OFFCURVE",
"551 766 CURVE",
"256 373 LINE"
);
},
{
closed = 1;
nodes = (
"723 630 LINE",
"725 598 OFFCURVE",
"731 565 OFFCURVE",
"733 537 CURVE SMOOTH",
"702 376 OFFCURVE",
"568 240 OFFCURVE",
"428 236 CURVE"
);
}
);
width = 1120;
},
{
layerId = "9AF1F7D9-E035-453E-B2A8-46DE370997D0";
paths = (
{
closed = 1;
nodes = (
"193 37 LINE",
"257 -1 OFFCURVE",
"333 -26 OFFCURVE",
"419 -26 CURVE SMOOTH",
"693 -26 OFFCURVE",
"949 208 OFFCURVE",
"989 497 CURVE SMOOTH",
"1015 680 OFFCURVE",
"952 839 OFFCURVE",
"836 935 CURVE",
"894 1014 LINE",
"845 1044 LINE",
"787 967 LINE",
"725 1005 OFFCURVE",
"648 1028 OFFCURVE",
"561 1028 CURVE SMOOTH",
"286 1028 OFFCURVE",
"31 794 OFFCURVE",
"-10 503 CURVE SMOOTH",
"-35 324 OFFCURVE",
"30 165 OFFCURVE",
"147 69 CURVE",
"88 -10 LINE",
"137 -40 LINE"
);
},
{
closed = 1;
nodes = (
"81 205 OFFCURVE",
"28 342 OFFCURVE",
"49 497 CURVE SMOOTH",
"98 844 OFFCURVE",
"485 1081 OFFCURVE",
"754 917 CURVE",
"180 121 LINE"
);
},
{
closed = 1;
nodes = (
"802 883 LINE",
"901 797 OFFCURVE",
"952 658 OFFCURVE",
"930 503 CURVE SMOOTH",
"882 164 OFFCURVE",
"507 -81 OFFCURVE",
"226 87 CURVE"
);
}
);
width = 1120;
}
);
leftKerningGroup = "1";
rightKerningGroup = o;
unicode = 00F8;
},
{
glyphname = oe;
lastChange = "2020-01-28 10:10:21 +0000";
layers = (
{
layerId = "10BC12B3-5274-42E3-B5BC-F74F362F0DF4";
paths = (
{
closed = 1;
nodes = (
"560 -26 OFFCURVE",
"686 25 OFFCURVE",
"800 122 CURVE",
"874 37 OFFCURVE",
"988 -26 OFFCURVE",
"1133 -26 CURVE SMOOTH",
"1324 -26 OFFCURVE",
"1503 89 OFFCURVE",
"1609 267 CURVE",
"1314 356 LINE",
"1272 310 OFFCURVE",
"1208 274 OFFCURVE",
"1141 274 CURVE SMOOTH",
"1056 276 OFFCURVE",
"1008 323 OFFCURVE",
"990 395 CURVE",
"1661 393 LINE",
"1766 713 OFFCURVE",
"1574 1028 OFFCURVE",
"1247 1028 CURVE SMOOTH",
"1120 1028 OFFCURVE",
"993 977 OFFCURVE",
"880 880 CURVE",
"806 965 OFFCURVE",
"692 1028 OFFCURVE",
"547 1028 CURVE SMOOTH",
"280 1028 OFFCURVE",
"38 800 OFFCURVE",
"4 518 CURVE SMOOTH",
"-43 218 OFFCURVE",
"148 -26 OFFCURVE",
"433 -26 CURVE SMOOTH"
);
},
{
closed = 1;
nodes = (
"342 274 OFFCURVE",
"264 364 OFFCURVE",
"275 482 CURVE SMOOTH",
"299 614 OFFCURVE",
"418 728 OFFCURVE",
"539 728 CURVE SMOOTH",
"638 728 OFFCURVE",
"715 634 OFFCURVE",
"705 518 CURVE SMOOTH",
"680 386 OFFCURVE",
"564 274 OFFCURVE",
"441 274 CURVE SMOOTH"
);
},
{
closed = 1;
nodes = (
"1055 699 OFFCURVE",
"1150 768 OFFCURVE",
"1244 768 CURVE SMOOTH",
"1322 768 OFFCURVE",
"1387 715 OFFCURVE",
"1403 629 CURVE",
"1015 613 LINE"
);
}
);
width = 1820;
},
{
layerId = "9AF1F7D9-E035-453E-B2A8-46DE370997D0";
paths = (
{
closed = 1;
nodes = (
"633 -26 OFFCURVE",
"836 116 OFFCURVE",
"936 320 CURVE",
"977 120 OFFCURVE",
"1141 -26 OFFCURVE",
"1359 -26 CURVE SMOOTH",
"1557 -26 OFFCURVE",
"1746 96 OFFCURVE",
"1851 274 CURVE",
"1792 291 LINE",
"1689 131 OFFCURVE",
"1533 34 OFFCURVE",
"1361 34 CURVE SMOOTH",
"1133 34 OFFCURVE",
"970 218 OFFCURVE",
"985 468 CURVE",
"1923 468 LINE",
"1964 802 OFFCURVE",
"1788 1028 OFFCURVE",
"1501 1028 CURVE SMOOTH",
"1286 1028 OFFCURVE",
"1083 886 OFFCURVE",
"984 680 CURVE",
"943 882 OFFCURVE",
"778 1028 OFFCURVE",
"561 1028 CURVE SMOOTH",
"286 1028 OFFCURVE",
"31 794 OFFCURVE",
"-10 503 CURVE SMOOTH",
"-51 212 OFFCURVE",
"141 -26 OFFCURVE",
"419 -26 CURVE SMOOTH"
);
},
{
closed = 1;
nodes = (
"183 34 OFFCURVE",
"13 238 OFFCURVE",
"49 497 CURVE SMOOTH",
"85 750 OFFCURVE",
"307 968 OFFCURVE",
"559 968 CURVE SMOOTH",
"805 968 OFFCURVE",
"965 754 OFFCURVE",
"930 503 CURVE SMOOTH",
"895 252 OFFCURVE",
"671 34 OFFCURVE",
"421 34 CURVE SMOOTH"
);
},
{
closed = 1;
nodes = (
"1044 770 OFFCURVE",
"1259 968 OFFCURVE",
"1499 968 CURVE SMOOTH",
"1733 968 OFFCURVE",
"1897 766 OFFCURVE",
"1872 532 CURVE",
"994 528 LINE"
);
}
);
width = 2058;
}
);
leftKerningGroup = "1";
rightKerningGroup = e;
unicode = 0153;
},
{
glyphname = p;
lastChange = "2020-01-28 10:10:21 +0000";
layers = (
{
layerId = "10BC12B3-5274-42E3-B5BC-F74F362F0DF4";
paths = (
{
closed = 1;
nodes = (
"300 97 LINE",
"355 27 OFFCURVE",
"428 -28 OFFCURVE",
"544 -28 CURVE",
"828 -28 OFFCURVE",
"1080 200 OFFCURVE",
"1113 482 CURVE",
"1161 782 OFFCURVE",
"959 1026 OFFCURVE",
"659 1026 CURVE",
"559 1026 OFFCURVE",
"477 983 OFFCURVE",
"405 913 CURVE",
"420 1000 LINE",
"123 1000 LINE",
"-88 -500 LINE",
"207 -500 LINE"
);
},
{
closed = 1;
nodes = (
"764 738 OFFCURVE",
"848 638 OFFCURVE",
"837 518 CURVE",
"810 376 OFFCURVE",
"680 262 OFFCURVE",
"548 262 CURVE",
"434 262 OFFCURVE",
"350 360 OFFCURVE",
"361 482 CURVE",
"387 622 OFFCURVE",
"518 738 OFFCURVE",
"648 738 CURVE"
);
}
);
width = 1278;
},
{
layerId = "9AF1F7D9-E035-453E-B2A8-46DE370997D0";
paths = (
{
closed = 1;
nodes = (
"73 234 LINE",
"123 78 OFFCURVE",
"251 -28 OFFCURVE",
"447 -28 CURVE SMOOTH",
"735 -28 OFFCURVE",
"1002 206 OFFCURVE",
"1043 497 CURVE SMOOTH",
"1084 788 OFFCURVE",
"880 1026 OFFCURVE",
"588 1026 CURVE SMOOTH",
"396 1026 OFFCURVE",
"241 924 OFFCURVE",
"147 768 CURVE",
"180 1000 LINE",
"120 1000 LINE",
"-91 -500 LINE",
"-31 -500 LINE"
);
},
{
closed = 1;
nodes = (
"843 966 OFFCURVE",
"1020 758 OFFCURVE",
"984 503 CURVE SMOOTH",
"947 238 OFFCURVE",
"700 32 OFFCURVE",
"449 32 CURVE SMOOTH",
"192 32 OFFCURVE",
"78 242 OFFCURVE",
"113 497 CURVE SMOOTH",
"150 758 OFFCURVE",
"331 966 OFFCURVE",
"587 966 CURVE SMOOTH"
);
}
);
width = 1194;
}
);
leftKerningGroup = p;
rightKerningGroup = o;
unicode = 0070;
},
{
glyphname = thorn;
lastChange = "2020-01-28 10:10:21 +0000";
layers = (
{
layerId = "10BC12B3-5274-42E3-B5BC-F74F362F0DF4";
paths = (
{
closed = 1;
nodes = (
"206 -500 LINE",
"300 96 LINE",
"355 26 OFFCURVE",
"428 -28 OFFCURVE",
"544 -28 CURVE SMOOTH",
"828 -28 OFFCURVE",
"1080 200 OFFCURVE",
"1113 482 CURVE SMOOTH",
"1161 782 OFFCURVE",
"959 1026 OFFCURVE",
"659 1026 CURVE SMOOTH",
"559 1026 OFFCURVE",
"477 983 OFFCURVE",
"405 913 CURVE",
"473 1400 LINE",
"178 1400 LINE",
"-88 -500 LINE"
);
},
{
closed = 1;
nodes = (
"434 262 OFFCURVE",
"350 360 OFFCURVE",
"361 482 CURVE SMOOTH",
"387 622 OFFCURVE",
"518 738 OFFCURVE",
"648 738 CURVE SMOOTH",
"764 738 OFFCURVE",
"848 638 OFFCURVE",
"837 518 CURVE SMOOTH",
"810 376 OFFCURVE",
"680 262 OFFCURVE",
"548 262 CURVE SMOOTH"
);
}
);
width = 1278;
},
{
layerId = "9AF1F7D9-E035-453E-B2A8-46DE370997D0";
paths = (
{
closed = 1;
nodes = (
"-31 -500 LINE",
"73 234 LINE",
"123 78 OFFCURVE",
"251 -28 OFFCURVE",
"447 -28 CURVE SMOOTH",
"735 -28 OFFCURVE",
"1002 206 OFFCURVE",
"1043 497 CURVE SMOOTH",
"1084 788 OFFCURVE",
"880 1026 OFFCURVE",
"588 1026 CURVE SMOOTH",
"396 1026 OFFCURVE",
"241 924 OFFCURVE",
"147 768 CURVE",
"236 1400 LINE",
"176 1400 LINE",
"-91 -500 LINE"
);
},
{
closed = 1;
nodes = (
"192 32 OFFCURVE",
"78 242 OFFCURVE",
"113 497 CURVE SMOOTH",
"150 758 OFFCURVE",
"331 966 OFFCURVE",
"587 966 CURVE SMOOTH",
"843 966 OFFCURVE",
"1020 758 OFFCURVE",
"984 503 CURVE SMOOTH",
"947 238 OFFCURVE",
"700 32 OFFCURVE",
"449 32 CURVE SMOOTH"
);
}
);
width = 1194;
}
);
leftKerningGroup = h;
rightKerningGroup = o;
unicode = 00FE;
},
{
glyphname = q;
lastChange = "2020-01-28 10:10:21 +0000";
layers = (
{
layerId = "10BC12B3-5274-42E3-B5BC-F74F362F0DF4";
paths = (
{
closed = 1;
nodes = (
"578 -28 OFFCURVE",
"660 15 OFFCURVE",
"732 85 CURVE",
"650 -500 LINE",
"944 -500 LINE",
"1155 1000 LINE",
"861 1000 LINE",
"838 900 LINE",
"782 970 OFFCURVE",
"709 1026 OFFCURVE",
"593 1026 CURVE",
"311 1026 OFFCURVE",
"58 798 OFFCURVE",
"24 518 CURVE",
"-24 216 OFFCURVE",
"180 -28 OFFCURVE",
"478 -28 CURVE"
);
},
{
closed = 1;
nodes = (
"706 738 OFFCURVE",
"788 638 OFFCURVE",
"777 518 CURVE",
"750 376 OFFCURVE",
"622 262 OFFCURVE",
"490 262 CURVE",
"374 262 OFFCURVE",
"292 360 OFFCURVE",
"303 482 CURVE",
"329 622 OFFCURVE",
"458 738 OFFCURVE",
"590 738 CURVE"
);
}
);
width = 1278;
},
{
layerId = "9AF1F7D9-E035-453E-B2A8-46DE370997D0";
paths = (
{
closed = 1;
nodes = (
"657 -28 OFFCURVE",
"813 74 OFFCURVE",
"907 230 CURVE",
"803 -500 LINE",
"863 -500 LINE",
"1074 1000 LINE",
"1014 1000 LINE",
"980 764 LINE",
"930 920 OFFCURVE",
"802 1026 OFFCURVE",
"606 1026 CURVE",
"318 1026 OFFCURVE",
"51 792 OFFCURVE",
"10 503 CURVE",
"-31 210 OFFCURVE",
"173 -28 OFFCURVE",
"465 -28 CURVE"
);
},
{
closed = 1;
nodes = (
"857 966 OFFCURVE",
"977 762 OFFCURVE",
"940 503 CURVE",
"904 246 OFFCURVE",
"726 32 OFFCURVE",
"467 32 CURVE",
"218 32 OFFCURVE",
"32 234 OFFCURVE",
"69 497 CURVE",
"105 754 OFFCURVE",
"345 966 OFFCURVE",
"605 966 CURVE"
);
}
);
width = 1194;
}
);
leftKerningGroup = "2";
rightKerningGroup = q;
unicode = 0071;
},
{
glyphname = r;
lastChange = "2020-01-28 10:10:21 +0000";
layers = (
{
layerId = "10BC12B3-5274-42E3-B5BC-F74F362F0DF4";
paths = (
{
closed = 1;
nodes = (
"794 1012 LINE",
"756 1024 OFFCURVE",
"713 1026 OFFCURVE",
"659 1026 CURVE SMOOTH",
"559 1026 OFFCURVE",
"477 985 OFFCURVE",
"405 915 CURVE",
"419 998 LINE",
"122 998 LINE",
"-19 0 LINE",
"278 0 LINE",
"342 492 LINE SMOOTH",
"363 624 OFFCURVE",
"460 738 OFFCURVE",
"598 738 CURVE SMOOTH",
"644 738 OFFCURVE",
"689 724 OFFCURVE",
"721 696 CURVE"
);
}
);
width = 882;
},
{
layerId = "9AF1F7D9-E035-453E-B2A8-46DE370997D0";
paths = (
{
closed = 1;
nodes = (
"652 1009 LINE",
"619 1021 OFFCURVE",
"582 1028 OFFCURVE",
"541 1028 CURVE",
"394 1028 OFFCURVE",
"253 943 OFFCURVE",
"151 797 CURVE",
"180 1000 LINE",
"120 1000 LINE",
"-21 0 LINE",
"39 0 LINE",
"117 548 LINE",
"149 778 OFFCURVE",
"339 968 OFFCURVE",
"539 968 CURVE",
"573 968 OFFCURVE",
"606 963 OFFCURVE",
"637 951 CURVE"
);
}
);
width = 732;
}
);
leftKerningGroup = n;
rightKerningGroup = r;
unicode = 0072;
},
{
glyphname = s;
lastChange = "2020-01-28 10:10:21 +0000";
layers = (
{
layerId = "10BC12B3-5274-42E3-B5BC-F74F362F0DF4";
paths = (
{
closed = 1;
nodes = (
"494 -37 OFFCURVE",
"701 94 OFFCURVE",
"722 284 CURVE SMOOTH",
"759 466 OFFCURVE",
"610 575 OFFCURVE",
"437 625 CURVE SMOOTH",
"404 642 OFFCURVE",
"302 642 OFFCURVE",
"302 690 CURVE SMOOTH",
"317 762 OFFCURVE",
"388 788 OFFCURVE",
"467 783 CURVE SMOOTH",
"510 775 OFFCURVE",
"547 744 OFFCURVE",
"567 714 CURVE",
"805 842 LINE",
"733 962 OFFCURVE",
"606 1034 OFFCURVE",
"442 1034 CURVE SMOOTH",
"252 1034 OFFCURVE",
"72 914 OFFCURVE",
"50 718 CURVE SMOOTH",
"18 524 OFFCURVE",
"180 401 OFFCURVE",
"364 377 CURVE SMOOTH",
"404 367 OFFCURVE",
"475 362 OFFCURVE",
"475 317 CURVE SMOOTH",
"459 257 OFFCURVE",
"388 234 OFFCURVE",
"328 234 CURVE SMOOTH",
"258 234 OFFCURVE",
"220 277 OFFCURVE",
"204 299 CURVE",
"-44 202 LINE",
"4 72 OFFCURVE",
"133 -3 OFFCURVE",
"292 -16 CURVE SMOOTH"
);
}
);
width = 894;
},
{
layerId = "9AF1F7D9-E035-453E-B2A8-46DE370997D0";
paths = (
{
closed = 1;
nodes = (
"524 -20 OFFCURVE",
"710 86 OFFCURVE",
"733 255 CURVE",
"757 422 OFFCURVE",
"593 477 OFFCURVE",
"412 537 CURVE SMOOTH",
"232 597 OFFCURVE",
"126 616 OFFCURVE",
"145 753 CURVE",
"164 888 OFFCURVE",
"320 974 OFFCURVE",
"480 974 CURVE",
"604 974 OFFCURVE",
"736 914 OFFCURVE",
"764 808 CURVE",
"818 834 LINE",
"786 950 OFFCURVE",
"649 1034 OFFCURVE",
"481 1034 CURVE",
"295 1034 OFFCURVE",
"110 928 OFFCURVE",
"86 759 CURVE",
"63 592 OFFCURVE",
"188 551 OFFCURVE",
"410 479 CURVE SMOOTH",
"550 433 OFFCURVE",
"693 396 OFFCURVE",
"674 261 CURVE",
"656 130 OFFCURVE",
"499 40 OFFCURVE",
"342 40 CURVE",
"217 40 OFFCURVE",
"58 110 OFFCURVE",
"36 218 CURVE",
"-22 198 LINE",
"3 78 OFFCURVE",
"166 -20 OFFCURVE",
"340 -20 CURVE"
);
}
);
width = 932;
}
);
leftKerningGroup = "1";
rightKerningGroup = s;
unicode = 0073;
},
{
glyphname = germandbls;
lastChange = "2020-01-28 10:10:21 +0000";
layers = (
{
layerId = "10BC12B3-5274-42E3-B5BC-F74F362F0DF4";
paths = (
{
closed = 1;
nodes = (
"276 0 LINE",
"404 942 LINE SMOOTH",
"421 1050 OFFCURVE",
"535 1144 OFFCURVE",
"651 1144 CURVE SMOOTH",
"723 1144 OFFCURVE",
"778 1084 OFFCURVE",
"775 1012 CURVE SMOOTH",
"755 920 OFFCURVE",
"666 859 OFFCURVE",
"585 845 CURVE SMOOTH",
"566 840 LINE",
"537 598 LINE",
"623 594 LINE SMOOTH",
"727 588 OFFCURVE",
"799 524 OFFCURVE",
"793 442 CURVE SMOOTH",
"773 340 OFFCURVE",
"663 254 OFFCURVE",
"559 254 CURVE SMOOTH",
"489 254 LINE",
"494 0 LINE",
"572 0 LINE SMOOTH",
"804 0 OFFCURVE",
"1002 162 OFFCURVE",
"1028 384 CURVE SMOOTH",
"1051 518 OFFCURVE",
"1059 709 OFFCURVE",
"890 730 CURVE",
"1010 779 OFFCURVE",
"1040 898 OFFCURVE",
"1045 976 CURVE SMOOTH",
"1085 1220 OFFCURVE",
"928 1400 OFFCURVE",
"689 1400 CURVE SMOOTH",
"404 1400 OFFCURVE",
"149 1170 OFFCURVE",
"109 878 CURVE SMOOTH",
"-19 0 LINE"
);
}
);
width = 1186;
},
{
layerId = "9AF1F7D9-E035-453E-B2A8-46DE370997D0";
paths = (
{
closed = 1;
nodes = (
"39 0 LINE",
"179 992 LINE SMOOTH",
"206 1182 OFFCURVE",
"383 1338 OFFCURVE",
"575 1338 CURVE SMOOTH",
"731 1338 OFFCURVE",
"840 1202 OFFCURVE",
"817 1033 CURVE SMOOTH",
"793 862 OFFCURVE",
"641 722 OFFCURVE",
"483 722 CURVE SMOOTH",
"457 722 LINE",
"448 662 LINE",
"544 662 LINE SMOOTH",
"710 662 OFFCURVE",
"824 530 OFFCURVE",
"801 365 CURVE SMOOTH",
"777 198 OFFCURVE",
"622 60 OFFCURVE",
"456 60 CURVE SMOOTH",
"364 60 LINE",
"376 0 LINE",
"451 0 LINE SMOOTH",
"649 0 OFFCURVE",
"832 160 OFFCURVE",
"860 359 CURVE SMOOTH",
"883 524 OFFCURVE",
"793 664 OFFCURVE",
"651 707 CURVE",
"767 769 OFFCURVE",
"857 890 OFFCURVE",
"876 1027 CURVE SMOOTH",
"904 1230 OFFCURVE",
"770 1398 OFFCURVE",
"577 1398 CURVE SMOOTH",
"354 1398 OFFCURVE",
"151 1218 OFFCURVE",
"119 996 CURVE SMOOTH",
"-21 0 LINE"
);
}
);
width = 1010;
}
);
leftKerningGroup = h;
rightKerningGroup = germandbls;
unicode = 00DF;
},
{
glyphname = t;
lastChange = "2020-01-28 10:10:21 +0000";
layers = (
{
layerId = "10BC12B3-5274-42E3-B5BC-F74F362F0DF4";
paths = (
{
closed = 1;
nodes = (
"667 1000 LINE",
"497 1000 LINE",
"541 1314 LINE",
"247 1314 LINE",
"203 1000 LINE",
"73 1000 LINE",
"31 700 LINE",
"161 700 LINE",
"61 0 LINE",
"356 0 LINE",
"456 700 LINE",
"626 700 LINE"
);
}
);
width = 730;
},
{
layerId = "9AF1F7D9-E035-453E-B2A8-46DE370997D0";
paths = (
{
closed = 1;
nodes = (
"630 1000 LINE",
"356 1000 LINE",
"400 1314 LINE",
"340 1314 LINE",
"296 1000 LINE",
"90 1000 LINE",
"82 940 LINE",
"288 940 LINE",
"155 0 LINE",
"215 0 LINE",
"348 940 LINE",
"622 940 LINE"
);
}
);
width = 740;
}
);
leftKerningGroup = t;
rightKerningGroup = t;
unicode = 0074;
},
{
glyphname = u;
lastChange = "2020-01-28 10:10:21 +0000";
layers = (
{
layerId = "10BC12B3-5274-42E3-B5BC-F74F362F0DF4";
paths = (
{
closed = 1;
nodes = (
"-12 214 OFFCURVE",
"130 -28 OFFCURVE",
"426 -28 CURVE",
"526 -28 OFFCURVE",
"608 15 OFFCURVE",
"680 85 CURVE",
"666 0 LINE",
"962 0 LINE",
"1103 1000 LINE",
"809 1000 LINE",
"746 508 LINE",
"724 376 OFFCURVE",
"626 262 OFFCURVE",
"488 262 CURVE",
"364 262 OFFCURVE",
"294 360 OFFCURVE",
"313 492 CURVE",
"387 1000 LINE",
"93 1000 LINE",
"29 504 LINE"
);
}
);
width = 1226;
},
{
layerId = "9AF1F7D9-E035-453E-B2A8-46DE370997D0";
paths = (
{
closed = 1;
nodes = (
"-19 198 OFFCURVE",
"127 -26 OFFCURVE",
"369 -26 CURVE",
"515 -26 OFFCURVE",
"655 59 OFFCURVE",
"757 205 CURVE",
"727 0 LINE",
"787 0 LINE",
"928 1000 LINE",
"868 1000 LINE",
"791 454 LINE",
"759 224 OFFCURVE",
"569 34 OFFCURVE",
"371 34 CURVE",
"175 34 OFFCURVE",
"40 220 OFFCURVE",
"73 450 CURVE",
"150 1000 LINE",
"90 1000 LINE",
"13 450 LINE"
);
}
);
width = 1048;
}
);
leftKerningGroup = u;
rightKerningGroup = u;
unicode = 0075;
},
{
glyphname = v;
lastChange = "2020-01-28 10:10:21 +0000";
layers = (
{
layerId = "10BC12B3-5274-42E3-B5BC-F74F362F0DF4";
paths = (
{
closed = 1;
nodes = (
"1178 1000 LINE",
"854 1000 LINE",
"520 344 LINE",
"376 1000 LINE",
"65 1000 LINE",
"289 0 LINE",
"673 0 LINE"
);
}
);
width = 1236;
},
{
layerId = "9AF1F7D9-E035-453E-B2A8-46DE370997D0";
paths = (
{
closed = 1;
nodes = (
"905 1004 LINE",
"840 1004 LINE",
"371 74 LINE",
"164 1004 LINE",
"101 1004 LINE",
"326 0 LINE",
"398 0 LINE"
);
}
);
width = 1004;
}
);
leftKerningGroup = v;
rightKerningGroup = v;
unicode = 0076;
},
{
glyphname = w;
lastChange = "2020-01-28 10:10:21 +0000";
layers = (
{
layerId = "10BC12B3-5274-42E3-B5BC-F74F362F0DF4";
paths = (
{
closed = 1;
nodes = (
"818 562 LINE",
"924 0 LINE",
"1215 0 LINE",
"1689 1000 LINE",
"1393 1000 LINE",
"1120 438 LINE",
"1015 1000 LINE",
"727 1000 LINE",
"456 438 LINE",
"349 1000 LINE",
"65 1000 LINE",
"259 0 LINE",
"549 0 LINE"
);
}
);
width = 1748;
},
{
layerId = "9AF1F7D9-E035-453E-B2A8-46DE370997D0";
paths = (
{
closed = 1;
nodes = (
"773 940 LINE",
"958 0 LINE",
"1028 0 LINE",
"1505 1002 LINE",
"1444 1002 LINE",
"1001 72 LINE",
"820 1002 LINE",
"744 1002 LINE",
"301 72 LINE",
"118 1002 LINE",
"61 1002 LINE",
"256 0 LINE",
"324 0 LINE"
);
}
);
width = 1564;
}
);
leftKerningGroup = "2";
rightKerningGroup = w;
unicode = 0077;
},
{
glyphname = x;
lastChange = "2020-01-28 10:10:21 +0000";
layers = (
{
layerId = "10BC12B3-5274-42E3-B5BC-F74F362F0DF4";
paths = (
{
closed = 1;
nodes = (
"274 0 LINE",
"492 248 LINE",
"636 0 LINE",
"998 0 LINE",
"706 502 LINE",
"1142 1000 LINE",
"764 1000 LINE",
"549 758 LINE",
"410 1000 LINE",
"48 1000 LINE",
"336 502 LINE",
"-104 0 LINE"
);
}
);
width = 1182;
},
{
layerId = "9AF1F7D9-E035-453E-B2A8-46DE370997D0";
paths = (
{
closed = 1;
nodes = (
"-26 0 LINE",
"368 452 LINE",
"632 0 LINE",
"705 0 LINE",
"410 502 LINE",
"847 1004 LINE",
"772 1004 LINE",
"380 554 LINE",
"114 1004 LINE",
"41 1004 LINE",
"336 502 LINE",
"-101 0 LINE"
);
}
);
width = 886;
}
);
leftKerningGroup = "2";
rightKerningGroup = x;
unicode = 0078;
},
{
glyphname = y;
lastChange = "2020-01-28 10:10:21 +0000";
layers = (
{
layerId = "10BC12B3-5274-42E3-B5BC-F74F362F0DF4";
paths = (
{
closed = 1;
nodes = (
"551 410 LINE",
"453 1000 LINE",
"135 1000 LINE",
"352 0 LINE",
"98 -500 LINE",
"419 -500 LINE",
"1178 1000 LINE",
"853 1000 LINE"
);
}
);
width = 1256;
},
{
layerId = "9AF1F7D9-E035-453E-B2A8-46DE370997D0";
paths = (
{
closed = 1;
nodes = (
"338 84 LINE",
"146 1000 LINE",
"81 1000 LINE",
"298 2 LINE",
"45 -500 LINE",
"110 -500 LINE",
"867 1000 LINE",
"803 1000 LINE"
);
}
);
width = 946;
}
);
leftKerningGroup = y;
rightKerningGroup = y;
unicode = 0079;
},
{
glyphname = z;
lastChange = "2020-01-28 10:10:21 +0000";
layers = (
{
layerId = "10BC12B3-5274-42E3-B5BC-F74F362F0DF4";
paths = (
{
closed = 1;
nodes = (
"931 1000 LINE",
"83 1000 LINE",
"41 700 LINE",
"455 700 LINE",
"-19 300 LINE",
"-57 0 LINE",
"790 0 LINE",
"833 300 LINE",
"420 300 LINE",
"893 700 LINE"
);
}
);
width = 1014;
},
{
layerId = "9AF1F7D9-E035-453E-B2A8-46DE370997D0";
paths = (
{
closed = 1;
nodes = (
"954 1000 LINE",
"100 1000 LINE",
"92 940 LINE",
"865 940 LINE",
"-33 60 LINE",
"-41 0 LINE",
"813 0 LINE",
"822 60 LINE",
"49 60 LINE",
"946 940 LINE"
);
}
);
width = 1054;
}
);
leftKerningGroup = z;
rightKerningGroup = z;
unicode = 007A;
},
{
glyphname = mu;
lastChange = "2020-01-28 10:10:21 +0000";
layers = (
{
layerId = "10BC12B3-5274-42E3-B5BC-F74F362F0DF4";
paths = (
{
closed = 1;
nodes = (
"176 -432 LINE",
"246 3 LINE",
"296 -15 OFFCURVE",
"348 -28 OFFCURVE",
"416 -28 CURVE SMOOTH",
"516 -28 OFFCURVE",
"598 15 OFFCURVE",
"670 85 CURVE",
"656 0 LINE",
"952 0 LINE",
"1093 1000 LINE",
"799 1000 LINE",
"736 508 LINE SMOOTH",
"714 376 OFFCURVE",
"616 262 OFFCURVE",
"478 262 CURVE SMOOTH",
"354 262 OFFCURVE",
"284 360 OFFCURVE",
"303 492 CURVE SMOOTH",
"377 1000 LINE",
"83 1000 LINE",
"-118 -432 LINE"
);
}
);
width = 1176;
},
{
layerId = "9AF1F7D9-E035-453E-B2A8-46DE370997D0";
paths = (
{
closed = 1;
nodes = (
"-61 -432 LINE",
"30 209 LINE",
"82 71 OFFCURVE",
"199 -26 OFFCURVE",
"359 -26 CURVE SMOOTH",
"505 -26 OFFCURVE",
"645 59 OFFCURVE",
"747 205 CURVE",
"717 0 LINE",
"777 0 LINE",
"918 1000 LINE",
"858 1000 LINE",
"781 454 LINE SMOOTH",
"749 224 OFFCURVE",
"559 34 OFFCURVE",
"361 34 CURVE SMOOTH",
"165 34 OFFCURVE",
"30 220 OFFCURVE",
"63 450 CURVE SMOOTH",
"140 1000 LINE",
"80 1000 LINE",
"-121 -432 LINE"
);
}
);
width = 998;
}
);
leftKerningGroup = p;
rightKerningGroup = u;
unicode = 03BC;
},
{
glyphname = zero;
lastChange = "2020-01-28 10:10:21 +0000";
layers = (
{
layerId = "10BC12B3-5274-42E3-B5BC-F74F362F0DF4";
paths = (
{
closed = 1;
nodes = (
"794 -26 OFFCURVE",
"1052 292 OFFCURVE",
"1101 682 CURVE SMOOTH",
"1165 1092 OFFCURVE",
"981 1426 OFFCURVE",
"653 1426 CURVE SMOOTH",
"341 1426 OFFCURVE",
"81 1108 OFFCURVE",
"32 718 CURVE SMOOTH",
"-31 308 OFFCURVE",
"154 -26 OFFCURVE",
"483 -26 CURVE SMOOTH"
);
},
{
closed = 1;
nodes = (
"316 274 OFFCURVE",
"260 476 OFFCURVE",
"283 682 CURVE SMOOTH",
"321 910 OFFCURVE",
"450 1126 OFFCURVE",
"644 1126 CURVE SMOOTH",
"814 1126 OFFCURVE",
"875 938 OFFCURVE",
"850 718 CURVE SMOOTH",
"812 490 OFFCURVE",
"686 274 OFFCURVE",
"491 274 CURVE SMOOTH"
);
}
);
width = 1218;
},
{
layerId = "9AF1F7D9-E035-453E-B2A8-46DE370997D0";
paths = (
{
closed = 1;
nodes = (
"787 -26 OFFCURVE",
"1019 298 OFFCURVE",
"1075 697 CURVE SMOOTH",
"1132 1100 OFFCURVE",
"988 1426 OFFCURVE",
"647 1426 CURVE SMOOTH",
"306 1426 OFFCURVE",
"75 1104 OFFCURVE",
"18 703 CURVE SMOOTH",
"-38 302 OFFCURVE",
"105 -26 OFFCURVE",
"449 -26 CURVE SMOOTH"
);
},
{
closed = 1;
nodes = (
"149 34 OFFCURVE",
"26 330 OFFCURVE",
"77 697 CURVE SMOOTH",
"128 1056 OFFCURVE",
"329 1366 OFFCURVE",
"645 1366 CURVE SMOOTH",
"941 1366 OFFCURVE",
"1070 1084 OFFCURVE",
"1016 703 CURVE SMOOTH",
"965 338 OFFCURVE",
"757 34 OFFCURVE",
"451 34 CURVE SMOOTH"
);
}
);
width = 1178;
}
);
leftKerningGroup = zero;
rightKerningGroup = zero;
unicode = 0030;
},
{
glyphname = one;
lastChange = "2020-01-28 10:10:21 +0000";
layers = (
{
layerId = "10BC12B3-5274-42E3-B5BC-F74F362F0DF4";
paths = (
{
closed = 1;
nodes = (
"426 0 LINE",
"623 1400 LINE",
"215 1400 LINE",
"93 1100 LINE",
"286 1100 LINE",
"131 0 LINE"
);
}
);
width = 690;
},
{
layerId = "9AF1F7D9-E035-453E-B2A8-46DE370997D0";
paths = (
{
closed = 1;
nodes = (
"129 0 LINE",
"326 1400 LINE",
"156 1400 LINE",
"127 1340 LINE",
"258 1340 LINE",
"69 0 LINE"
);
}
);
width = 390;
}
);
leftKerningGroup = one;
rightKerningGroup = one;
unicode = 0031;
},
{
glyphname = two;
lastChange = "2020-01-28 10:10:21 +0000";
layers = (
{
hints = (
{
horizontal = 1;
origin = "{0, 22}";
target = "{0, 2}";
type = Stem;
},
{
horizontal = 1;
origin = "{0, 15}";
target = "{0, 8}";
type = Stem;
},
{
origin = "{0, 11}";
target = "{0, 12}";
type = Stem;
},
{
origin = "{0, 18}";
target = "{0, 0}";
type = Stem;
}
);
layerId = "10BC12B3-5274-42E3-B5BC-F74F362F0DF4";
paths = (
{
closed = 1;
nodes = (
"908 0 LINE",
"951 300 LINE",
"536 293 LINE",
"840 553 OFFCURVE",
"1004 710 OFFCURVE",
"1029 922 CURVE SMOOTH",
"1074 1202 OFFCURVE",
"885 1426 OFFCURVE",
"611 1426 CURVE SMOOTH",
"357 1426 OFFCURVE",
"120 1224 OFFCURVE",
"81 948 CURVE",
"366 932 LINE",
"381 1034 OFFCURVE",
"492 1126 OFFCURVE",
"602 1126 CURVE SMOOTH",
"696 1126 OFFCURVE",
"765 1050 OFFCURVE",
"758 958 CURVE SMOOTH",
"727 780 OFFCURVE",
"175 388 OFFCURVE",
"-28 272 CURVE",
"-57 0 LINE"
);
}
);
width = 1172;
},
{
hints = (
{
horizontal = 1;
origin = "{0, 22}";
target = "{0, 2}";
type = Stem;
},
{
horizontal = 1;
origin = "{0, 15}";
target = "{0, 8}";
type = Stem;
},
{
origin = "{0, 11}";
target = "{0, 12}";
type = Stem;
},
{
origin = "{0, 18}";
target = "{0, 5}";
type = Stem;
}
);
layerId = "9AF1F7D9-E035-453E-B2A8-46DE370997D0";
paths = (
{
closed = 1;
nodes = (
"787 0 LINE",
"796 60 LINE",
"47 59 LINE",
"359 313 OFFCURVE",
"865 778 OFFCURVE",
"899 1023 CURVE SMOOTH",
"930 1244 OFFCURVE",
"776 1426 OFFCURVE",
"557 1426 CURVE SMOOTH",
"338 1426 OFFCURVE",
"137 1248 OFFCURVE",
"106 1028 CURVE",
"165 1024 LINE",
"192 1210 OFFCURVE",
"367 1366 OFFCURVE",
"555 1366 CURVE SMOOTH",
"739 1366 OFFCURVE",
"866 1214 OFFCURVE",
"840 1029 CURVE SMOOTH",
"806 784 OFFCURVE",
"311 373 OFFCURVE",
"-54 53 CURVE",
"-61 0 LINE"
);
}
);
width = 1048;
}
);
leftKerningGroup = two;
rightKerningGroup = two;
unicode = 0032;
},
{
glyphname = three;
lastChange = "2020-01-28 10:10:21 +0000";
layers = (
{
hints = (
{
horizontal = 1;
origin = "{0, 38}";
target = "{0, 31}";
type = Stem;
},
{
horizontal = 1;
origin = "{0, 25}";
target = "{0, 24}";
type = Stem;
},
{
horizontal = 1;
origin = "{0, 18}";
target = "{0, 11}";
type = Stem;
},
{
origin = "{0, 35}";
target = "{0, 34}";
type = Stem;
},
{
origin = "{0, 28}";
target = "{0, 2}";
type = Stem;
},
{
origin = "{0, 14}";
target = "{0, 15}";
type = Stem;
},
{
origin = "{0, 21}";
target = "{0, 8}";
type = Stem;
}
);
layerId = "10BC12B3-5274-42E3-B5BC-F74F362F0DF4";
paths = (
{
closed = 1;
nodes = (
"640 -26 OFFCURVE",
"862 174 OFFCURVE",
"890 418 CURVE SMOOTH",
"914 548 OFFCURVE",
"879 701 OFFCURVE",
"786 737 CURVE",
"881 782 OFFCURVE",
"925 894 OFFCURVE",
"930 978 CURVE SMOOTH",
"972 1228 OFFCURVE",
"798 1428 OFFCURVE",
"555 1428 CURVE SMOOTH",
"326 1428 OFFCURVE",
"100 1242 OFFCURVE",
"67 1004 CURVE",
"353 988 LINE",
"362 1060 OFFCURVE",
"468 1128 OFFCURVE",
"551 1128 CURVE SMOOTH",
"614 1128 OFFCURVE",
"664 1076 OFFCURVE",
"660 1014 CURVE SMOOTH",
"640 904 OFFCURVE",
"526 846 OFFCURVE",
"380 846 CURVE",
"368 618 LINE",
"531 618 OFFCURVE",
"629 566 OFFCURVE",
"620 454 CURVE SMOOTH",
"600 356 OFFCURVE",
"500 274 OFFCURVE",
"403 274 CURVE SMOOTH",
"324 274 OFFCURVE",
"261 340 OFFCURVE",
"274 428 CURVE",
"-12 444 LINE",
"-48 188 OFFCURVE",
"134 -26 OFFCURVE",
"395 -26 CURVE SMOOTH"
);
}
);
width = 1044;
},
{
background = {
paths = (
{
closed = 1;
nodes = (
"908 708 OFFCURVE",
"822 746 CURVE",
"906 804 OFFCURVE",
"942 902 OFFCURVE",
"942 1000 CURVE",
"942 1248 OFFCURVE",
"742 1424 OFFCURVE",
"498 1424 CURVE",
"252 1424 OFFCURVE",
"54 1246 OFFCURVE",
"54 1000 CURVE",
"354 1000 LINE",
"354 1080 OFFCURVE",
"418 1144 OFFCURVE",
"498 1144 CURVE",
"576 1144 OFFCURVE",
"642 1080 OFFCURVE",
"642 1000 CURVE",
"642 936 OFFCURVE",
"568 830 OFFCURVE",
"390 830 CURVE",
"390 648 LINE",
"618 648 OFFCURVE",
"678 530 OFFCURVE",
"678 446 CURVE",
"678 352 OFFCURVE",
"600 274 OFFCURVE",
"504 274 CURVE",
"410 274 OFFCURVE",
"332 352 OFFCURVE",
"332 446 CURVE",
"32 446 LINE",
"32 184 OFFCURVE",
"244 -26 OFFCURVE",
"504 -26 CURVE",
"764 -26 OFFCURVE",
"978 186 OFFCURVE",
"978 446 CURVE",
"978 560 OFFCURVE"
);
}
);
};
layerId = "9AF1F7D9-E035-453E-B2A8-46DE370997D0";
paths = (
{
closed = 1;
nodes = (
"551 -26 OFFCURVE",
"773 150 OFFCURVE",
"803 367 CURVE SMOOTH",
"828 544 OFFCURVE",
"749 677 OFFCURVE",
"577 737 CURVE",
"725 783 OFFCURVE",
"835 904 OFFCURVE",
"857 1063 CURVE SMOOTH",
"885 1262 OFFCURVE",
"724 1426 OFFCURVE",
"525 1426 CURVE SMOOTH",
"326 1426 OFFCURVE",
"123 1266 OFFCURVE",
"96 1068 CURVE",
"155 1064 LINE",
"178 1228 OFFCURVE",
"355 1366 OFFCURVE",
"523 1366 CURVE SMOOTH",
"685 1366 OFFCURVE",
"821 1232 OFFCURVE",
"798 1069 CURVE SMOOTH",
"770 872 OFFCURVE",
"601 766 OFFCURVE",
"377 766 CURVE",
"372 706 LINE",
"612 706 OFFCURVE",
"775 596 OFFCURVE",
"744 373 CURVE SMOOTH",
"718 186 OFFCURVE",
"523 34 OFFCURVE",
"337 34 CURVE SMOOTH",
"113 34 OFFCURVE",
"5 182 OFFCURVE",
"31 368 CURVE",
"-28 372 LINE",
"-59 154 OFFCURVE",
"75 -26 OFFCURVE",
"335 -26 CURVE SMOOTH"
);
}
);
width = 952;
}
);
leftKerningGroup = three;
rightKerningGroup = three;
unicode = 0033;
},
{
glyphname = four;
lastChange = "2020-01-28 10:10:21 +0000";
layers = (
{
layerId = "10BC12B3-5274-42E3-B5BC-F74F362F0DF4";
paths = (
{
closed = 1;
nodes = (
"828 0 LINE",
"873 310 LINE",
"975 310 LINE",
"1017 610 LINE",
"915 610 LINE",
"1025 1400 LINE",
"657 1400 LINE",
"24 610 LINE",
"-14 310 LINE",
"578 310 LINE",
"533 0 LINE"
);
},
{
closed = 1;
nodes = (
"678 996 LINE",
"620 610 LINE",
"374 610 LINE"
);
}
);
width = 1194;
},
{
layerId = "9AF1F7D9-E035-453E-B2A8-46DE370997D0";
paths = (
{
closed = 1;
nodes = (
"619 0 LINE",
"680 434 LINE",
"850 434 LINE",
"859 494 LINE",
"689 494 LINE",
"816 1400 LINE",
"736 1400 LINE",
"19 498 LINE",
"10 434 LINE",
"620 434 LINE",
"559 0 LINE"
);
},
{
closed = 1;
nodes = (
"739 1302 LINE",
"629 494 LINE",
"96 498 LINE"
);
}
);
width = 1050;
}
);
leftKerningGroup = four;
rightKerningGroup = four;
unicode = 0034;
},
{
glyphname = five;
lastChange = "2020-01-28 10:10:21 +0000";
layers = (
{
layerId = "10BC12B3-5274-42E3-B5BC-F74F362F0DF4";
paths = (
{
closed = 1;
nodes = (
"698 -26 OFFCURVE",
"931 188 OFFCURVE",
"962 446 CURVE SMOOTH",
"1007 724 OFFCURVE",
"836 946 OFFCURVE",
"554 958 CURVE",
"498 960 LINE",
"549 1100 LINE",
"1007 1100 LINE",
"1049 1400 LINE",
"346 1400 LINE",
"87 660 LINE",
"465 660 LINE SMOOTH",
"665 660 OFFCURVE",
"700 578 OFFCURVE",
"691 482 CURVE SMOOTH",
"670 366 OFFCURVE",
"556 274 OFFCURVE",
"443 274 CURVE SMOOTH",
"346 274 OFFCURVE",
"273 350 OFFCURVE",
"287 456 CURVE",
"2 472 LINE",
"-35 208 OFFCURVE",
"148 -26 OFFCURVE",
"435 -26 CURVE SMOOTH"
);
}
);
width = 1172;
},
{
layerId = "9AF1F7D9-E035-453E-B2A8-46DE370997D0";
paths = (
{
closed = 1;
nodes = (
"611 -26 OFFCURVE",
"837 170 OFFCURVE",
"871 413 CURVE SMOOTH",
"909 680 OFFCURVE",
"736 858 OFFCURVE",
"450 858 CURVE SMOOTH",
"240 858 LINE",
"402 1340 LINE",
"984 1340 LINE",
"992 1400 LINE",
"362 1400 LINE",
"157 798 LINE",
"485 798 LINE SMOOTH",
"695 798 OFFCURVE",
"842 628 OFFCURVE",
"812 419 CURVE SMOOTH",
"783 208 OFFCURVE",
"585 34 OFFCURVE",
"373 34 CURVE SMOOTH",
"163 34 OFFCURVE",
"18 204 OFFCURVE",
"48 414 CURVE",
"-12 418 LINE",
"-46 174 OFFCURVE",
"123 -26 OFFCURVE",
"371 -26 CURVE SMOOTH"
);
}
);
width = 1074;
}
);
leftKerningGroup = five;
rightKerningGroup = five;
unicode = 0035;
},
{
glyphname = six;
lastChange = "2020-01-28 10:10:21 +0000";
layers = (
{
layerId = "10BC12B3-5274-42E3-B5BC-F74F362F0DF4";
paths = (
{
closed = 1;
nodes = (
"720 -26 OFFCURVE",
"960 192 OFFCURVE",
"992 456 CURVE SMOOTH",
"1035 722 OFFCURVE",
"873 941 OFFCURVE",
"623 971 CURVE",
"944 1400 LINE",
"589 1400 LINE",
"105 733 LINE SMOOTH",
"52 655 OFFCURVE",
"25 568 OFFCURVE",
"20 492 CURVE SMOOTH",
"-26 206 OFFCURVE",
"170 -26 OFFCURVE",
"451 -26 CURVE SMOOTH"
);
},
{
closed = 1;
nodes = (
"356 244 OFFCURVE",
"273 320 OFFCURVE",
"281 424 CURVE SMOOTH",
"302 538 OFFCURVE",
"413 644 OFFCURVE",
"541 644 CURVE SMOOTH",
"647 644 OFFCURVE",
"719 560 OFFCURVE",
"711 460 CURVE SMOOTH",
"689 350 OFFCURVE",
"574 244 OFFCURVE",
"449 244 CURVE SMOOTH"
);
}
);
width = 1200;
},
{
layerId = "9AF1F7D9-E035-453E-B2A8-46DE370997D0";
paths = (
{
closed = 1;
nodes = (
"673 -26 OFFCURVE",
"916 186 OFFCURVE",
"952 447 CURVE SMOOTH",
"1004 818 OFFCURVE",
"629 1045 OFFCURVE",
"291 859 CURVE",
"681 1400 LINE",
"610 1400 LINE",
"111 705 LINE",
"51 611 OFFCURVE",
"18 562 OFFCURVE",
"3 453 CURVE SMOOTH",
"-34 190 OFFCURVE",
"151 -26 OFFCURVE",
"413 -26 CURVE SMOOTH"
);
},
{
closed = 1;
nodes = (
"195 34 OFFCURVE",
"30 214 OFFCURVE",
"63 449 CURVE SMOOTH",
"94 670 OFFCURVE",
"303 864 OFFCURVE",
"540 864 CURVE SMOOTH",
"767 864 OFFCURVE",
"925 682 OFFCURVE",
"893 455 CURVE SMOOTH",
"862 234 OFFCURVE",
"659 34 OFFCURVE",
"415 34 CURVE SMOOTH"
);
}
);
width = 1150;
}
);
leftKerningGroup = six;
rightKerningGroup = six;
unicode = 0036;
},
{
glyphname = seven;
lastChange = "2020-01-28 10:10:21 +0000";
layers = (
{
layerId = "10BC12B3-5274-42E3-B5BC-F74F362F0DF4";
paths = (
{
closed = 1;
nodes = (
"363 0 LINE",
"1150 1100 LINE",
"1189 1400 LINE",
"158 1400 LINE",
"116 1100 LINE",
"799 1100 LINE",
"10 0 LINE"
);
}
);
width = 1196;
},
{
layerId = "9AF1F7D9-E035-453E-B2A8-46DE370997D0";
paths = (
{
closed = 1;
nodes = (
"152 0 LINE",
"1114 1340 LINE",
"1122 1400 LINE",
"156 1400 LINE",
"148 1340 LINE",
"1043 1340 LINE",
"83 0 LINE"
);
}
);
width = 1126;
}
);
leftKerningGroup = seven;
rightKerningGroup = seven;
unicode = 0037;
},
{
glyphname = eight;
lastChange = "2020-01-28 10:10:21 +0000";
layers = (
{
layerId = "10BC12B3-5274-42E3-B5BC-F74F362F0DF4";
paths = (
{
closed = 1;
nodes = (
"682 -26 OFFCURVE",
"907 168 OFFCURVE",
"935 408 CURVE SMOOTH",
"958 534 OFFCURVE",
"924 647 OFFCURVE",
"854 724 CURVE",
"936 803 OFFCURVE",
"979 894 OFFCURVE",
"986 984 CURVE SMOOTH",
"1026 1228 OFFCURVE",
"851 1426 OFFCURVE",
"597 1426 CURVE SMOOTH",
"359 1426 OFFCURVE",
"148 1244 OFFCURVE",
"123 1020 CURVE SMOOTH",
"102 910 OFFCURVE",
"131 815 OFFCURVE",
"180 748 CURVE",
"75 659 OFFCURVE",
"23 550 OFFCURVE",
"15 444 CURVE SMOOTH",
"-29 182 OFFCURVE",
"154 -26 OFFCURVE",
"427 -26 CURVE SMOOTH"
);
},
{
closed = 1;
nodes = (
"356 254 OFFCURVE",
"294 314 OFFCURVE",
"298 387 CURVE SMOOTH",
"318 482 OFFCURVE",
"415 558 OFFCURVE",
"511 558 CURVE SMOOTH",
"591 558 OFFCURVE",
"653 498 OFFCURVE",
"648 424 CURVE SMOOTH",
"631 330 OFFCURVE",
"532 254 OFFCURVE",
"435 254 CURVE SMOOTH"
);
},
{
closed = 1;
nodes = (
"456 908 OFFCURVE",
"408 956 OFFCURVE",
"409 1014 CURVE SMOOTH",
"425 1092 OFFCURVE",
"508 1156 OFFCURVE",
"588 1156 CURVE SMOOTH",
"652 1156 OFFCURVE",
"701 1108 OFFCURVE",
"700 1050 CURVE SMOOTH",
"684 972 OFFCURVE",
"600 908 OFFCURVE",
"520 908 CURVE SMOOTH"
);
}
);
width = 1110;
},
{
layerId = "9AF1F7D9-E035-453E-B2A8-46DE370997D0";
paths = (
{
closed = 1;
nodes = (
"607 -26 OFFCURVE",
"825 150 OFFCURVE",
"855 367 CURVE SMOOTH",
"879 534 OFFCURVE",
"785 677 OFFCURVE",
"637 737 CURVE",
"781 793 OFFCURVE",
"895 918 OFFCURVE",
"915 1063 CURVE SMOOTH",
"943 1262 OFFCURVE",
"786 1426 OFFCURVE",
"569 1426 CURVE SMOOTH",
"354 1426 OFFCURVE",
"155 1266 OFFCURVE",
"128 1069 CURVE SMOOTH",
"107 922 OFFCURVE",
"189 795 OFFCURVE",
"313 739 CURVE",
"147 679 OFFCURVE",
"15 538 OFFCURVE",
"-8 373 CURVE SMOOTH",
"-39 154 OFFCURVE",
"131 -26 OFFCURVE",
"371 -26 CURVE SMOOTH"
);
},
{
closed = 1;
nodes = (
"175 34 OFFCURVE",
"31 182 OFFCURVE",
"57 367 CURVE SMOOTH",
"83 554 OFFCURVE",
"272 706 OFFCURVE",
"474 706 CURVE SMOOTH",
"676 706 OFFCURVE",
"816 558 OFFCURVE",
"790 373 CURVE SMOOTH",
"764 186 OFFCURVE",
"579 34 OFFCURVE",
"373 34 CURVE SMOOTH"
);
},
{
closed = 1;
nodes = (
"295 766 OFFCURVE",
"170 898 OFFCURVE",
"193 1063 CURVE SMOOTH",
"216 1230 OFFCURVE",
"383 1366 OFFCURVE",
"567 1366 CURVE SMOOTH",
"747 1366 OFFCURVE",
"873 1234 OFFCURVE",
"850 1069 CURVE SMOOTH",
"826 902 OFFCURVE",
"659 766 OFFCURVE",
"476 766 CURVE SMOOTH"
);
}
);
width = 1024;
}
);
leftKerningGroup = eight;
rightKerningGroup = eight;
unicode = 0038;
},
{
glyphname = nine;
lastChange = "2020-01-28 10:10:21 +0000";
layers = (
{
layerId = "10BC12B3-5274-42E3-B5BC-F74F362F0DF4";
paths = (
{
closed = 1;
nodes = (
"467 0 LINE",
"951 667 LINE SMOOTH",
"1003 745 OFFCURVE",
"1030 832 OFFCURVE",
"1035 908 CURVE SMOOTH",
"1081 1194 OFFCURVE",
"885 1426 OFFCURVE",
"605 1426 CURVE SMOOTH",
"335 1426 OFFCURVE",
"95 1208 OFFCURVE",
"64 944 CURVE SMOOTH",
"21 678 OFFCURVE",
"182 459 OFFCURVE",
"432 429 CURVE",
"112 0 LINE"
);
},
{
closed = 1;
nodes = (
"409 746 OFFCURVE",
"337 830 OFFCURVE",
"345 930 CURVE SMOOTH",
"367 1040 OFFCURVE",
"482 1146 OFFCURVE",
"606 1146 CURVE SMOOTH",
"700 1146 OFFCURVE",
"784 1070 OFFCURVE",
"775 966 CURVE SMOOTH",
"752 852 OFFCURVE",
"643 746 OFFCURVE",
"515 746 CURVE SMOOTH"
);
}
);
width = 1160;
},
{
layerId = "9AF1F7D9-E035-453E-B2A8-46DE370997D0";
paths = (
{
closed = 1;
nodes = (
"328 0 LINE",
"852 733 LINE",
"910 823 OFFCURVE",
"941 868 OFFCURVE",
"956 971 CURVE SMOOTH",
"991 1220 OFFCURVE",
"814 1426 OFFCURVE",
"567 1426 CURVE SMOOTH",
"320 1426 OFFCURVE",
"91 1224 OFFCURVE",
"57 977 CURVE SMOOTH",
"7 626 OFFCURVE",
"363 411 OFFCURVE",
"683 587 CURVE",
"259 0 LINE"
);
},
{
closed = 1;
nodes = (
"232 582 OFFCURVE",
"81 754 OFFCURVE",
"112 969 CURVE SMOOTH",
"141 1180 OFFCURVE",
"333 1368 OFFCURVE",
"565 1368 CURVE SMOOTH",
"773 1368 OFFCURVE",
"930 1198 OFFCURVE",
"899 975 CURVE SMOOTH",
"869 766 OFFCURVE",
"672 582 OFFCURVE",
"446 582 CURVE SMOOTH"
);
}
);
width = 1060;
}
);
leftKerningGroup = nine;
rightKerningGroup = nine;
unicode = 0039;
},
{
glyphname = zero.dnom;
lastChange = "2020-01-28 10:10:21 +0000";
layers = (
{
layerId = "10BC12B3-5274-42E3-B5BC-F74F362F0DF4";
paths = (
{
closed = 1;
nodes = (
"250 -26 OFFCURVE",
"347 96 OFFCURVE",
"362 246 CURVE",
"392 414 OFFCURVE",
"315 552 OFFCURVE",
"190 552 CURVE",
"83 552 OFFCURVE",
"-14 430 OFFCURVE",
"-29 282 CURVE",
"-59 112 OFFCURVE",
"18 -26 OFFCURVE",
"143 -26 CURVE"
);
},
{
closed = 1;
nodes = (
"91 114 OFFCURVE",
"80 190 OFFCURVE",
"81 245 CURVE",
"97 314 OFFCURVE",
"146 412 OFFCURVE",
"204 412 CURVE",
"240 412 OFFCURVE",
"253 334 OFFCURVE",
"252 283 CURVE",
"237 218 OFFCURVE",
"183 114 OFFCURVE",
"129 114 CURVE"
);
}
);
width = 540;
},
{
layerId = "9AF1F7D9-E035-453E-B2A8-46DE370997D0";
paths = (
{
closed = 1;
nodes = (
"243 -26 OFFCURVE",
"352 90 OFFCURVE",
"374 249 CURVE",
"397 410 OFFCURVE",
"319 532 OFFCURVE",
"201 532 CURVE",
"87 532 OFFCURVE",
"-22 414 OFFCURVE",
"-45 255 CURVE",
"-67 94 OFFCURVE",
"11 -26 OFFCURVE",
"129 -26 CURVE"
);
},
{
closed = 1;
nodes = (
"45 34 OFFCURVE",
"-1 138 OFFCURVE",
"14 249 CURVE",
"30 358 OFFCURVE",
"105 472 OFFCURVE",
"199 472 CURVE",
"285 472 OFFCURVE",
"331 368 OFFCURVE",
"315 255 CURVE",
"300 148 OFFCURVE",
"225 34 OFFCURVE",
"131 34 CURVE"
);
}
);
width = 540;
}
);
leftKerningGroup = zero.dnom;
rightKerningGroup = zero.dnom;
},
{
glyphname = one.dnom;
lastChange = "2020-01-28 10:10:21 +0000";
layers = (
{
layerId = "10BC12B3-5274-42E3-B5BC-F74F362F0DF4";
paths = (
{
closed = 1;
nodes = (
"124 0 LINE",
"198 526 LINE",
"34 526 LINE",
"-5 386 LINE",
"44 386 LINE",
"-11 0 LINE"
);
}
);
width = 388;
},
{
layerId = "9AF1F7D9-E035-453E-B2A8-46DE370997D0";
paths = (
{
closed = 1;
nodes = (
"73 0 LINE",
"147 526 LINE",
"21 526 LINE",
"5 466 LINE",
"79 466 LINE",
"13 0 LINE"
);
}
);
width = 334;
}
);
leftKerningGroup = one.dnom;
rightKerningGroup = one.dnom;
},
{
glyphname = two.dnom;
lastChange = "2020-01-28 10:10:21 +0000";
layers = (
{
layerId = "10BC12B3-5274-42E3-B5BC-F74F362F0DF4";
paths = (
{
closed = 1;
nodes = (
"332 0 LINE",
"352 140 LINE",
"218 134 LINE",
"300 198 OFFCURVE",
"374 254 OFFCURVE",
"379 330 CURVE",
"403 452 OFFCURVE",
"325 552 OFFCURVE",
"204 552 CURVE",
"101 552 OFFCURVE",
"11 468 OFFCURVE",
"-4 356 CURVE",
"122 340 LINE",
"127 376 OFFCURVE",
"174 412 OFFCURVE",
"218 412 CURVE",
"244 412 OFFCURVE",
"271 394 OFFCURVE",
"267 368 CURVE",
"181 244 OFFCURVE",
"58 194 OFFCURVE",
"-48 128 CURVE",
"-56 0 LINE"
);
}
);
width = 606;
},
{
layerId = "9AF1F7D9-E035-453E-B2A8-46DE370997D0";
paths = (
{
closed = 1;
nodes = (
"297 0 LINE",
"306 60 LINE",
"51 59 LINE",
"163 129 OFFCURVE",
"335 270 OFFCURVE",
"349 369 CURVE SMOOTH",
"363 468 OFFCURVE",
"292 542 OFFCURVE",
"192 542 CURVE SMOOTH",
"94 542 OFFCURVE",
"6 472 OFFCURVE",
"-8 374 CURVE",
"52 370 LINE",
"61 436 OFFCURVE",
"123 482 OFFCURVE",
"191 482 CURVE SMOOTH",
"255 482 OFFCURVE",
"299 440 OFFCURVE",
"290 375 CURVE SMOOTH",
"276 278 OFFCURVE",
"36 117 OFFCURVE",
"-53 63 CURVE",
"-61 0 LINE"
);
}
);
width = 558;
}
);
leftKerningGroup = two.dnom;
rightKerningGroup = two.dnom;
},
{
glyphname = three.dnom;
lastChange = "2020-01-28 10:10:21 +0000";
layers = (
{
layerId = "10BC12B3-5274-42E3-B5BC-F74F362F0DF4";
paths = (
{
closed = 1;
nodes = (
"210 -26 OFFCURVE",
"289 50 OFFCURVE",
"297 141 CURVE SMOOTH",
"310 194 OFFCURVE",
"299 241 OFFCURVE",
"275 265 CURVE",
"309 300 OFFCURVE",
"314 333 OFFCURVE",
"312 359 CURVE SMOOTH",
"334 466 OFFCURVE",
"267 552 OFFCURVE",
"162 552 CURVE SMOOTH",
"75 552 OFFCURVE",
"1 482 OFFCURVE",
"-12 386 CURVE",
"113 370 LINE",
"116 388 OFFCURVE",
"150 415 OFFCURVE",
"173 421 CURVE SMOOTH",
"183 418 OFFCURVE",
"198 422 OFFCURVE",
"203 414 CURVE SMOOTH",
"192 362 OFFCURVE",
"158 318 OFFCURVE",
"94 318 CURVE",
"101 230 LINE",
"160 230 OFFCURVE",
"186 201 OFFCURVE",
"189 179 CURVE SMOOTH",
"177 143 OFFCURVE",
"137 114 OFFCURVE",
"105 114 CURVE SMOOTH",
"87 114 OFFCURVE",
"72 126 OFFCURVE",
"75 152 CURVE",
"-52 168 LINE",
"-65 66 OFFCURVE",
"8 -26 OFFCURVE",
"119 -26 CURVE SMOOTH"
);
}
);
width = 490;
},
{
layerId = "9AF1F7D9-E035-453E-B2A8-46DE370997D0";
paths = (
{
closed = 1;
nodes = (
"173 -26 OFFCURVE",
"255 36 OFFCURVE",
"267 127 CURVE SMOOTH",
"277 196 OFFCURVE",
"254 229 OFFCURVE",
"211 266 CURVE",
"247 283 OFFCURVE",
"280 334 OFFCURVE",
"288 385 CURVE SMOOTH",
"300 470 OFFCURVE",
"238 530 OFFCURVE",
"153 530 CURVE SMOOTH",
"70 530 OFFCURVE",
"-4 474 OFFCURVE",
"-16 390 CURVE",
"44 386 LINE",
"51 436 OFFCURVE",
"99 470 OFFCURVE",
"151 470 CURVE SMOOTH",
"199 470 OFFCURVE",
"235 440 OFFCURVE",
"228 391 CURVE SMOOTH",
"220 330 OFFCURVE",
"169 296 OFFCURVE",
"93 296 CURVE",
"88 236 LINE",
"174 236 OFFCURVE",
"217 198 OFFCURVE",
"208 133 CURVE SMOOTH",
"200 74 OFFCURVE",
"147 34 OFFCURVE",
"87 34 CURVE SMOOTH",
"29 34 OFFCURVE",
"-11 70 OFFCURVE",
"-3 128 CURVE",
"-62 132 LINE",
"-75 40 OFFCURVE",
"-9 -26 OFFCURVE",
"85 -26 CURVE SMOOTH"
);
}
);
width = 450;
}
);
leftKerningGroup = three.dnom;
rightKerningGroup = three.dnom;
},
{
glyphname = four.dnom;
lastChange = "2020-01-28 10:10:21 +0000";
layers = (
{
layerId = "10BC12B3-5274-42E3-B5BC-F74F362F0DF4";
paths = (
{
closed = 1;
nodes = (
"272 0 LINE",
"283 72 LINE",
"328 72 LINE",
"346 212 LINE",
"302 212 LINE",
"346 526 LINE",
"191 526 LINE",
"-27 240 LINE",
"-47 72 LINE",
"149 72 LINE",
"138 0 LINE"
);
},
{
closed = 1;
nodes = (
"201 330 LINE",
"181 212 LINE",
"108 212 LINE"
);
}
);
width = 580;
},
{
layerId = "9AF1F7D9-E035-453E-B2A8-46DE370997D0";
paths = (
{
closed = 1;
nodes = (
"235 0 LINE",
"252 116 LINE",
"318 116 LINE",
"326 176 LINE",
"260 176 LINE",
"309 526 LINE",
"227 526 LINE",
"-35 188 LINE",
"-44 116 LINE",
"192 116 LINE",
"175 0 LINE"
);
},
{
closed = 1;
nodes = (
"239 446 LINE",
"200 176 LINE",
"29 176 LINE"
);
}
);
width = 562;
}
);
leftKerningGroup = four.dnom;
rightKerningGroup = four.dnom;
},
{
glyphname = five.dnom;
lastChange = "2020-01-28 10:10:21 +0000";
layers = (
{
layerId = "10BC12B3-5274-42E3-B5BC-F74F362F0DF4";
paths = (
{
closed = 1;
nodes = (
"242 -26 OFFCURVE",
"329 54 OFFCURVE",
"337 154 CURVE",
"360 285 OFFCURVE",
"302 370 OFFCURVE",
"163 370 CURVE",
"169 404 LINE",
"321 404 LINE",
"338 526 LINE",
"59 526 LINE",
"-13 230 LINE",
"168 230 LINE",
"202 230 OFFCURVE",
"226 213 OFFCURVE",
"229 191 CURVE",
"216 149 OFFCURVE",
"169 114 OFFCURVE",
"127 114 CURVE",
"103 114 OFFCURVE",
"82 132 OFFCURVE",
"86 164 CURVE",
"-40 180 LINE",
"-56 70 OFFCURVE",
"24 -26 OFFCURVE",
"141 -26 CURVE"
);
}
);
width = 588;
},
{
layerId = "9AF1F7D9-E035-453E-B2A8-46DE370997D0";
paths = (
{
closed = 1;
nodes = (
"213 -26 OFFCURVE",
"304 44 OFFCURVE",
"318 145 CURVE SMOOTH",
"337 281 OFFCURVE",
"231 352 OFFCURVE",
"76 311 CURVE",
"107 454 LINE",
"343 454 LINE",
"352 514 LINE",
"62 514 LINE",
"-1 242 LINE",
"133 266 LINE SMOOTH",
"212 280 OFFCURVE",
"268 218 OFFCURVE",
"259 151 CURVE SMOOTH",
"249 82 OFFCURVE",
"185 34 OFFCURVE",
"115 34 CURVE SMOOTH",
"49 34 OFFCURVE",
"0 78 OFFCURVE",
"10 146 CURVE",
"-50 150 LINE",
"-64 48 OFFCURVE",
"9 -26 OFFCURVE",
"113 -26 CURVE SMOOTH"
);
}
);
width = 558;
}
);
leftKerningGroup = five.dnom;
rightKerningGroup = five.dnom;
},
{
glyphname = six.dnom;
lastChange = "2020-01-28 10:10:21 +0000";
layers = (
{
layerId = "10BC12B3-5274-42E3-B5BC-F74F362F0DF4";
paths = (
{
closed = 1;
nodes = (
"244 -26 OFFCURVE",
"327 50 OFFCURVE",
"335 148 CURVE SMOOTH",
"355 246 OFFCURVE",
"314 322 OFFCURVE",
"219 354 CURVE",
"354 524 LINE",
"190 533 LINE",
"-11 253 OFFCURVE",
"-21 236 OFFCURVE",
"-22 186 CURVE SMOOTH",
"-45 66 OFFCURVE",
"30 -26 OFFCURVE",
"147 -26 CURVE SMOOTH"
);
},
{
closed = 1;
nodes = (
"121 114 OFFCURVE",
"98 115 OFFCURVE",
"89 137 CURVE SMOOTH",
"94 174 OFFCURVE",
"131 220 OFFCURVE",
"181 220 CURVE SMOOTH",
"199 220 OFFCURVE",
"212 213 OFFCURVE",
"221 196 CURVE SMOOTH",
"220 154 OFFCURVE",
"175 114 OFFCURVE",
"133 114 CURVE SMOOTH"
);
}
);
width = 568;
},
{
layerId = "9AF1F7D9-E035-453E-B2A8-46DE370997D0";
paths = (
{
closed = 1;
nodes = (
"233 -26 OFFCURVE",
"333 42 OFFCURVE",
"349 155 CURVE",
"366 274 OFFCURVE",
"265 378 OFFCURVE",
"135 346 CURVE SMOOTH",
"259 516 LINE",
"187 517 LINE SMOOTH",
"9 273 OFFCURVE",
"-29 226 OFFCURVE",
"-38 161 CURVE",
"-52 58 OFFCURVE",
"17 -26 OFFCURVE",
"133 -26 CURVE"
);
},
{
closed = 1;
nodes = (
"63 34 OFFCURVE",
"11 82 OFFCURVE",
"21 153 CURVE",
"32 230 OFFCURVE",
"102 292 OFFCURVE",
"178 292 CURVE",
"242 292 OFFCURVE",
"301 242 OFFCURVE",
"290 161 CURVE",
"280 86 OFFCURVE",
"211 34 OFFCURVE",
"135 34 CURVE"
);
}
);
width = 568;
}
);
leftKerningGroup = six.dnom;
rightKerningGroup = six.dnom;
},
{
glyphname = seven.dnom;
lastChange = "2020-01-28 10:10:21 +0000";
layers = (
{
layerId = "10BC12B3-5274-42E3-B5BC-F74F362F0DF4";
paths = (
{
closed = 1;
nodes = (
"153 0 LINE",
"426 386 LINE",
"442 522 LINE",
"35 522 LINE",
"16 382 LINE",
"260 382 LINE",
"-14 0 LINE"
);
}
);
width = 572;
},
{
layerId = "9AF1F7D9-E035-453E-B2A8-46DE370997D0";
paths = (
{
closed = 1;
nodes = (
"66 0 LINE",
"370 424 LINE",
"377 484 LINE",
"27 484 LINE",
"19 424 LINE",
"298 424 LINE",
"-5 0 LINE"
);
}
);
width = 510;
}
);
leftKerningGroup = seven.dnom;
rightKerningGroup = seven.dnom;
},
{
glyphname = eight.dnom;
lastChange = "2020-01-28 10:10:21 +0000";
layers = (
{
layerId = "10BC12B3-5274-42E3-B5BC-F74F362F0DF4";
paths = (
{
closed = 1;
nodes = (
"232 -26 OFFCURVE",
"309 46 OFFCURVE",
"315 137 CURVE SMOOTH",
"329 172 OFFCURVE",
"324 230 OFFCURVE",
"296 262 CURVE",
"328 294 OFFCURVE",
"347 339 OFFCURVE",
"340 386 CURVE SMOOTH",
"345 480 OFFCURVE",
"280 552 OFFCURVE",
"184 552 CURVE SMOOTH",
"89 552 OFFCURVE",
"9 468 OFFCURVE",
"16 367 CURVE SMOOTH",
"9 333 OFFCURVE",
"20 304 OFFCURVE",
"33 289 CURVE",
"-22 243 OFFCURVE",
"-32 188 OFFCURVE",
"-26 144 CURVE SMOOTH",
"-32 47 OFFCURVE",
"36 -26 OFFCURVE",
"137 -26 CURVE SMOOTH"
);
},
{
closed = 1;
nodes = (
"118 90 OFFCURVE",
"103 113 OFFCURVE",
"97 134 CURVE SMOOTH",
"103 164 OFFCURVE",
"132 200 OFFCURVE",
"156 200 CURVE SMOOTH",
"173 200 OFFCURVE",
"190 183 OFFCURVE",
"196 159 CURVE SMOOTH",
"190 128 OFFCURVE",
"160 90 OFFCURVE",
"137 90 CURVE SMOOTH"
);
},
{
closed = 1;
nodes = (
"153 344 OFFCURVE",
"144 360 OFFCURVE",
"137 375 CURVE SMOOTH",
"142 400 OFFCURVE",
"168 432 OFFCURVE",
"184 432 CURVE SMOOTH",
"198 432 OFFCURVE",
"207 413 OFFCURVE",
"212 399 CURVE SMOOTH",
"209 377 OFFCURVE",
"186 344 OFFCURVE",
"168 344 CURVE SMOOTH"
);
}
);
width = 530;
},
{
layerId = "9AF1F7D9-E035-453E-B2A8-46DE370997D0";
paths = (
{
closed = 1;
nodes = (
"195 -26 OFFCURVE",
"279 36 OFFCURVE",
"291 127 CURVE SMOOTH",
"300 186 OFFCURVE",
"275 237 OFFCURVE",
"237 266 CURVE",
"278 295 OFFCURVE",
"307 338 OFFCURVE",
"314 385 CURVE SMOOTH",
"326 472 OFFCURVE",
"265 532 OFFCURVE",
"177 532 CURVE SMOOTH",
"95 532 OFFCURVE",
"20 476 OFFCURVE",
"8 391 CURVE SMOOTH",
"1 342 OFFCURVE",
"21 297 OFFCURVE",
"51 270 CURVE",
"2 239 OFFCURVE",
"-34 190 OFFCURVE",
"-42 133 CURVE SMOOTH",
"-55 40 OFFCURVE",
"13 -26 OFFCURVE",
"105 -26 CURVE SMOOTH"
);
},
{
closed = 1;
nodes = (
"51 34 OFFCURVE",
"9 70 OFFCURVE",
"17 127 CURVE SMOOTH",
"26 186 OFFCURVE",
"82 236 OFFCURVE",
"142 236 CURVE SMOOTH",
"200 236 OFFCURVE",
"240 190 OFFCURVE",
"232 133 CURVE SMOOTH",
"224 74 OFFCURVE",
"169 34 OFFCURVE",
"107 34 CURVE SMOOTH"
);
},
{
closed = 1;
nodes = (
"95 296 OFFCURVE",
"61 336 OFFCURVE",
"68 385 CURVE SMOOTH",
"75 438 OFFCURVE",
"123 472 OFFCURVE",
"175 472 CURVE SMOOTH",
"225 472 OFFCURVE",
"262 442 OFFCURVE",
"254 391 CURVE SMOOTH",
"247 340 OFFCURVE",
"197 296 OFFCURVE",
"144 296 CURVE SMOOTH"
);
}
);
width = 494;
}
);
leftKerningGroup = eight.dnom;
rightKerningGroup = eight.dnom;
},
{
glyphname = nine.dnom;
lastChange = "2020-01-28 10:10:21 +0000";
layers = (
{
layerId = "10BC12B3-5274-42E3-B5BC-F74F362F0DF4";
paths = (
{
closed = 1;
nodes = (
"133 0 LINE",
"318 252 LINE",
"337 284 OFFCURVE",
"343 317 OFFCURVE",
"341 339 CURVE SMOOTH",
"365 452 OFFCURVE",
"295 552 OFFCURVE",
"174 552 CURVE SMOOTH",
"75 552 OFFCURVE",
"-8 472 OFFCURVE",
"-15 376 CURVE SMOOTH",
"-35 282 OFFCURVE",
"9 194 OFFCURVE",
"99 172 CURVE",
"-36 0 LINE"
);
},
{
closed = 1;
nodes = (
"128 304 OFFCURVE",
"95 308 OFFCURVE",
"93 337 CURVE SMOOTH",
"105 373 OFFCURVE",
"144 412 OFFCURVE",
"188 412 CURVE SMOOTH",
"206 412 OFFCURVE",
"232 396 OFFCURVE",
"236 380 CURVE SMOOTH",
"222 339 OFFCURVE",
"178 304 OFFCURVE",
"139 304 CURVE SMOOTH"
);
}
);
width = 548;
},
{
layerId = "9AF1F7D9-E035-453E-B2A8-46DE370997D0";
paths = (
{
closed = 1;
nodes = (
"130 0 LINE",
"313 253 LINE",
"312 255 OFFCURVE",
"316 257 OFFCURVE",
"319 259 CURVE SMOOTH",
"413 389 OFFCURVE",
"336 542 OFFCURVE",
"186 542 CURVE SMOOTH",
"122 542 OFFCURVE",
"54 519 OFFCURVE",
"8 457 CURVE SMOOTH",
"-98 309 OFFCURVE",
"13 128 OFFCURVE",
"185 170 CURVE",
"61 0 LINE"
);
},
{
closed = 1;
nodes = (
"89 224 OFFCURVE",
"37 258 OFFCURVE",
"28 321 CURVE SMOOTH",
"20 408 OFFCURVE",
"97 482 OFFCURVE",
"185 482 CURVE SMOOTH",
"237 482 OFFCURVE",
"290 458 OFFCURVE",
"300 395 CURVE SMOOTH",
"307 306 OFFCURVE",
"229 224 OFFCURVE",
"142 224 CURVE SMOOTH"
);
}
);
width = 548;
}
);
leftKerningGroup = nine.dnom;
rightKerningGroup = nine.dnom;
},
{
glyphname = zero.numr;
lastChange = "2020-01-28 10:10:21 +0000";
layers = (
{
layerId = "10BC12B3-5274-42E3-B5BC-F74F362F0DF4";
paths = (
{
closed = 1;
nodes = (
"371 832 OFFCURVE",
"466 944 OFFCURVE",
"481 1094 CURVE",
"511 1262 OFFCURVE",
"432 1390 OFFCURVE",
"308 1390 CURVE",
"200 1390 OFFCURVE",
"105 1278 OFFCURVE",
"91 1130 CURVE",
"60 960 OFFCURVE",
"139 832 OFFCURVE",
"263 832 CURVE"
);
},
{
closed = 1;
nodes = (
"210 962 OFFCURVE",
"198 1038 OFFCURVE",
"200 1093 CURVE",
"216 1162 OFFCURVE",
"265 1260 OFFCURVE",
"323 1260 CURVE",
"359 1260 OFFCURVE",
"372 1182 OFFCURVE",
"371 1131 CURVE",
"355 1066 OFFCURVE",
"302 962 OFFCURVE",
"248 962 CURVE"
);
}
);
width = 540;
},
{
layerId = "9AF1F7D9-E035-453E-B2A8-46DE370997D0";
paths = (
{
closed = 1;
nodes = (
"364 832 OFFCURVE",
"473 948 OFFCURVE",
"495 1107 CURVE SMOOTH",
"518 1268 OFFCURVE",
"439 1390 OFFCURVE",
"321 1390 CURVE SMOOTH",
"207 1390 OFFCURVE",
"98 1272 OFFCURVE",
"76 1113 CURVE SMOOTH",
"53 952 OFFCURVE",
"132 832 OFFCURVE",
"250 832 CURVE SMOOTH"
);
},
{
closed = 1;
nodes = (
"165 892 OFFCURVE",
"119 996 OFFCURVE",
"135 1107 CURVE SMOOTH",
"150 1216 OFFCURVE",
"226 1330 OFFCURVE",
"320 1330 CURVE SMOOTH",
"406 1330 OFFCURVE",
"452 1226 OFFCURVE",
"436 1113 CURVE SMOOTH",
"421 1006 OFFCURVE",
"345 892 OFFCURVE",
"251 892 CURVE SMOOTH"
);
}
);
width = 540;
}
);
leftKerningGroup = zero.numr;
rightKerningGroup = zero.numr;
},
{
glyphname = one.numr;
lastChange = "2020-01-28 10:10:21 +0000";
layers = (
{
layerId = "10BC12B3-5274-42E3-B5BC-F74F362F0DF4";
paths = (
{
closed = 1;
nodes = (
"245 848 LINE",
"318 1374 LINE",
"153 1374 LINE",
"115 1234 LINE",
"164 1234 LINE",
"110 848 LINE"
);
}
);
width = 388;
},
{
layerId = "9AF1F7D9-E035-453E-B2A8-46DE370997D0";
paths = (
{
closed = 1;
nodes = (
"193 848 LINE",
"267 1374 LINE",
"140 1374 LINE",
"124 1314 LINE",
"198 1314 LINE",
"133 848 LINE"
);
}
);
width = 334;
}
);
leftKerningGroup = one.numr;
rightKerningGroup = one.numr;
},
{
glyphname = two.numr;
lastChange = "2020-01-28 10:10:21 +0000";
layers = (
{
layerId = "10BC12B3-5274-42E3-B5BC-F74F362F0DF4";
paths = (
{
closed = 1;
nodes = (
"453 848 LINE",
"471 988 LINE",
"338 982 LINE",
"418 1046 OFFCURVE",
"494 1102 OFFCURVE",
"499 1178 CURVE",
"521 1300 OFFCURVE",
"442 1390 OFFCURVE",
"322 1390 CURVE",
"218 1390 OFFCURVE",
"130 1316 OFFCURVE",
"115 1204 CURVE",
"240 1188 LINE",
"245 1224 OFFCURVE",
"293 1260 OFFCURVE",
"337 1260 CURVE",
"363 1260 OFFCURVE",
"389 1242 OFFCURVE",
"386 1215 CURVE",
"300 1092 OFFCURVE",
"177 1042 OFFCURVE",
"72 976 CURVE",
"63 848 LINE"
);
}
);
width = 606;
},
{
layerId = "9AF1F7D9-E035-453E-B2A8-46DE370997D0";
paths = (
{
closed = 1;
nodes = (
"417 848 LINE",
"425 908 LINE",
"170 907 LINE",
"282 977 OFFCURVE",
"455 1118 OFFCURVE",
"468 1217 CURVE SMOOTH",
"482 1316 OFFCURVE",
"411 1390 OFFCURVE",
"311 1390 CURVE SMOOTH",
"213 1390 OFFCURVE",
"125 1320 OFFCURVE",
"111 1222 CURVE",
"171 1218 LINE",
"180 1284 OFFCURVE",
"242 1330 OFFCURVE",
"310 1330 CURVE SMOOTH",
"374 1330 OFFCURVE",
"418 1288 OFFCURVE",
"409 1223 CURVE SMOOTH",
"396 1126 OFFCURVE",
"156 965 OFFCURVE",
"66 911 CURVE",
"59 848 LINE"
);
}
);
width = 558;
}
);
leftKerningGroup = two.numr;
rightKerningGroup = two.numr;
},
{
glyphname = three.numr;
lastChange = "2020-01-28 10:10:21 +0000";
layers = (
{
layerId = "10BC12B3-5274-42E3-B5BC-F74F362F0DF4";
paths = (
{
closed = 1;
nodes = (
"331 832 OFFCURVE",
"410 898 OFFCURVE",
"416 989 CURVE SMOOTH",
"430 1042 OFFCURVE",
"419 1089 OFFCURVE",
"394 1112 CURVE",
"429 1148 OFFCURVE",
"433 1182 OFFCURVE",
"431 1207 CURVE SMOOTH",
"454 1314 OFFCURVE",
"384 1390 OFFCURVE",
"280 1390 CURVE SMOOTH",
"192 1390 OFFCURVE",
"120 1330 OFFCURVE",
"107 1234 CURVE",
"233 1218 LINE",
"235 1236 OFFCURVE",
"268 1263 OFFCURVE",
"291 1269 CURVE SMOOTH",
"302 1266 OFFCURVE",
"314 1271 OFFCURVE",
"319 1263 CURVE SMOOTH",
"312 1210 OFFCURVE",
"277 1166 OFFCURVE",
"213 1166 CURVE",
"221 1078 LINE",
"279 1078 OFFCURVE",
"304 1048 OFFCURVE",
"307 1027 CURVE SMOOTH",
"296 990 OFFCURVE",
"256 962 OFFCURVE",
"224 962 CURVE SMOOTH",
"206 962 OFFCURVE",
"190 974 OFFCURVE",
"194 1000 CURVE",
"68 1016 LINE",
"54 914 OFFCURVE",
"129 832 OFFCURVE",
"239 832 CURVE SMOOTH"
);
}
);
width = 490;
},
{
layerId = "9AF1F7D9-E035-453E-B2A8-46DE370997D0";
paths = (
{
closed = 1;
nodes = (
"294 832 OFFCURVE",
"375 894 OFFCURVE",
"388 985 CURVE",
"398 1054 OFFCURVE",
"375 1087 OFFCURVE",
"332 1124 CURVE",
"367 1141 OFFCURVE",
"401 1192 OFFCURVE",
"408 1243 CURVE",
"420 1328 OFFCURVE",
"359 1388 OFFCURVE",
"273 1388 CURVE",
"191 1388 OFFCURVE",
"117 1332 OFFCURVE",
"105 1248 CURVE",
"164 1244 LINE",
"171 1294 OFFCURVE",
"220 1328 OFFCURVE",
"271 1328 CURVE",
"320 1328 OFFCURVE",
"356 1298 OFFCURVE",
"349 1249 CURVE",
"340 1188 OFFCURVE",
"290 1154 OFFCURVE",
"214 1154 CURVE",
"209 1094 LINE",
"295 1094 OFFCURVE",
"338 1056 OFFCURVE",
"329 991 CURVE",
"320 932 OFFCURVE",
"267 892 OFFCURVE",
"207 892 CURVE",
"149 892 OFFCURVE",
"110 928 OFFCURVE",
"118 986 CURVE",
"59 990 LINE",
"46 898 OFFCURVE",
"112 832 OFFCURVE",
"206 832 CURVE"
);
}
);
width = 450;
}
);
leftKerningGroup = three.numr;
rightKerningGroup = three.numr;
},
{
glyphname = four.numr;
lastChange = "2020-01-28 10:10:21 +0000";
layers = (
{
layerId = "10BC12B3-5274-42E3-B5BC-F74F362F0DF4";
paths = (
{
closed = 1;
nodes = (
"393 848 LINE",
"402 920 LINE",
"446 920 LINE",
"465 1060 LINE",
"421 1060 LINE",
"466 1374 LINE",
"311 1374 LINE",
"92 1088 LINE",
"72 920 LINE",
"267 920 LINE",
"258 848 LINE"
);
},
{
closed = 1;
nodes = (
"320 1178 LINE",
"301 1060 LINE",
"229 1060 LINE"
);
}
);
width = 580;
},
{
layerId = "9AF1F7D9-E035-453E-B2A8-46DE370997D0";
paths = (
{
closed = 1;
nodes = (
"355 848 LINE",
"371 964 LINE",
"437 964 LINE",
"445 1024 LINE",
"379 1024 LINE",
"429 1374 LINE",
"346 1374 LINE",
"84 1036 LINE",
"75 964 LINE",
"311 964 LINE",
"295 848 LINE"
);
},
{
closed = 1;
nodes = (
"358 1294 LINE",
"319 1024 LINE",
"148 1024 LINE"
);
}
);
width = 562;
}
);
leftKerningGroup = four.numr;
rightKerningGroup = four.numr;
},
{
glyphname = five.numr;
lastChange = "2020-01-28 10:10:21 +0000";
layers = (
{
layerId = "10BC12B3-5274-42E3-B5BC-F74F362F0DF4";
paths = (
{
closed = 1;
nodes = (
"363 832 OFFCURVE",
"447 902 OFFCURVE",
"456 1002 CURVE",
"479 1122 OFFCURVE",
"400 1218 OFFCURVE",
"320 1218 CURVE",
"311 1218 OFFCURVE",
"280 1218 OFFCURVE",
"274 1218 CURVE",
"284 1254 LINE",
"441 1254 LINE",
"458 1374 LINE",
"178 1374 LINE",
"116 1071 LINE",
"169 1077 OFFCURVE",
"260 1082 OFFCURVE",
"296 1082 CURVE SMOOTH",
"321 1081 OFFCURVE",
"344 1060 OFFCURVE",
"348 1039 CURVE",
"334 997 OFFCURVE",
"288 962 OFFCURVE",
"246 962 CURVE",
"222 962 OFFCURVE",
"201 980 OFFCURVE",
"206 1012 CURVE",
"80 1028 LINE",
"65 918 OFFCURVE",
"145 832 OFFCURVE",
"261 832 CURVE"
);
}
);
width = 588;
},
{
layerId = "9AF1F7D9-E035-453E-B2A8-46DE370997D0";
paths = (
{
closed = 1;
nodes = (
"334 832 OFFCURVE",
"424 902 OFFCURVE",
"438 1003 CURVE SMOOTH",
"453 1104 OFFCURVE",
"381 1188 OFFCURVE",
"277 1188 CURVE SMOOTH",
"251 1188 OFFCURVE",
"225 1186 OFFCURVE",
"198 1182 CURVE",
"228 1314 LINE",
"464 1314 LINE",
"473 1374 LINE",
"182 1374 LINE",
"121 1099 LINE",
"193 1121 OFFCURVE",
"214 1128 OFFCURVE",
"275 1128 CURVE SMOOTH",
"342 1128 OFFCURVE",
"389 1076 OFFCURVE",
"379 1009 CURVE SMOOTH",
"370 940 OFFCURVE",
"305 892 OFFCURVE",
"235 892 CURVE SMOOTH",
"169 892 OFFCURVE",
"121 936 OFFCURVE",
"131 1004 CURVE",
"71 1008 LINE",
"57 906 OFFCURVE",
"130 832 OFFCURVE",
"234 832 CURVE SMOOTH"
);
}
);
width = 558;
}
);
leftKerningGroup = five.numr;
rightKerningGroup = five.numr;
},
{
glyphname = six.numr;
lastChange = "2020-01-28 10:10:21 +0000";
layers = (
{
layerId = "10BC12B3-5274-42E3-B5BC-F74F362F0DF4";
paths = (
{
closed = 1;
nodes = (
"365 832 OFFCURVE",
"448 898 OFFCURVE",
"455 996 CURVE SMOOTH",
"475 1094 OFFCURVE",
"433 1170 OFFCURVE",
"339 1202 CURVE",
"474 1372 LINE",
"309 1381 LINE",
"108 1101 OFFCURVE",
"99 1084 OFFCURVE",
"98 1034 CURVE SMOOTH",
"74 914 OFFCURVE",
"151 832 OFFCURVE",
"267 832 CURVE SMOOTH"
);
},
{
closed = 1;
nodes = (
"240 962 OFFCURVE",
"218 962 OFFCURVE",
"209 986 CURVE SMOOTH",
"211 1022 OFFCURVE",
"250 1068 OFFCURVE",
"300 1068 CURVE SMOOTH",
"318 1068 OFFCURVE",
"329 1062 OFFCURVE",
"338 1045 CURVE SMOOTH",
"340 1002 OFFCURVE",
"294 962 OFFCURVE",
"252 962 CURVE SMOOTH"
);
}
);
width = 588;
},
{
layerId = "9AF1F7D9-E035-453E-B2A8-46DE370997D0";
paths = (
{
closed = 1;
nodes = (
"354 832 OFFCURVE",
"454 900 OFFCURVE",
"470 1013 CURVE SMOOTH",
"487 1132 OFFCURVE",
"386 1236 OFFCURVE",
"255 1204 CURVE",
"378 1372 LINE",
"307 1373 LINE",
"128 1129 OFFCURVE",
"92 1084 OFFCURVE",
"83 1019 CURVE SMOOTH",
"68 916 OFFCURVE",
"138 832 OFFCURVE",
"254 832 CURVE SMOOTH"
);
},
{
closed = 1;
nodes = (
"183 892 OFFCURVE",
"132 940 OFFCURVE",
"141 1011 CURVE SMOOTH",
"152 1088 OFFCURVE",
"223 1150 OFFCURVE",
"298 1150 CURVE SMOOTH",
"363 1150 OFFCURVE",
"422 1100 OFFCURVE",
"411 1019 CURVE SMOOTH",
"400 944 OFFCURVE",
"331 892 OFFCURVE",
"255 892 CURVE SMOOTH"
);
}
);
width = 588;
}
);
leftKerningGroup = six.numr;
rightKerningGroup = six.numr;
},
{
glyphname = seven.numr;
lastChange = "2020-01-28 10:10:21 +0000";
layers = (
{
layerId = "10BC12B3-5274-42E3-B5BC-F74F362F0DF4";
paths = (
{
closed = 1;
nodes = (
"272 848 LINE",
"545 1236 LINE",
"560 1372 LINE",
"154 1372 LINE",
"136 1232 LINE",
"379 1232 LINE",
"106 848 LINE"
);
}
);
width = 572;
},
{
layerId = "9AF1F7D9-E035-453E-B2A8-46DE370997D0";
paths = (
{
closed = 1;
nodes = (
"162 848 LINE",
"495 1314 LINE",
"503 1374 LINE",
"153 1374 LINE",
"144 1314 LINE",
"424 1314 LINE",
"91 848 LINE"
);
}
);
width = 510;
}
);
leftKerningGroup = seven.numr;
rightKerningGroup = seven.numr;
},
{
glyphname = eight.numr;
lastChange = "2020-01-28 10:10:21 +0000";
layers = (
{
layerId = "10BC12B3-5274-42E3-B5BC-F74F362F0DF4";
paths = (
{
closed = 1;
nodes = (
"353 832 OFFCURVE",
"429 894 OFFCURVE",
"435 985 CURVE SMOOTH",
"450 1042 OFFCURVE",
"437 1086 OFFCURVE",
"415 1110 CURVE",
"449 1143 OFFCURVE",
"456 1179 OFFCURVE",
"455 1205 CURVE SMOOTH",
"478 1314 OFFCURVE",
"407 1392 OFFCURVE",
"302 1392 CURVE SMOOTH",
"215 1392 OFFCURVE",
"143 1330 OFFCURVE",
"137 1243 CURVE SMOOTH",
"125 1197 OFFCURVE",
"137 1157 OFFCURVE",
"152 1137 CURVE",
"109 1101 OFFCURVE",
"96 1058 OFFCURVE",
"97 1023 CURVE SMOOTH",
"74 910 OFFCURVE",
"147 832 OFFCURVE",
"257 832 CURVE SMOOTH"
);
},
{
closed = 1;
nodes = (
"226 960 OFFCURVE",
"208 971 OFFCURVE",
"202 984 CURVE SMOOTH",
"216 1021 OFFCURVE",
"255 1050 OFFCURVE",
"288 1050 CURVE SMOOTH",
"305 1050 OFFCURVE",
"323 1039 OFFCURVE",
"329 1024 CURVE SMOOTH",
"316 989 OFFCURVE",
"276 960 OFFCURVE",
"242 960 CURVE SMOOTH"
);
},
{
closed = 1;
nodes = (
"265 1193 OFFCURVE",
"252 1181 OFFCURVE",
"247 1188 CURVE SMOOTH",
"257 1236 OFFCURVE",
"291 1260 OFFCURVE",
"317 1260 CURVE SMOOTH",
"329 1260 OFFCURVE",
"345 1262 OFFCURVE",
"351 1253 CURVE SMOOTH",
"337 1215 OFFCURVE",
"302 1191 OFFCURVE",
"275 1194 CURVE SMOOTH"
);
}
);
width = 530;
},
{
layerId = "9AF1F7D9-E035-453E-B2A8-46DE370997D0";
paths = (
{
closed = 1;
nodes = (
"316 832 OFFCURVE",
"399 894 OFFCURVE",
"412 985 CURVE SMOOTH",
"420 1044 OFFCURVE",
"396 1095 OFFCURVE",
"357 1124 CURVE",
"399 1153 OFFCURVE",
"428 1196 OFFCURVE",
"434 1243 CURVE SMOOTH",
"446 1330 OFFCURVE",
"385 1390 OFFCURVE",
"297 1390 CURVE SMOOTH",
"215 1390 OFFCURVE",
"141 1334 OFFCURVE",
"129 1249 CURVE SMOOTH",
"122 1200 OFFCURVE",
"141 1155 OFFCURVE",
"172 1128 CURVE",
"122 1097 OFFCURVE",
"87 1048 OFFCURVE",
"79 991 CURVE SMOOTH",
"66 898 OFFCURVE",
"134 832 OFFCURVE",
"226 832 CURVE SMOOTH"
);
},
{
closed = 1;
nodes = (
"171 892 OFFCURVE",
"130 928 OFFCURVE",
"138 985 CURVE SMOOTH",
"146 1044 OFFCURVE",
"203 1094 OFFCURVE",
"263 1094 CURVE SMOOTH",
"321 1094 OFFCURVE",
"361 1048 OFFCURVE",
"353 991 CURVE SMOOTH",
"344 932 OFFCURVE",
"289 892 OFFCURVE",
"227 892 CURVE SMOOTH"
);
},
{
closed = 1;
nodes = (
"216 1154 OFFCURVE",
"181 1194 OFFCURVE",
"188 1243 CURVE SMOOTH",
"196 1296 OFFCURVE",
"244 1330 OFFCURVE",
"296 1330 CURVE SMOOTH",
"346 1330 OFFCURVE",
"382 1300 OFFCURVE",
"375 1249 CURVE SMOOTH",
"368 1198 OFFCURVE",
"318 1154 OFFCURVE",
"264 1154 CURVE SMOOTH"
);
}
);
width = 494;
}
);
leftKerningGroup = eight.numr;
rightKerningGroup = eight.numr;
},
{
glyphname = nine.numr;
lastChange = "2020-01-28 10:10:21 +0000";
layers = (
{
layerId = "10BC12B3-5274-42E3-B5BC-F74F362F0DF4";
paths = (
{
closed = 1;
nodes = (
"252 848 LINE",
"438 1101 LINE",
"456 1133 OFFCURVE",
"462 1165 OFFCURVE",
"461 1187 CURVE SMOOTH",
"483 1300 OFFCURVE",
"412 1390 OFFCURVE",
"292 1390 CURVE SMOOTH",
"192 1390 OFFCURVE",
"112 1320 OFFCURVE",
"103 1224 CURVE SMOOTH",
"85 1130 OFFCURVE",
"129 1042 OFFCURVE",
"218 1020 CURVE",
"83 848 LINE"
);
},
{
closed = 1;
nodes = (
"247 1152 OFFCURVE",
"214 1156 OFFCURVE",
"212 1185 CURVE SMOOTH",
"224 1221 OFFCURVE",
"263 1260 OFFCURVE",
"307 1260 CURVE SMOOTH",
"325 1260 OFFCURVE",
"350 1243 OFFCURVE",
"355 1228 CURVE SMOOTH",
"341 1187 OFFCURVE",
"297 1152 OFFCURVE",
"259 1152 CURVE SMOOTH"
);
}
);
width = 548;
},
{
layerId = "9AF1F7D9-E035-453E-B2A8-46DE370997D0";
paths = (
{
closed = 1;
nodes = (
"249 848 LINE",
"432 1101 LINE",
"432 1103 OFFCURVE",
"435 1105 OFFCURVE",
"439 1107 CURVE SMOOTH",
"532 1237 OFFCURVE",
"455 1390 OFFCURVE",
"305 1390 CURVE SMOOTH",
"241 1390 OFFCURVE",
"173 1367 OFFCURVE",
"127 1305 CURVE SMOOTH",
"21 1157 OFFCURVE",
"132 976 OFFCURVE",
"304 1018 CURVE",
"180 848 LINE"
);
},
{
closed = 1;
nodes = (
"208 1072 OFFCURVE",
"156 1106 OFFCURVE",
"147 1169 CURVE SMOOTH",
"140 1256 OFFCURVE",
"216 1330 OFFCURVE",
"304 1330 CURVE SMOOTH",
"356 1330 OFFCURVE",
"409 1306 OFFCURVE",
"419 1243 CURVE SMOOTH",
"426 1154 OFFCURVE",
"348 1072 OFFCURVE",
"261 1072 CURVE SMOOTH"
);
}
);
width = 548;
}
);
leftKerningGroup = nine.numr;
rightKerningGroup = nine.numr;
},
{
glyphname = fraction;
lastChange = "2020-01-28 10:10:21 +0000";
layers = (
{
layerId = "10BC12B3-5274-42E3-B5BC-F74F362F0DF4";
paths = (
{
closed = 1;
nodes = (
"105 0 LINE",
"1110 1400 LINE",
"861 1400 LINE",
"-144 0 LINE"
);
}
);
width = 1050;
},
{
layerId = "9AF1F7D9-E035-453E-B2A8-46DE370997D0";
paths = (
{
closed = 1;
nodes = (
"-10 0 LINE",
"995 1400 LINE",
"924 1400 LINE",
"-81 0 LINE"
);
}
);
width = 998;
}
);
leftKerningGroup = frac_digits;
rightKerningGroup = fraction;
unicode = "2044,2215";
},
{
glyphname = period;
lastChange = "2020-01-28 10:10:21 +0000";
layers = (
{
layerId = "10BC12B3-5274-42E3-B5BC-F74F362F0DF4";
paths = (
{
closed = 1;
nodes = (
"176 -26 OFFCURVE",
"238 32 OFFCURVE",
"242 106 CURVE SMOOTH",
"261 198 OFFCURVE",
"202 274 OFFCURVE",
"111 274 CURVE SMOOTH",
"36 274 OFFCURVE",
"-23 214 OFFCURVE",
"-28 143 CURVE SMOOTH",
"-47 48 OFFCURVE",
"10 -26 OFFCURVE",
"103 -26 CURVE SMOOTH"
);
}
);
width = 460;
},
{
layerId = "9AF1F7D9-E035-453E-B2A8-46DE370997D0";
paths = (
{
closed = 1;
nodes = (
"7 -26 OFFCURVE",
"28 -8 OFFCURVE",
"32 17 CURVE SMOOTH",
"35 42 OFFCURVE",
"17 64 OFFCURVE",
"-11 64 CURVE SMOOTH",
"-33 64 OFFCURVE",
"-54 46 OFFCURVE",
"-57 23 CURVE SMOOTH",
"-61 -4 OFFCURVE",
"-43 -26 OFFCURVE",
"-17 -26 CURVE SMOOTH"
);
}
);
width = 250;
}
);
leftKerningGroup = "1";
rightKerningGroup = period;
unicode = 002E;
},
{
glyphname = comma;
lastChange = "2020-01-28 10:10:21 +0000";
layers = (
{
layerId = "10BC12B3-5274-42E3-B5BC-F74F362F0DF4";
paths = (
{
closed = 1;
nodes = (
"127 -112 LINE",
"335 226 LINE",
"34 226 LINE",
"-76 -112 LINE"
);
}
);
width = 522;
},
{
layerId = "9AF1F7D9-E035-453E-B2A8-46DE370997D0";
paths = (
{
closed = 1;
nodes = (
"4 -112 LINE",
"134 226 LINE",
"73 226 LINE",
"-37 -112 LINE"
);
}
);
width = 362;
}
);
leftKerningGroup = period;
rightKerningGroup = period;
unicode = 002C;
},
{
glyphname = colon;
lastChange = "2020-01-28 10:10:21 +0000";
layers = (
{
layerId = "10BC12B3-5274-42E3-B5BC-F74F362F0DF4";
paths = (
{
closed = 1;
nodes = (
"278 700 OFFCURVE",
"339 758 OFFCURVE",
"344 832 CURVE SMOOTH",
"363 924 OFFCURVE",
"304 1000 OFFCURVE",
"213 1000 CURVE SMOOTH",
"138 1000 OFFCURVE",
"79 940 OFFCURVE",
"74 869 CURVE SMOOTH",
"55 774 OFFCURVE",
"112 700 OFFCURVE",
"205 700 CURVE SMOOTH"
);
},
{
closed = 1;
nodes = (
"176 -26 OFFCURVE",
"238 32 OFFCURVE",
"242 106 CURVE SMOOTH",
"261 198 OFFCURVE",
"202 274 OFFCURVE",
"111 274 CURVE SMOOTH",
"36 274 OFFCURVE",
"-23 214 OFFCURVE",
"-28 143 CURVE SMOOTH",
"-47 48 OFFCURVE",
"10 -26 OFFCURVE",
"103 -26 CURVE SMOOTH"
);
}
);
width = 460;
},
{
layerId = "9AF1F7D9-E035-453E-B2A8-46DE370997D0";
paths = (
{
closed = 1;
nodes = (
"179 910 OFFCURVE",
"200 928 OFFCURVE",
"203 953 CURVE SMOOTH",
"207 978 OFFCURVE",
"188 1000 OFFCURVE",
"161 1000 CURVE SMOOTH",
"138 1000 OFFCURVE",
"117 982 OFFCURVE",
"114 959 CURVE SMOOTH",
"110 932 OFFCURVE",
"129 910 OFFCURVE",
"155 910 CURVE SMOOTH"
);
},
{
closed = 1;
nodes = (
"47 -26 OFFCURVE",
"68 -8 OFFCURVE",
"72 17 CURVE SMOOTH",
"75 42 OFFCURVE",
"57 64 OFFCURVE",
"29 64 CURVE SMOOTH",
"7 64 OFFCURVE",
"-14 46 OFFCURVE",
"-17 23 CURVE SMOOTH",
"-21 -4 OFFCURVE",
"-3 -26 OFFCURVE",
"23 -26 CURVE SMOOTH"
);
}
);
width = 330;
}
);
leftKerningGroup = colon;
rightKerningGroup = colon;
unicode = 003A;
},
{
glyphname = semicolon;
lastChange = "2020-01-28 10:10:21 +0000";
layers = (
{
layerId = "10BC12B3-5274-42E3-B5BC-F74F362F0DF4";
paths = (
{
closed = 1;
nodes = (
"127 -112 LINE",
"335 226 LINE",
"34 226 LINE",
"-76 -112 LINE"
);
},
{
closed = 1;
nodes = (
"340 700 OFFCURVE",
"401 758 OFFCURVE",
"406 832 CURVE SMOOTH",
"425 924 OFFCURVE",
"366 1000 OFFCURVE",
"275 1000 CURVE SMOOTH",
"200 1000 OFFCURVE",
"141 940 OFFCURVE",
"136 869 CURVE SMOOTH",
"117 774 OFFCURVE",
"174 700 OFFCURVE",
"267 700 CURVE SMOOTH"
);
}
);
width = 522;
},
{
layerId = "9AF1F7D9-E035-453E-B2A8-46DE370997D0";
paths = (
{
closed = 1;
nodes = (
"-24 -112 LINE",
"106 226 LINE",
"45 226 LINE",
"-65 -112 LINE"
);
},
{
closed = 1;
nodes = (
"195 910 OFFCURVE",
"216 928 OFFCURVE",
"219 951 CURVE SMOOTH",
"223 978 OFFCURVE",
"204 1000 OFFCURVE",
"179 1000 CURVE SMOOTH",
"154 1000 OFFCURVE",
"133 982 OFFCURVE",
"130 957 CURVE SMOOTH",
"126 932 OFFCURVE",
"145 910 OFFCURVE",
"173 910 CURVE SMOOTH"
);
}
);
width = 362;
}
);
leftKerningGroup = colon;
rightKerningGroup = colon;
unicode = 003B;
},
{
glyphname = exclam;
lastChange = "2020-01-28 10:10:21 +0000";
layers = (
{
layerId = "10BC12B3-5274-42E3-B5BC-F74F362F0DF4";
paths = (
{
closed = 1;
nodes = (
"269 420 LINE",
"407 1400 LINE",
"162 1400 LINE",
"24 420 LINE"
);
},
{
closed = 1;
nodes = (
"176 -26 OFFCURVE",
"236 32 OFFCURVE",
"240 108 CURVE SMOOTH",
"259 200 OFFCURVE",
"202 274 OFFCURVE",
"111 274 CURVE SMOOTH",
"36 274 OFFCURVE",
"-24 216 OFFCURVE",
"-27 144 CURVE SMOOTH",
"-47 48 OFFCURVE",
"10 -26 OFFCURVE",
"103 -26 CURVE SMOOTH"
);
}
);
width = 458;
},
{
layerId = "9AF1F7D9-E035-453E-B2A8-46DE370997D0";
paths = (
{
closed = 1;
nodes = (
"74 420 LINE",
"212 1400 LINE",
"152 1400 LINE",
"14 420 LINE"
);
},
{
closed = 1;
nodes = (
"7 -26 OFFCURVE",
"28 -8 OFFCURVE",
"32 17 CURVE SMOOTH",
"35 42 OFFCURVE",
"17 64 OFFCURVE",
"-9 64 CURVE SMOOTH",
"-33 64 OFFCURVE",
"-54 46 OFFCURVE",
"-57 23 CURVE SMOOTH",
"-61 -4 OFFCURVE",
"-43 -26 OFFCURVE",
"-15 -26 CURVE SMOOTH"
);
}
);
width = 250;
}
);
leftKerningGroup = exclam;
rightKerningGroup = exclam;
unicode = 0021;
},
{
glyphname = exclamdown;
lastChange = "2020-01-28 10:10:21 +0000";
layers = (
{
layerId = "10BC12B3-5274-42E3-B5BC-F74F362F0DF4";
paths = (
{
closed = 1;
nodes = (
"141 1026 OFFCURVE",
"83 968 OFFCURVE",
"78 893 CURVE",
"58 800 OFFCURVE",
"116 726 OFFCURVE",
"206 726 CURVE",
"282 726 OFFCURVE",
"342 784 OFFCURVE",
"346 856 CURVE",
"365 952 OFFCURVE",
"307 1026 OFFCURVE",
"215 1026 CURVE"
);
},
{
closed = 1;
nodes = (
"48 580 LINE",
"-90 -400 LINE",
"155 -400 LINE",
"292 580 LINE"
);
}
);
width = 458;
},
{
layerId = "9AF1F7D9-E035-453E-B2A8-46DE370997D0";
paths = (
{
closed = 1;
nodes = (
"142 1026 OFFCURVE",
"121 1008 OFFCURVE",
"118 983 CURVE",
"114 958 OFFCURVE",
"133 936 OFFCURVE",
"158 936 CURVE",
"183 936 OFFCURVE",
"204 954 OFFCURVE",
"207 977 CURVE",
"211 1004 OFFCURVE",
"192 1026 OFFCURVE",
"164 1026 CURVE"
);
},
{
closed = 1;
nodes = (
"75 580 LINE",
"-63 -400 LINE",
"-3 -400 LINE",
"135 580 LINE"
);
}
);
width = 330;
}
);
leftKerningGroup = exclamdown;
rightKerningGroup = exclamdown;
unicode = 00A1;
},
{
glyphname = question;
lastChange = "2020-01-28 10:10:21 +0000";
layers = (
{
layerId = "10BC12B3-5274-42E3-B5BC-F74F362F0DF4";
paths = (
{
closed = 1;
nodes = (
"636 400 LINE",
"642 441 OFFCURVE",
"687 489 OFFCURVE",
"738 506 CURVE SMOOTH",
"898 595 OFFCURVE",
"1004 756 OFFCURVE",
"1022 928 CURVE SMOOTH",
"1066 1202 OFFCURVE",
"879 1426 OFFCURVE",
"605 1426 CURVE SMOOTH",
"347 1426 OFFCURVE",
"117 1218 OFFCURVE",
"80 954 CURVE",
"365 938 LINE",
"379 1038 OFFCURVE",
"488 1126 OFFCURVE",
"596 1126 CURVE SMOOTH",
"688 1126 OFFCURVE",
"759 1054 OFFCURVE",
"751 965 CURVE SMOOTH",
"734 882 OFFCURVE",
"678 818 OFFCURVE",
"614 793 CURVE SMOOTH",
"466 711 OFFCURVE",
"373 574 OFFCURVE",
"348 400 CURVE"
);
},
{
closed = 1;
nodes = (
"538 -26 OFFCURVE",
"598 32 OFFCURVE",
"602 108 CURVE SMOOTH",
"621 200 OFFCURVE",
"564 274 OFFCURVE",
"473 274 CURVE SMOOTH",
"398 274 OFFCURVE",
"338 216 OFFCURVE",
"335 144 CURVE SMOOTH",
"315 48 OFFCURVE",
"372 -26 OFFCURVE",
"465 -26 CURVE SMOOTH"
);
}
);
width = 1124;
},
{
layerId = "9AF1F7D9-E035-453E-B2A8-46DE370997D0";
paths = (
{
closed = 1;
nodes = (
"417 522 LINE",
"430 616 OFFCURVE",
"494 700 OFFCURVE",
"585 744 CURVE SMOOTH",
"706 807 OFFCURVE",
"792 928 OFFCURVE",
"811 1063 CURVE SMOOTH",
"839 1264 OFFCURVE",
"698 1428 OFFCURVE",
"497 1428 CURVE SMOOTH",
"300 1428 OFFCURVE",
"118 1268 OFFCURVE",
"90 1068 CURVE",
"149 1064 LINE",
"173 1232 OFFCURVE",
"327 1368 OFFCURVE",
"495 1368 CURVE SMOOTH",
"659 1368 OFFCURVE",
"775 1236 OFFCURVE",
"752 1069 CURVE SMOOTH",
"735 954 OFFCURVE",
"662 851 OFFCURVE",
"559 802 CURVE SMOOTH",
"448 744 OFFCURVE",
"374 640 OFFCURVE",
"357 522 CURVE"
);
},
{
closed = 1;
nodes = (
"323 -26 OFFCURVE",
"345 -6 OFFCURVE",
"348 17 CURVE SMOOTH",
"351 42 OFFCURVE",
"333 64 OFFCURVE",
"305 64 CURVE SMOOTH",
"283 64 OFFCURVE",
"262 46 OFFCURVE",
"259 23 CURVE SMOOTH",
"255 -2 OFFCURVE",
"273 -26 OFFCURVE",
"299 -26 CURVE SMOOTH"
);
}
);
width = 882;
}
);
leftKerningGroup = question;
rightKerningGroup = question;
unicode = 003F;
},
{
glyphname = questiondown;
lastChange = "2020-01-28 10:10:21 +0000";
layers = (
{
layerId = "10BC12B3-5274-42E3-B5BC-F74F362F0DF4";
paths = (
{
closed = 1;
nodes = (
"636 -426 OFFCURVE",
"867 -218 OFFCURVE",
"904 46 CURVE",
"618 62 LINE",
"604 -38 OFFCURVE",
"495 -126 OFFCURVE",
"387 -126 CURVE SMOOTH",
"295 -126 OFFCURVE",
"226 -54 OFFCURVE",
"232 36 CURVE SMOOTH",
"250 118 OFFCURVE",
"305 182 OFFCURVE",
"369 207 CURVE SMOOTH",
"518 290 OFFCURVE",
"612 429 OFFCURVE",
"636 600 CURVE",
"348 604 LINE SMOOTH",
"342 556 OFFCURVE",
"295 510 OFFCURVE",
"246 494 CURVE SMOOTH",
"85 405 OFFCURVE",
"-20 244 OFFCURVE",
"-39 72 CURVE SMOOTH",
"-82 -202 OFFCURVE",
"104 -426 OFFCURVE",
"378 -426 CURVE SMOOTH"
);
},
{
closed = 1;
nodes = (
"586 726 OFFCURVE",
"646 784 OFFCURVE",
"650 856 CURVE SMOOTH",
"669 952 OFFCURVE",
"611 1026 OFFCURVE",
"519 1026 CURVE SMOOTH",
"445 1026 OFFCURVE",
"387 968 OFFCURVE",
"382 893 CURVE SMOOTH",
"362 800 OFFCURVE",
"420 726 OFFCURVE",
"510 726 CURVE SMOOTH"
);
}
);
width = 1124;
},
{
layerId = "9AF1F7D9-E035-453E-B2A8-46DE370997D0";
paths = (
{
closed = 1;
nodes = (
"483 -428 OFFCURVE",
"666 -268 OFFCURVE",
"694 -68 CURVE",
"634 -64 LINE",
"611 -230 OFFCURVE",
"454 -368 OFFCURVE",
"286 -368 CURVE SMOOTH",
"122 -368 OFFCURVE",
"7 -234 OFFCURVE",
"30 -69 CURVE SMOOTH",
"46 46 OFFCURVE",
"120 149 OFFCURVE",
"223 200 CURVE SMOOTH",
"333 259 OFFCURVE",
"408 363 OFFCURVE",
"425 480 CURVE",
"365 480 LINE",
"352 386 OFFCURVE",
"287 299 OFFCURVE",
"196 256 CURVE SMOOTH",
"75 195 OFFCURVE",
"-10 72 OFFCURVE",
"-29 -63 CURVE SMOOTH",
"-58 -264 OFFCURVE",
"83 -428 OFFCURVE",
"285 -428 CURVE SMOOTH"
);
},
{
closed = 1;
nodes = (
"499 936 OFFCURVE",
"520 954 OFFCURVE",
"523 977 CURVE SMOOTH",
"527 1004 OFFCURVE",
"508 1026 OFFCURVE",
"482 1026 CURVE SMOOTH",
"458 1026 OFFCURVE",
"437 1008 OFFCURVE",
"434 983 CURVE SMOOTH",
"430 958 OFFCURVE",
"449 936 OFFCURVE",
"476 936 CURVE SMOOTH"
);
}
);
width = 924;
}
);
leftKerningGroup = questiondown;
rightKerningGroup = questiondown;
unicode = 00BF;
},
{
glyphname = periodcentered;
lastChange = "2020-01-28 10:10:21 +0000";
layers = (
{
layerId = "10BC12B3-5274-42E3-B5BC-F74F362F0DF4";
paths = (
{
closed = 1;
nodes = (
"229 350 OFFCURVE",
"290 408 OFFCURVE",
"294 482 CURVE SMOOTH",
"313 574 OFFCURVE",
"254 650 OFFCURVE",
"164 650 CURVE SMOOTH",
"88 650 OFFCURVE",
"28 590 OFFCURVE",
"25 518 CURVE SMOOTH",
"5 424 OFFCURVE",
"63 350 OFFCURVE",
"155 350 CURVE SMOOTH"
);
}
);
width = 460;
},
{
layerId = "9AF1F7D9-E035-453E-B2A8-46DE370997D0";
paths = (
{
closed = 1;
nodes = (
"115 454 OFFCURVE",
"136 472 OFFCURVE",
"139 497 CURVE SMOOTH",
"143 522 OFFCURVE",
"124 544 OFFCURVE",
"97 544 CURVE SMOOTH",
"74 544 OFFCURVE",
"53 526 OFFCURVE",
"50 503 CURVE SMOOTH",
"46 476 OFFCURVE",
"65 454 OFFCURVE",
"91 454 CURVE SMOOTH"
);
}
);
width = 330;
}
);
rightKerningGroup = anoteleia;
unicode = 00B7;
},
{
glyphname = bullet;
lastChange = "2020-01-28 10:10:21 +0000";
layers = (
{
layerId = "10BC12B3-5274-42E3-B5BC-F74F362F0DF4";
paths = (
{
closed = 1;
nodes = (
"300 300 OFFCURVE",
"386 380 OFFCURVE",
"395 482 CURVE SMOOTH",
"418 602 OFFCURVE",
"339 700 OFFCURVE",
"221 700 CURVE SMOOTH",
"117 700 OFFCURVE",
"32 618 OFFCURVE",
"25 518 CURVE SMOOTH",
"1 396 OFFCURVE",
"78 300 OFFCURVE",
"198 300 CURVE SMOOTH"
);
}
);
width = 560;
},
{
layerId = "9AF1F7D9-E035-453E-B2A8-46DE370997D0";
paths = (
{
closed = 1;
nodes = (
"177 440 OFFCURVE",
"205 464 OFFCURVE",
"210 499 CURVE SMOOTH",
"214 532 OFFCURVE",
"190 560 OFFCURVE",
"153 560 CURVE SMOOTH",
"122 560 OFFCURVE",
"95 536 OFFCURVE",
"90 505 CURVE SMOOTH",
"85 468 OFFCURVE",
"109 440 OFFCURVE",
"143 440 CURVE SMOOTH"
);
}
);
width = 440;
}
);
rightKerningGroup = bullet;
unicode = 2022;
},
{
glyphname = asterisk;
lastChange = "2020-01-28 10:10:21 +0000";
layers = (
{
layerId = "10BC12B3-5274-42E3-B5BC-F74F362F0DF4";
paths = (
{
closed = 1;
nodes = (
"382 946 LINE",
"450 826 LINE",
"621 944 LINE",
"548 1064 LINE",
"695 1108 LINE",
"658 1300 LINE",
"514 1254 LINE",
"535 1400 LINE",
"341 1400 LINE",
"320 1254 LINE",
"180 1300 LINE",
"95 1108 LINE",
"225 1064 LINE",
"122 944 LINE",
"275 826 LINE"
);
}
);
width = 764;
},
{
layerId = "9AF1F7D9-E035-453E-B2A8-46DE370997D0";
paths = (
{
closed = 1;
nodes = (
"370 1064 LINE",
"484 866 LINE",
"538 902 LINE",
"421 1098 LINE",
"664 1174 LINE",
"654 1230 LINE",
"412 1156 LINE",
"446 1400 LINE",
"386 1400 LINE",
"352 1156 LINE",
"130 1230 LINE",
"104 1174 LINE",
"323 1098 LINE",
"154 902 LINE",
"198 866 LINE"
);
}
);
width = 720;
}
);
rightKerningGroup = asterisk;
unicode = 002A;
},
{
glyphname = numbersign;
lastChange = "2020-01-28 10:10:21 +0000";
layers = (
{
layerId = "10BC12B3-5274-42E3-B5BC-F74F362F0DF4";
paths = (
{
closed = 1;
nodes = (
"1547 1140 LINE",
"1399 1140 LINE",
"1503 1400 LINE",
"1201 1400 LINE",
"1097 1140 LINE",
"785 1140 LINE",
"891 1400 LINE",
"589 1400 LINE",
"483 1140 LINE",
"335 1140 LINE",
"216 850 LINE",
"366 850 LINE",
"242 550 LINE",
"94 550 LINE",
"-25 260 LINE",
"123 260 LINE",
"19 0 LINE",
"320 0 LINE",
"425 260 LINE",
"737 260 LINE",
"630 0 LINE",
"932 0 LINE",
"1039 260 LINE",
"1187 260 LINE",
"1306 550 LINE",
"1156 550 LINE",
"1280 850 LINE",
"1428 850 LINE"
);
},
{
closed = 1;
nodes = (
"544 550 LINE",
"668 850 LINE",
"978 850 LINE",
"854 550 LINE"
);
}
);
width = 1606;
},
{
layerId = "9AF1F7D9-E035-453E-B2A8-46DE370997D0";
paths = (
{
closed = 1;
nodes = (
"1388 1026 LINE",
"1160 1026 LINE",
"1313 1400 LINE",
"1252 1400 LINE",
"1099 1026 LINE",
"548 1026 LINE",
"701 1400 LINE",
"640 1400 LINE",
"487 1026 LINE",
"257 1026 LINE",
"233 968 LINE",
"463 968 LINE",
"244 434 LINE",
"16 434 LINE",
"-8 376 LINE",
"222 376 LINE",
"67 0 LINE",
"128 0 LINE",
"283 376 LINE",
"834 376 LINE",
"679 0 LINE",
"740 0 LINE",
"895 376 LINE",
"1123 376 LINE",
"1147 434 LINE",
"917 434 LINE",
"1136 968 LINE",
"1364 968 LINE"
);
},
{
closed = 1;
nodes = (
"305 434 LINE",
"524 968 LINE",
"1075 968 LINE",
"856 434 LINE"
);
}
);
width = 1464;
}
);
rightKerningGroup = numbersign;
unicode = 0023;
},
{
glyphname = slash;
lastChange = "2020-01-28 10:10:21 +0000";
layers = (
{
layerId = "10BC12B3-5274-42E3-B5BC-F74F362F0DF4";
paths = (
{
closed = 1;
nodes = (
"541 1400 LINE",
"-76 -112 LINE",
"224 -112 LINE",
"843 1400 LINE"
);
}
);
width = 866;
},
{
layerId = "9AF1F7D9-E035-453E-B2A8-46DE370997D0";
paths = (
{
closed = 1;
nodes = (
"580 1400 LINE",
"-37 -112 LINE",
"24 -112 LINE",
"641 1400 LINE"
);
}
);
width = 704;
}
);
rightKerningGroup = slash;
unicode = 002F;
},
{
glyphname = backslash;
lastChange = "2020-01-28 10:10:21 +0000";
layers = (
{
layerId = "10BC12B3-5274-42E3-B5BC-F74F362F0DF4";
paths = (
{
closed = 1;
nodes = (
"624 -112 LINE",
"431 1400 LINE",
"141 1400 LINE",
"333 -112 LINE"
);
}
);
width = 864;
},
{
layerId = "9AF1F7D9-E035-453E-B2A8-46DE370997D0";
paths = (
{
closed = 1;
nodes = (
"429 -112 LINE",
"236 1400 LINE",
"177 1400 LINE",
"370 -112 LINE"
);
}
);
width = 646;
}
);
rightKerningGroup = backslash;
unicode = 005C;
},
{
glyphname = parenleft;
lastChange = "2020-01-28 10:10:21 +0000";
layers = (
{
layerId = "10BC12B3-5274-42E3-B5BC-F74F362F0DF4";
paths = (
{
closed = 1;
nodes = (
"512 -116 LINE",
"403 36 OFFCURVE",
"279 324 OFFCURVE",
"316 626 CURVE SMOOTH",
"356 874 OFFCURVE",
"611 1334 OFFCURVE",
"742 1396 CURVE",
"430 1403 LINE",
"257 1343 OFFCURVE",
"69 880 OFFCURVE",
"44 662 CURVE SMOOTH",
"-8 334 OFFCURVE",
"54 103 OFFCURVE",
"234 -107 CURVE"
);
}
);
width = 760;
},
{
layerId = "9AF1F7D9-E035-453E-B2A8-46DE370997D0";
paths = (
{
closed = 1;
nodes = (
"296 -113 LINE",
"138 85 OFFCURVE",
"97 326 OFFCURVE",
"129 641 CURVE",
"185 952 OFFCURVE",
"289 1187 OFFCURVE",
"511 1399 CURVE",
"449 1401 LINE",
"229 1227 OFFCURVE",
"111 934 OFFCURVE",
"70 647 CURVE SMOOTH",
"31 366 OFFCURVE",
"66 67 OFFCURVE",
"239 -111 CURVE"
);
}
);
width = 496;
}
);
rightKerningGroup = parenleft;
unicode = 0028;
},
{
glyphname = parenright;
lastChange = "2020-01-28 10:10:21 +0000";
layers = (
{
layerId = "10BC12B3-5274-42E3-B5BC-F74F362F0DF4";
paths = (
{
closed = 1;
nodes = (
"227 -119 LINE",
"466 91 OFFCURVE",
"578 318 OFFCURVE",
"616 626 CURVE SMOOTH",
"655 864 OFFCURVE",
"583 1337 OFFCURVE",
"427 1397 CURVE",
"146 1403 LINE",
"259 1341 OFFCURVE",
"371 890 OFFCURVE",
"344 662 CURVE SMOOTH",
"293 340 OFFCURVE",
"76 47 OFFCURVE",
"-78 -105 CURVE"
);
}
);
width = 760;
},
{
layerId = "9AF1F7D9-E035-453E-B2A8-46DE370997D0";
paths = (
{
closed = 1;
nodes = (
"-53 -113 LINE",
"170 65 OFFCURVE",
"286 362 OFFCURVE",
"325 641 CURVE SMOOTH",
"366 930 OFFCURVE",
"328 1225 OFFCURVE",
"157 1399 CURVE",
"100 1401 LINE",
"262 1189 OFFCURVE",
"298 956 OFFCURVE",
"266 647 CURVE",
"210 330 OFFCURVE",
"99 87 OFFCURVE",
"-115 -111 CURVE"
);
}
);
width = 496;
}
);
rightKerningGroup = parenright;
unicode = 0029;
},
{
glyphname = braceleft;
lastChange = "2020-01-28 10:10:21 +0000";
layers = (
{
layerId = "10BC12B3-5274-42E3-B5BC-F74F362F0DF4";
paths = (
{
closed = 1;
nodes = (
"571 -112 LINE",
"613 188 LINE",
"482 188 LINE SMOOTH",
"454 188 OFFCURVE",
"436 202 OFFCURVE",
"440 230 CURVE SMOOTH",
"471 486 LINE SMOOTH",
"479 550 OFFCURVE",
"405 576 OFFCURVE",
"407 625 CURVE SMOOTH",
"421 690 OFFCURVE",
"507 724 OFFCURVE",
"518 786 CURVE SMOOTH",
"550 1042 LINE SMOOTH",
"558 1070 OFFCURVE",
"598 1100 OFFCURVE",
"626 1100 CURVE SMOOTH",
"741 1100 LINE",
"783 1400 LINE",
"652 1400 LINE SMOOTH",
"458 1400 OFFCURVE",
"294 1250 OFFCURVE",
"268 1058 CURVE SMOOTH",
"237 812 LINE SMOOTH",
"227 758 OFFCURVE",
"88 728 OFFCURVE",
"85 662 CURVE SMOOTH",
"66 568 OFFCURVE",
"197 554 OFFCURVE",
"188 490 CURVE SMOOTH",
"157 246 LINE SMOOTH",
"127 52 OFFCURVE",
"262 -112 OFFCURVE",
"456 -112 CURVE SMOOTH"
);
}
);
width = 830;
},
{
layerId = "9AF1F7D9-E035-453E-B2A8-46DE370997D0";
paths = (
{
closed = 1;
nodes = (
"533 -114 LINE",
"542 -54 LINE",
"492 -54 LINE",
"332 -54 OFFCURVE",
"222 74 OFFCURVE",
"244 234 CURVE",
"279 482 LINE",
"287 568 OFFCURVE",
"267 573 OFFCURVE",
"161 640 CURVE",
"284 707 OFFCURVE",
"308 714 OFFCURVE",
"324 800 CURVE",
"359 1048 LINE",
"381 1208 OFFCURVE",
"533 1340 OFFCURVE",
"691 1340 CURVE",
"738 1340 LINE",
"746 1400 LINE",
"697 1400 LINE",
"503 1400 OFFCURVE",
"326 1244 OFFCURVE",
"299 1052 CURVE",
"265 806 LINE",
"245 706 OFFCURVE",
"83 736 OFFCURVE",
"70 645 CURVE",
"58 560 OFFCURVE",
"228 584 OFFCURVE",
"220 484 CURVE",
"185 238 LINE",
"158 46 OFFCURVE",
"293 -114 OFFCURVE",
"487 -114 CURVE"
);
}
);
width = 790;
}
);
rightKerningGroup = braceleft;
unicode = 007B;
},
{
glyphname = braceright;
lastChange = "2020-01-28 10:10:21 +0000";
layers = (
{
layerId = "10BC12B3-5274-42E3-B5BC-F74F362F0DF4";
paths = (
{
closed = 1;
nodes = (
"78 -112 LINE SMOOTH",
"272 -112 OFFCURVE",
"434 36 OFFCURVE",
"462 230 CURVE SMOOTH",
"493 474 LINE SMOOTH",
"505 538 OFFCURVE",
"641 552 OFFCURVE",
"645 626 CURVE SMOOTH",
"662 712 OFFCURVE",
"534 742 OFFCURVE",
"541 796 CURVE SMOOTH",
"573 1042 LINE SMOOTH",
"603 1234 OFFCURVE",
"468 1400 OFFCURVE",
"274 1400 CURVE SMOOTH",
"158 1400 LINE",
"116 1100 LINE",
"248 1100 LINE SMOOTH",
"276 1100 OFFCURVE",
"294 1086 OFFCURVE",
"290 1058 CURVE SMOOTH",
"259 802 LINE",
"250 740 OFFCURVE",
"323 706 OFFCURVE",
"323 663 CURVE SMOOTH",
"308 592 OFFCURVE",
"224 566 OFFCURVE",
"212 502 CURVE",
"179 246 LINE SMOOTH",
"173 218 OFFCURVE",
"132 188 OFFCURVE",
"104 188 CURVE SMOOTH",
"-12 188 LINE",
"-53 -112 LINE"
);
}
);
width = 830;
},
{
layerId = "9AF1F7D9-E035-453E-B2A8-46DE370997D0";
paths = (
{
closed = 1;
nodes = (
"-7 -114 LINE SMOOTH",
"187 -114 OFFCURVE",
"363 42 OFFCURVE",
"390 234 CURVE SMOOTH",
"425 480 LINE",
"445 580 OFFCURVE",
"608 556 OFFCURVE",
"619 639 CURVE SMOOTH",
"632 732 OFFCURVE",
"462 702 OFFCURVE",
"470 802 CURVE",
"505 1048 LINE SMOOTH",
"532 1240 OFFCURVE",
"397 1400 OFFCURVE",
"203 1400 CURVE SMOOTH",
"156 1400 LINE",
"148 1340 LINE",
"197 1340 LINE SMOOTH",
"355 1340 OFFCURVE",
"468 1212 OFFCURVE",
"445 1052 CURVE SMOOTH",
"410 804 LINE SMOOTH",
"402 718 OFFCURVE",
"427 709 OFFCURVE",
"528 644 CURVE",
"401 575 OFFCURVE",
"382 572 OFFCURVE",
"366 486 CURVE SMOOTH",
"331 238 LINE SMOOTH",
"308 78 OFFCURVE",
"158 -54 OFFCURVE",
"-2 -54 CURVE SMOOTH",
"-48 -54 LINE",
"-57 -114 LINE"
);
}
);
width = 790;
}
);
rightKerningGroup = braceright;
unicode = 007D;
},
{
glyphname = bracketleft;
lastChange = "2020-01-28 10:10:21 +0000";
layers = (
{
layerId = "10BC12B3-5274-42E3-B5BC-F74F362F0DF4";
paths = (
{
closed = 1;
nodes = (
"283 188 LINE",
"411 1100 LINE",
"587 1100 LINE",
"629 1400 LINE",
"158 1400 LINE",
"-53 -112 LINE",
"417 -112 LINE",
"459 188 LINE"
);
}
);
width = 656;
},
{
layerId = "9AF1F7D9-E035-453E-B2A8-46DE370997D0";
paths = (
{
closed = 1;
nodes = (
"12 -52 LINE",
"208 1340 LINE",
"388 1340 LINE",
"396 1400 LINE",
"156 1400 LINE",
"-56 -112 LINE",
"184 -112 LINE",
"192 -52 LINE"
);
}
);
width = 420;
}
);
rightKerningGroup = bracketleft;
unicode = 005B;
},
{
glyphname = bracketright;
lastChange = "2020-01-28 10:10:21 +0000";
layers = (
{
layerId = "10BC12B3-5274-42E3-B5BC-F74F362F0DF4";
paths = (
{
closed = 1;
nodes = (
"399 -112 LINE",
"611 1400 LINE",
"138 1400 LINE",
"96 1100 LINE",
"274 1100 LINE",
"146 188 LINE",
"-32 188 LINE",
"-73 -112 LINE"
);
}
);
width = 658;
},
{
layerId = "9AF1F7D9-E035-453E-B2A8-46DE370997D0";
paths = (
{
closed = 1;
nodes = (
"164 -112 LINE",
"376 1400 LINE",
"136 1400 LINE",
"128 1340 LINE",
"308 1340 LINE",
"112 -52 LINE",
"-68 -52 LINE",
"-76 -112 LINE"
);
}
);
width = 420;
}
);
rightKerningGroup = bracketright;
unicode = 005D;
},
{
glyphname = hyphen;
lastChange = "2020-01-28 10:10:21 +0000";
layers = (
{
layerId = "10BC12B3-5274-42E3-B5BC-F74F362F0DF4";
paths = (
{
closed = 1;
nodes = (
"32 350 LINE",
"667 350 LINE",
"709 650 LINE",
"74 650 LINE"
);
}
);
width = 880;
},
{
layerId = "9AF1F7D9-E035-453E-B2A8-46DE370997D0";
paths = (
{
closed = 1;
nodes = (
"6 470 LINE",
"646 470 LINE",
"654 530 LINE",
"14 530 LINE"
);
}
);
width = 800;
}
);
rightKerningGroup = hyphen;
unicode = 002D;
},
{
glyphname = endash;
lastChange = "2020-01-28 10:10:21 +0000";
layers = (
{
layerId = "10BC12B3-5274-42E3-B5BC-F74F362F0DF4";
paths = (
{
closed = 1;
nodes = (
"32 350 LINE",
"1027 350 LINE",
"1069 650 LINE",
"74 650 LINE"
);
}
);
width = 1240;
},
{
layerId = "9AF1F7D9-E035-453E-B2A8-46DE370997D0";
paths = (
{
closed = 1;
nodes = (
"46 470 LINE",
"1046 470 LINE",
"1054 530 LINE",
"54 530 LINE"
);
}
);
width = 1240;
}
);
rightKerningGroup = hyphen;
unicode = 2013;
},
{
glyphname = emdash;
lastChange = "2020-01-28 10:10:21 +0000";
layers = (
{
layerId = "10BC12B3-5274-42E3-B5BC-F74F362F0DF4";
paths = (
{
closed = 1;
nodes = (
"32 350 LINE",
"1827 350 LINE",
"1869 650 LINE",
"74 650 LINE"
);
}
);
width = 2040;
},
{
layerId = "9AF1F7D9-E035-453E-B2A8-46DE370997D0";
paths = (
{
closed = 1;
nodes = (
"46 470 LINE",
"1846 470 LINE",
"1854 530 LINE",
"54 530 LINE"
);
}
);
width = 2040;
}
);
rightKerningGroup = hyphen;
unicode = 2014;
},
{
glyphname = underscore;
lastChange = "2020-01-28 10:10:21 +0000";
layers = (
{
layerId = "10BC12B3-5274-42E3-B5BC-F74F362F0DF4";
paths = (
{
closed = 1;
nodes = (
"-33 -112 LINE",
"961 -112 LINE",
"1003 188 LINE",
"8 188 LINE"
);
}
);
width = 1240;
},
{
layerId = "9AF1F7D9-E035-453E-B2A8-46DE370997D0";
paths = (
{
closed = 1;
nodes = (
"-36 -112 LINE",
"964 -112 LINE",
"972 -52 LINE",
"-28 -52 LINE"
);
}
);
width = 1200;
}
);
rightKerningGroup = underscore;
unicode = 005F;
},
{
glyphname = quoteleft;
lastChange = "2020-01-28 10:10:21 +0000";
layers = (
{
layerId = "10BC12B3-5274-42E3-B5BC-F74F362F0DF4";
paths = (
{
closed = 1;
nodes = (
"402 878 LINE",
"537 1400 LINE",
"337 1400 LINE",
"102 878 LINE"
);
}
);
width = 602;
},
{
layerId = "9AF1F7D9-E035-453E-B2A8-46DE370997D0";
paths = (
{
closed = 1;
nodes = (
"163 878 LINE",
"298 1400 LINE",
"258 1400 LINE",
"103 878 LINE"
);
}
);
width = 362;
}
);
rightKerningGroup = quotedblleft;
unicode = "2018,02BB";
},
{
glyphname = quoteright;
lastChange = "2020-01-28 10:10:21 +0000";
layers = (
{
layerId = "10BC12B3-5274-42E3-B5BC-F74F362F0DF4";
paths = (
{
closed = 1;
nodes = (
"304 878 LINE",
"539 1400 LINE",
"239 1400 LINE",
"104 878 LINE"
);
}
);
width = 602;
},
{
layerId = "9AF1F7D9-E035-453E-B2A8-46DE370997D0";
paths = (
{
closed = 1;
nodes = (
"143 878 LINE",
"298 1400 LINE",
"238 1400 LINE",
"103 878 LINE"
);
}
);
width = 362;
}
);
rightKerningGroup = quotedblleft;
unicode = "2019,2032";
},
{
glyphname = guilsinglleft;
lastChange = "2020-01-28 10:10:21 +0000";
layers = (
{
layerId = "10BC12B3-5274-42E3-B5BC-F74F362F0DF4";
paths = (
{
closed = 1;
nodes = (
"599 162 LINE",
"353 502 LINE",
"701 840 LINE",
"393 840 LINE",
"50 502 LINE",
"305 162 LINE"
);
}
);
width = 840;
},
{
layerId = "9AF1F7D9-E035-453E-B2A8-46DE370997D0";
paths = (
{
closed = 1;
nodes = (
"382 162 LINE",
"130 502 LINE",
"478 840 LINE",
"397 840 LINE",
"50 502 LINE",
"303 162 LINE"
);
}
);
width = 620;
}
);
rightKerningGroup = guillemotleft;
unicode = 2039;
},
{
glyphname = guilsinglright;
lastChange = "2020-01-28 10:10:21 +0000";
layers = (
{
layerId = "10BC12B3-5274-42E3-B5BC-F74F362F0DF4";
paths = (
{
closed = 1;
nodes = (
"306 162 LINE",
"651 502 LINE",
"394 840 LINE",
"101 840 LINE",
"348 502 LINE",
"-1 162 LINE"
);
}
);
width = 840;
},
{
layerId = "9AF1F7D9-E035-453E-B2A8-46DE370997D0";
paths = (
{
closed = 1;
nodes = (
"83 162 LINE",
"430 502 LINE",
"177 840 LINE",
"98 840 LINE",
"350 502 LINE",
"2 162 LINE"
);
}
);
width = 620;
}
);
rightKerningGroup = guillemotright;
unicode = 203A;
},
{
glyphname = primeReversed;
lastChange = "2020-01-28 10:10:21 +0000";
layers = (
{
layerId = "10BC12B3-5274-42E3-B5BC-F74F362F0DF4";
paths = (
{
closed = 1;
nodes = (
"461 878 LINE",
"472 1400 LINE",
"180 1400 LINE",
"269 878 LINE"
);
}
);
width = 602;
},
{
layerId = "9AF1F7D9-E035-453E-B2A8-46DE370997D0";
paths = (
{
closed = 1;
nodes = (
"225 878 LINE",
"236 1400 LINE",
"176 1400 LINE",
"185 878 LINE"
);
}
);
width = 362;
}
);
rightKerningGroup = primeReversed;
unicode = 2035;
},
{
glyphname = quotesingle;
lastChange = "2020-01-28 10:10:21 +0000";
layers = (
{
layerId = "10BC12B3-5274-42E3-B5BC-F74F362F0DF4";
paths = (
{
closed = 1;
nodes = (
"300 878 LINE",
"373 1400 LINE",
"178 1400 LINE",
"106 878 LINE"
);
}
);
width = 440;
},
{
layerId = "9AF1F7D9-E035-453E-B2A8-46DE370997D0";
paths = (
{
closed = 1;
nodes = (
"163 878 LINE",
"236 1400 LINE",
"176 1400 LINE",
"103 878 LINE"
);
}
);
width = 300;
}
);
rightKerningGroup = quotesingle;
unicode = 0027;
},
{
glyphname = cent;
lastChange = "2020-01-28 10:10:21 +0000";
layers = (
{
layerId = "10BC12B3-5274-42E3-B5BC-F74F362F0DF4";
paths = (
{
closed = 1;
nodes = (
"538 0 LINE",
"576 206 LINE",
"723 234 OFFCURVE",
"844 314 OFFCURVE",
"933 432 CURVE",
"694 598 LINE",
"649 542 OFFCURVE",
"571 498 OFFCURVE",
"495 498 CURVE SMOOTH",
"393 498 OFFCURVE",
"315 582 OFFCURVE",
"323 684 CURVE SMOOTH",
"346 804 OFFCURVE",
"467 904 OFFCURVE",
"585 904 CURVE SMOOTH",
"645 904 OFFCURVE",
"706 874 OFFCURVE",
"736 818 CURVE",
"997 957 LINE",
"941 1075 OFFCURVE",
"836 1164 OFFCURVE",
"700 1192 CURVE",
"737 1400 LINE",
"541 1400 LINE",
"505 1196 LINE",
"268 1150 OFFCURVE",
"79 952 OFFCURVE",
"52 720 CURVE SMOOTH",
"11 466 OFFCURVE",
"159 258 OFFCURVE",
"379 210 CURVE",
"342 0 LINE"
);
}
);
width = 1092;
},
{
layerId = "9AF1F7D9-E035-453E-B2A8-46DE370997D0";
paths = (
{
closed = 1;
nodes = (
"467 0 LINE",
"497 200 LINE",
"668 208 OFFCURVE",
"831 301 OFFCURVE",
"934 439 CURVE",
"884 471 LINE",
"789 343 OFFCURVE",
"626 258 OFFCURVE",
"474 258 CURVE SMOOTH",
"238 258 OFFCURVE",
"63 450 OFFCURVE",
"98 699 CURVE SMOOTH",
"132 944 OFFCURVE",
"362 1144 OFFCURVE",
"606 1144 CURVE SMOOTH",
"754 1144 OFFCURVE",
"892 1061 OFFCURVE",
"952 933 CURVE",
"1006 961 LINE",
"941 1099 OFFCURVE",
"804 1194 OFFCURVE",
"635 1202 CURVE",
"664 1400 LINE",
"604 1400 LINE",
"575 1202 LINE",
"310 1184 OFFCURVE",
"76 970 OFFCURVE",
"39 705 CURVE SMOOTH",
"1 438 OFFCURVE",
"178 218 OFFCURVE",
"437 200 CURVE",
"407 0 LINE"
);
}
);
width = 1092;
}
);
leftKerningGroup = o;
rightKerningGroup = c;
unicode = 00A2;
},
{
glyphname = currency;
lastChange = "2020-01-28 10:10:21 +0000";
layers = (
{
layerId = "10BC12B3-5274-42E3-B5BC-F74F362F0DF4";
paths = (
{
closed = 1;
nodes = (
"278 389 LINE",
"377 327 OFFCURVE",
"501 320 OFFCURVE",
"620 378 CURVE",
"731 255 LINE",
"887 397 LINE",
"772 517 LINE",
"850 625 OFFCURVE",
"859 761 OFFCURVE",
"812 869 CURVE",
"973 1005 LINE",
"843 1145 LINE",
"687 1012 LINE",
"592 1068 OFFCURVE",
"463 1076 OFFCURVE",
"351 1018 CURVE",
"235 1145 LINE",
"80 1005 LINE",
"199 879 LINE",
"122 773 OFFCURVE",
"114 641 OFFCURVE",
"156 535 CURVE",
"-6 397 LINE",
"123 255 LINE"
);
},
{
closed = 1;
nodes = (
"367 537 OFFCURVE",
"306 603 OFFCURVE",
"310 681 CURVE SMOOTH",
"330 771 OFFCURVE",
"423 859 OFFCURVE",
"525 858 CURVE SMOOTH",
"598 855 OFFCURVE",
"665 803 OFFCURVE",
"659 717 CURVE SMOOTH",
"638 617 OFFCURVE",
"543 541 OFFCURVE",
"447 540 CURVE SMOOTH"
);
}
);
width = 1050;
},
{
layerId = "9AF1F7D9-E035-453E-B2A8-46DE370997D0";
paths = (
{
closed = 1;
nodes = (
"163 427 LINE SMOOTH",
"282 311 OFFCURVE",
"476 307 OFFCURVE",
"628 423 CURVE SMOOTH",
"731 304 LINE",
"778 346 LINE",
"677 465 LINE SMOOTH",
"809 599 OFFCURVE",
"834 797 OFFCURVE",
"739 931 CURVE SMOOTH",
"878 1054 LINE",
"840 1096 LINE",
"700 973 LINE SMOOTH",
"586 1083 OFFCURVE",
"386 1083 OFFCURVE",
"241 973 CURVE SMOOTH",
"134 1096 LINE",
"88 1054 LINE",
"192 931 LINE SMOOTH",
"60 797 OFFCURVE",
"35 603 OFFCURVE",
"126 469 CURVE SMOOTH",
"-12 346 LINE",
"25 304 LINE"
);
},
{
closed = 1;
nodes = (
"232 398 OFFCURVE",
"111 526 OFFCURVE",
"135 695 CURVE",
"159 862 OFFCURVE",
"311 996 OFFCURVE",
"479 996 CURVE",
"645 996 OFFCURVE",
"757 866 OFFCURVE",
"734 701 CURVE",
"710 534 OFFCURVE",
"554 398 OFFCURVE",
"388 398 CURVE"
);
}
);
width = 950;
}
);
leftKerningGroup = currency;
rightKerningGroup = currency;
unicode = 00A4;
},
{
glyphname = dollar;
lastChange = "2020-01-28 10:10:21 +0000";
layers = (
{
layerId = "10BC12B3-5274-42E3-B5BC-F74F362F0DF4";
paths = (
{
closed = 1;
nodes = (
"768 1124 OFFCURVE",
"861 1073 OFFCURVE",
"873 1015 CURVE",
"1151 1103 LINE",
"1113 1273 OFFCURVE",
"954 1391 OFFCURVE",
"762 1419 CURVE",
"798 1624 LINE",
"603 1624 LINE",
"566 1422 LINE",
"319 1386 OFFCURVE",
"119 1228 OFFCURVE",
"93 1006 CURVE",
"47 722 OFFCURVE",
"259 595 OFFCURVE",
"566 554 CURVE",
"668 535 OFFCURVE",
"780 504 OFFCURVE",
"776 430 CURVE",
"758 338 OFFCURVE",
"622 274 OFFCURVE",
"493 274 CURVE",
"372 274 OFFCURVE",
"279 327 OFFCURVE",
"267 385 CURVE",
"-12 295 LINE",
"27 127 OFFCURVE",
"183 10 OFFCURVE",
"377 -18 CURVE",
"342 -224 LINE",
"537 -224 LINE",
"573 -20 LINE",
"822 16 OFFCURVE",
"1022 174 OFFCURVE",
"1047 394 CURVE",
"1090 662 OFFCURVE",
"864 807 OFFCURVE",
"573 847 CURVE",
"459 867 OFFCURVE",
"356 872 OFFCURVE",
"364 970 CURVE",
"382 1058 OFFCURVE",
"522 1126 OFFCURVE",
"646 1124 CURVE"
);
}
);
width = 1224;
},
{
layerId = "9AF1F7D9-E035-453E-B2A8-46DE370997D0";
paths = (
{
closed = 1;
nodes = (
"812 1358 OFFCURVE",
"1004 1278 OFFCURVE",
"1037 1120 CURVE",
"1097 1136 LINE",
"1055 1308 OFFCURVE",
"864 1408 OFFCURVE",
"667 1416 CURVE",
"698 1624 LINE",
"638 1624 LINE",
"607 1416 LINE",
"359 1406 OFFCURVE",
"127 1264 OFFCURVE",
"96 1045 CURVE",
"61 792 OFFCURVE",
"262 718 OFFCURVE",
"534 667 CURVE",
"743 626 OFFCURVE",
"944 548 OFFCURVE",
"917 353 CURVE",
"890 160 OFFCURVE",
"667 34 OFFCURVE",
"439 34 CURVE",
"259 34 OFFCURVE",
"67 114 OFFCURVE",
"33 272 CURVE",
"-25 254 LINE",
"10 88 OFFCURVE",
"199 -18 OFFCURVE",
"407 -26 CURVE",
"378 -224 LINE",
"438 -224 LINE",
"467 -26 LINE",
"715 -14 OFFCURVE",
"945 126 OFFCURVE",
"976 347 CURVE",
"1008 574 OFFCURVE",
"790 682 OFFCURVE",
"537 729 CURVE",
"299 776 OFFCURVE",
"125 824 OFFCURVE",
"155 1039 CURVE",
"182 1230 OFFCURVE",
"402 1358 OFFCURVE",
"632 1358 CURVE"
);
}
);
width = 1158;
}
);
leftKerningGroup = dollar;
rightKerningGroup = dollar;
unicode = 0024;
},
{
glyphname = euro;
lastChange = "2020-01-28 10:10:21 +0000";
layers = (
{
layerId = "10BC12B3-5274-42E3-B5BC-F74F362F0DF4";
paths = (
{
closed = 1;
nodes = (
"908 297 LINE",
"724 241 OFFCURVE",
"560 301 OFFCURVE",
"487 459 CURVE",
"730 466 LINE",
"758 666 LINE",
"460 666 LINE",
"466 730 LINE",
"768 730 LINE",
"795 930 LINE",
"559 922 LINE",
"671 1076 OFFCURVE",
"862 1165 OFFCURVE",
"1041 1107 CURVE",
"1063 1415 LINE",
"719 1471 OFFCURVE",
"389 1275 OFFCURVE",
"237 939 CURVE",
"72 930 LINE",
"45 730 LINE",
"173 730 LINE",
"164 666 LINE",
"36 666 LINE",
"7 466 LINE",
"179 473 LINE",
"240 143 OFFCURVE",
"517 -73 OFFCURVE",
"881 -17 CURVE"
);
}
);
width = 1096;
},
{
layerId = "9AF1F7D9-E035-453E-B2A8-46DE370997D0";
paths = (
{
closed = 1;
nodes = (
"986 46 LINE",
"641 -22 OFFCURVE",
"359 198 OFFCURVE",
"324 536 CURVE",
"703 538 LINE",
"712 598 LINE",
"324 598 LINE",
"352 802 LINE",
"740 802 LINE",
"749 862 LINE",
"371 860 LINE",
"499 1192 OFFCURVE",
"841 1424 OFFCURVE",
"1174 1356 CURVE",
"1179 1416 LINE",
"831 1488 OFFCURVE",
"445 1240 OFFCURVE",
"308 864 CURVE",
"61 862 LINE",
"52 802 LINE",
"290 802 LINE",
"262 598 LINE",
"24 598 LINE",
"15 538 LINE",
"264 540 LINE",
"292 170 OFFCURVE",
"605 -88 OFFCURVE",
"981 -14 CURVE"
);
}
);
width = 1202;
}
);
leftKerningGroup = euro;
rightKerningGroup = euro;
unicode = 20AC;
},
{
glyphname = sterling;
lastChange = "2020-01-28 10:10:21 +0000";
layers = (
{
layerId = "10BC12B3-5274-42E3-B5BC-F74F362F0DF4";
paths = (
{
closed = 1;
nodes = (
"964 0 LINE",
"1007 300 LINE",
"545 291 LINE",
"549 303 OFFCURVE",
"557 337 OFFCURVE",
"554 357 CURVE SMOOTH",
"565 391 OFFCURVE",
"569 416 OFFCURVE",
"571 436 CURVE",
"803 444 LINE",
"832 644 LINE",
"546 642 LINE",
"444 686 OFFCURVE",
"455 672 OFFCURVE",
"409 711 CURVE SMOOTH",
"372 769 OFFCURVE",
"347 808 OFFCURVE",
"351 882 CURVE SMOOTH",
"375 1016 OFFCURVE",
"508 1126 OFFCURVE",
"640 1126 CURVE SMOOTH",
"758 1126 OFFCURVE",
"845 1032 OFFCURVE",
"827 908 CURVE",
"1113 892 LINE",
"1154 1182 OFFCURVE",
"947 1426 OFFCURVE",
"649 1426 CURVE SMOOTH",
"369 1426 OFFCURVE",
"114 1196 OFFCURVE",
"80 918 CURVE SMOOTH",
"57 792 OFFCURVE",
"91 740 OFFCURVE",
"146 650 CURVE",
"57 644 LINE",
"29 444 LINE",
"286 452 LINE",
"285 442 OFFCURVE",
"278 417 OFFCURVE",
"267 399 CURVE SMOOTH",
"231 320 OFFCURVE",
"85 300 OFFCURVE",
"-3 300 CURVE",
"-33 0 LINE"
);
}
);
width = 1214;
},
{
layerId = "9AF1F7D9-E035-453E-B2A8-46DE370997D0";
paths = (
{
closed = 1;
nodes = (
"913 0 LINE",
"922 60 LINE",
"163 59 LINE",
"256 95 OFFCURVE",
"360 190 OFFCURVE",
"375 297 CURVE SMOOTH",
"384 362 OFFCURVE",
"381 412 OFFCURVE",
"370 450 CURVE",
"763 452 LINE",
"771 512 LINE",
"344 511 LINE",
"320 551 OFFCURVE",
"285 577 OFFCURVE",
"253 598 CURVE SMOOTH",
"147 675 OFFCURVE",
"111 792 OFFCURVE",
"131 937 CURVE SMOOTH",
"164 1172 OFFCURVE",
"385 1366 OFFCURVE",
"621 1366 CURVE SMOOTH",
"855 1366 OFFCURVE",
"1019 1176 OFFCURVE",
"986 942 CURVE",
"1045 938 LINE",
"1083 1206 OFFCURVE",
"894 1426 OFFCURVE",
"623 1426 CURVE SMOOTH",
"356 1426 OFFCURVE",
"109 1210 OFFCURVE",
"72 943 CURVE SMOOTH",
"42 732 OFFCURVE",
"108 667 OFFCURVE",
"263 513 CURVE",
"35 512 LINE",
"27 452 LINE",
"306 453 LINE",
"321 419 OFFCURVE",
"326 372 OFFCURVE",
"316 303 CURVE SMOOTH",
"296 158 OFFCURVE",
"138 60 OFFCURVE",
"-30 60 CURVE",
"-36 0 LINE"
);
}
);
width = 1134;
}
);
leftKerningGroup = sterling;
rightKerningGroup = sterling;
unicode = 00A3;
},
{
glyphname = yen;
lastChange = "2020-01-28 10:10:21 +0000";
layers = (
{
layerId = "10BC12B3-5274-42E3-B5BC-F74F362F0DF4";
paths = (
{
closed = 1;
nodes = (
"722 0 LINE",
"740 124 LINE",
"954 124 LINE",
"982 324 LINE",
"768 324 LINE",
"777 390 LINE",
"992 390 LINE",
"1019 590 LINE",
"805 590 LINE",
"814 630 LINE",
"1412 1400 LINE",
"1051 1400 LINE",
"702 956 LINE",
"486 1400 LINE",
"140 1400 LINE",
"520 630 LINE",
"510 590 LINE",
"296 590 LINE",
"269 390 LINE",
"482 390 LINE",
"475 324 LINE",
"259 324 LINE",
"232 124 LINE",
"445 124 LINE",
"428 0 LINE"
);
}
);
width = 1432;
},
{
layerId = "9AF1F7D9-E035-453E-B2A8-46DE370997D0";
paths = (
{
closed = 1;
nodes = (
"463 0 LINE",
"495 227 LINE",
"829 227 LINE",
"838 287 LINE",
"504 287 LINE",
"533 493 LINE",
"867 493 LINE",
"875 553 LINE",
"541 553 LINE",
"553 636 LINE",
"1125 1400 LINE",
"1054 1400 LINE",
"531 702 LINE",
"206 1400 LINE",
"137 1400 LINE",
"493 636 LINE",
"481 553 LINE",
"147 553 LINE",
"139 493 LINE",
"473 493 LINE",
"444 287 LINE",
"110 287 LINE",
"101 227 LINE",
"435 227 LINE",
"403 0 LINE"
);
}
);
width = 1148;
}
);
leftKerningGroup = yen;
rightKerningGroup = yen;
unicode = 00A5;
},
{
glyphname = plus;
lastChange = "2020-01-28 10:10:21 +0000";
layers = (
{
layerId = "10BC12B3-5274-42E3-B5BC-F74F362F0DF4";
paths = (
{
closed = 1;
nodes = (
"622 250 LINE",
"671 600 LINE",
"1022 600 LINE",
"1064 900 LINE",
"714 900 LINE",
"762 1250 LINE",
"468 1250 LINE",
"419 900 LINE",
"69 900 LINE",
"27 600 LINE",
"377 600 LINE",
"327 250 LINE"
);
}
);
width = 1160;
},
{
layerId = "9AF1F7D9-E035-453E-B2A8-46DE370997D0";
paths = (
{
closed = 1;
nodes = (
"505 250 LINE",
"571 720 LINE",
"1041 720 LINE",
"1049 780 LINE",
"579 780 LINE",
"645 1250 LINE",
"585 1250 LINE",
"519 780 LINE",
"49 780 LINE",
"41 720 LINE",
"511 720 LINE",
"445 250 LINE"
);
}
);
width = 1160;
}
);
leftKerningGroup = plus;
rightKerningGroup = plus;
unicode = 002B;
},
{
glyphname = minus;
lastChange = "2020-01-28 10:10:21 +0000";
layers = (
{
layerId = "10BC12B3-5274-42E3-B5BC-F74F362F0DF4";
paths = (
{
closed = 1;
nodes = (
"1022 600 LINE",
"1064 900 LINE",
"69 900 LINE",
"27 600 LINE"
);
}
);
width = 1160;
},
{
layerId = "9AF1F7D9-E035-453E-B2A8-46DE370997D0";
paths = (
{
closed = 1;
nodes = (
"1041 720 LINE",
"1049 780 LINE",
"49 780 LINE",
"41 720 LINE"
);
}
);
width = 1160;
}
);
leftKerningGroup = minus;
rightKerningGroup = minus;
unicode = 2212;
},
{
glyphname = multiply;
lastChange = "2020-01-28 10:10:21 +0000";
layers = (
{
layerId = "10BC12B3-5274-42E3-B5BC-F74F362F0DF4";
paths = (
{
closed = 1;
nodes = (
"479 538 LINE",
"692 290 LINE",
"929 502 LINE",
"715 750 LINE",
"999 998 LINE",
"810 1210 LINE",
"527 962 LINE",
"316 1210 LINE",
"79 998 LINE",
"290 750 LINE",
"9 502 LINE",
"198 290 LINE"
);
}
);
width = 1078;
},
{
layerId = "9AF1F7D9-E035-453E-B2A8-46DE370997D0";
paths = (
{
closed = 1;
nodes = (
"414 708 LINE",
"699 376 LINE",
"748 418 LINE",
"461 750 LINE",
"842 1082 LINE",
"802 1124 LINE",
"424 792 LINE",
"138 1124 LINE",
"92 1082 LINE",
"377 750 LINE",
"-2 418 LINE",
"35 376 LINE"
);
}
);
width = 910;
}
);
leftKerningGroup = multiply;
rightKerningGroup = multiply;
unicode = 00D7;
},
{
glyphname = divide;
lastChange = "2020-01-28 10:10:21 +0000";
layers = (
{
layerId = "10BC12B3-5274-42E3-B5BC-F74F362F0DF4";
paths = (
{
closed = 1;
nodes = (
"1022 600 LINE",
"1064 900 LINE",
"69 900 LINE",
"27 600 LINE"
);
},
{
closed = 1;
nodes = (
"524 1260 OFFCURVE",
"465 1200 OFFCURVE",
"460 1128 CURVE",
"441 1036 OFFCURVE",
"499 960 OFFCURVE",
"591 960 CURVE",
"665 960 OFFCURVE",
"726 1020 OFFCURVE",
"730 1092 CURVE",
"750 1184 OFFCURVE",
"690 1260 OFFCURVE",
"600 1260 CURVE"
);
},
{
closed = 1;
nodes = (
"423 540 OFFCURVE",
"364 480 OFFCURVE",
"359 408 CURVE",
"340 316 OFFCURVE",
"398 240 OFFCURVE",
"490 240 CURVE",
"564 240 OFFCURVE",
"625 300 OFFCURVE",
"629 372 CURVE",
"649 464 OFFCURVE",
"589 540 OFFCURVE",
"499 540 CURVE"
);
}
);
width = 1160;
},
{
layerId = "9AF1F7D9-E035-453E-B2A8-46DE370997D0";
paths = (
{
closed = 1;
nodes = (
"1041 720 LINE",
"1049 780 LINE",
"49 780 LINE",
"41 720 LINE"
);
},
{
closed = 1;
nodes = (
"558 1194 OFFCURVE",
"522 1154 OFFCURVE",
"516 1115 CURVE",
"510 1070 OFFCURVE",
"538 1032 OFFCURVE",
"588 1032 CURVE",
"628 1032 OFFCURVE",
"667 1066 OFFCURVE",
"673 1109 CURVE",
"679 1150 OFFCURVE",
"648 1194 OFFCURVE",
"604 1194 CURVE"
);
},
{
closed = 1;
nodes = (
"455 466 OFFCURVE",
"420 428 OFFCURVE",
"414 387 CURVE",
"407 342 OFFCURVE",
"436 306 OFFCURVE",
"486 306 CURVE",
"526 306 OFFCURVE",
"569 338 OFFCURVE",
"575 381 CURVE",
"581 424 OFFCURVE",
"545 466 OFFCURVE",
"502 466 CURVE"
);
}
);
width = 1160;
}
);
leftKerningGroup = divide;
rightKerningGroup = divide;
unicode = 00F7;
},
{
glyphname = equal;
lastChange = "2020-01-28 10:10:21 +0000";
layers = (
{
layerId = "10BC12B3-5274-42E3-B5BC-F74F362F0DF4";
paths = (
{
closed = 1;
nodes = (
"991 378 LINE",
"1033 678 LINE",
"38 678 LINE",
"-4 378 LINE"
);
},
{
closed = 1;
nodes = (
"1052 822 LINE",
"1094 1122 LINE",
"100 1122 LINE",
"58 822 LINE"
);
}
);
width = 1160;
},
{
layerId = "9AF1F7D9-E035-453E-B2A8-46DE370997D0";
paths = (
{
closed = 1;
nodes = (
"1014 528 LINE",
"1022 588 LINE",
"22 588 LINE",
"14 528 LINE"
);
},
{
closed = 1;
nodes = (
"1068 912 LINE",
"1076 972 LINE",
"76 972 LINE",
"68 912 LINE"
);
}
);
width = 1160;
}
);
leftKerningGroup = equal;
rightKerningGroup = equal;
unicode = 003D;
},
{
glyphname = notequal;
lastChange = "2020-01-28 10:10:21 +0000";
layers = (
{
layerId = "10BC12B3-5274-42E3-B5BC-F74F362F0DF4";
paths = (
{
closed = 1;
nodes = (
"639 1332 LINE",
"548 1122 LINE",
"100 1122 LINE",
"58 822 LINE",
"418 822 LINE",
"357 678 LINE",
"38 678 LINE",
"-4 378 LINE",
"225 378 LINE",
"134 168 LINE",
"448 168 LINE",
"540 378 LINE",
"991 378 LINE",
"1033 678 LINE",
"670 678 LINE",
"732 822 LINE",
"1052 822 LINE",
"1094 1122 LINE",
"862 1122 LINE",
"954 1332 LINE"
);
}
);
width = 1160;
},
{
layerId = "9AF1F7D9-E035-453E-B2A8-46DE370997D0";
paths = (
{
closed = 1;
nodes = (
"764 1332 LINE",
"610 972 LINE",
"76 972 LINE",
"68 912 LINE",
"583 912 LINE",
"442 588 LINE",
"22 588 LINE",
"14 528 LINE",
"417 528 LINE",
"261 168 LINE",
"324 168 LINE",
"480 528 LINE",
"1014 528 LINE",
"1022 588 LINE",
"507 588 LINE",
"646 912 LINE",
"1068 912 LINE",
"1076 972 LINE",
"672 972 LINE",
"827 1332 LINE"
);
}
);
width = 1160;
}
);
leftKerningGroup = notequal;
rightKerningGroup = notequal;
unicode = 2260;
},
{
glyphname = greater;
lastChange = "2020-01-28 10:10:21 +0000";
layers = (
{
layerId = "10BC12B3-5274-42E3-B5BC-F74F362F0DF4";
paths = (
{
closed = 1;
nodes = (
"1008 498 LINE",
"1077 1000 LINE",
"121 1274 LINE",
"78 962 LINE",
"831 750 LINE",
"18 538 LINE",
"-25 226 LINE"
);
}
);
width = 1160;
},
{
layerId = "9AF1F7D9-E035-453E-B2A8-46DE370997D0";
paths = (
{
closed = 1;
nodes = (
"1038 702 LINE",
"1051 796 LINE",
"91 1082 LINE",
"83 1018 LINE",
"991 750 LINE",
"7 480 LINE",
"-2 418 LINE"
);
}
);
width = 1160;
}
);
leftKerningGroup = greater;
rightKerningGroup = greater;
unicode = 003E;
},
{
glyphname = less;
lastChange = "2020-01-28 10:10:21 +0000";
layers = (
{
layerId = "10BC12B3-5274-42E3-B5BC-F74F362F0DF4";
paths = (
{
closed = 1;
nodes = (
"1011 526 LINE",
"259 750 LINE",
"1074 974 LINE",
"1117 1286 LINE",
"82 1000 LINE",
"13 498 LINE",
"968 214 LINE"
);
}
);
width = 1160;
},
{
layerId = "9AF1F7D9-E035-453E-B2A8-46DE370997D0";
paths = (
{
closed = 1;
nodes = (
"1007 480 LINE",
"99 750 LINE",
"1083 1018 LINE",
"1091 1082 LINE",
"51 796 LINE",
"38 702 LINE",
"998 418 LINE"
);
}
);
width = 1160;
}
);
leftKerningGroup = less;
rightKerningGroup = less;
unicode = 003C;
},
{
glyphname = greaterequal;
lastChange = "2020-01-28 10:10:21 +0000";
layers = (
{
layerId = "10BC12B3-5274-42E3-B5BC-F74F362F0DF4";
paths = (
{
closed = 1;
nodes = (
"1039 724 LINE",
"1108 1226 LINE",
"153 1500 LINE",
"110 1188 LINE",
"863 976 LINE",
"48 764 LINE",
"7 452 LINE"
);
},
{
closed = 1;
nodes = (
"936 0 LINE",
"979 300 LINE",
"-16 300 LINE",
"-59 0 LINE"
);
}
);
width = 1160;
},
{
layerId = "9AF1F7D9-E035-453E-B2A8-46DE370997D0";
paths = (
{
closed = 1;
nodes = (
"1038 702 LINE",
"1051 796 LINE",
"91 1082 LINE",
"83 1018 LINE",
"991 750 LINE",
"7 480 LINE",
"-2 418 LINE"
);
},
{
closed = 1;
nodes = (
"939 0 LINE",
"948 60 LINE",
"-52 60 LINE",
"-61 0 LINE"
);
}
);
width = 1160;
}
);
leftKerningGroup = greaterequal;
rightKerningGroup = greaterequal;
unicode = 2265;
},
{
glyphname = lessequal;
lastChange = "2020-01-28 10:10:21 +0000";
layers = (
{
layerId = "10BC12B3-5274-42E3-B5BC-F74F362F0DF4";
paths = (
{
closed = 1;
nodes = (
"1041 740 LINE",
"290 964 LINE",
"1104 1188 LINE",
"1147 1500 LINE",
"112 1214 LINE",
"43 712 LINE",
"997 428 LINE"
);
},
{
closed = 1;
nodes = (
"936 0 LINE",
"979 300 LINE",
"-16 300 LINE",
"-59 0 LINE"
);
}
);
width = 1160;
},
{
layerId = "9AF1F7D9-E035-453E-B2A8-46DE370997D0";
paths = (
{
closed = 1;
nodes = (
"1007 480 LINE",
"99 750 LINE",
"1083 1018 LINE",
"1091 1082 LINE",
"51 796 LINE",
"38 702 LINE",
"998 418 LINE"
);
},
{
closed = 1;
nodes = (
"939 0 LINE",
"948 60 LINE",
"-52 60 LINE",
"-61 0 LINE"
);
}
);
width = 1160;
}
);
leftKerningGroup = lessequal;
rightKerningGroup = lessequal;
unicode = 2264;
},
{
glyphname = plusminus;
lastChange = "2020-01-28 10:10:21 +0000";
layers = (
{
layerId = "10BC12B3-5274-42E3-B5BC-F74F362F0DF4";
paths = (
{
closed = 1;
nodes = (
"657 500 LINE",
"706 850 LINE",
"1056 850 LINE",
"1098 1150 LINE",
"749 1150 LINE",
"798 1500 LINE",
"503 1500 LINE",
"454 1150 LINE",
"104 1150 LINE",
"62 850 LINE",
"411 850 LINE",
"362 500 LINE"
);
},
{
closed = 1;
nodes = (
"936 0 LINE",
"979 300 LINE",
"-16 300 LINE",
"-59 0 LINE"
);
}
);
width = 1160;
},
{
layerId = "9AF1F7D9-E035-453E-B2A8-46DE370997D0";
paths = (
{
closed = 1;
nodes = (
"539 498 LINE",
"606 968 LINE",
"1076 968 LINE",
"1084 1028 LINE",
"614 1028 LINE",
"680 1498 LINE",
"620 1498 LINE",
"554 1028 LINE",
"84 1028 LINE",
"76 968 LINE",
"546 968 LINE",
"479 498 LINE"
);
},
{
closed = 1;
nodes = (
"940 2 LINE",
"948 62 LINE",
"-52 62 LINE",
"-60 2 LINE"
);
}
);
width = 1160;
}
);
leftKerningGroup = plusminus;
rightKerningGroup = plusminus;
unicode = 00B1;
},
{
glyphname = asciitilde;
lastChange = "2020-01-28 10:10:21 +0000";
layers = (
{
layerId = "10BC12B3-5274-42E3-B5BC-F74F362F0DF4";
paths = (
{
closed = 1;
nodes = (
"1131 534 OFFCURVE",
"1240 692 OFFCURVE",
"1242 880 CURVE",
"964 904 LINE",
"958 854 OFFCURVE",
"924 806 OFFCURVE",
"866 806 CURVE SMOOTH",
"734 806 OFFCURVE",
"567 966 OFFCURVE",
"380 966 CURVE SMOOTH",
"197 966 OFFCURVE",
"38 804 OFFCURVE",
"35 616 CURVE",
"314 592 LINE",
"319 634 OFFCURVE",
"348 686 OFFCURVE",
"407 686 CURVE SMOOTH",
"538 686 OFFCURVE",
"761 534 OFFCURVE",
"947 534 CURVE SMOOTH"
);
}
);
width = 1349;
},
{
layerId = "9AF1F7D9-E035-453E-B2A8-46DE370997D0";
paths = (
{
closed = 1;
nodes = (
"937 593 OFFCURVE",
"1078 729 OFFCURVE",
"1054 879 CURVE",
"994 865 LINE",
"1010 759 OFFCURVE",
"909 655 OFFCURVE",
"797 655 CURVE SMOOTH",
"647 655 OFFCURVE",
"450 907 OFFCURVE",
"295 907 CURVE SMOOTH",
"142 907 OFFCURVE",
"13 757 OFFCURVE",
"36 619 CURVE",
"95 629 LINE",
"82 741 OFFCURVE",
"181 847 OFFCURVE",
"291 845 CURVE SMOOTH",
"421 847 OFFCURVE",
"627 593 OFFCURVE",
"793 593 CURVE SMOOTH"
);
}
);
width = 1161;
}
);
leftKerningGroup = asciitilde;
rightKerningGroup = asciitilde;
unicode = 007E;
},
{
glyphname = logicalnot;
lastChange = "2020-01-28 10:10:21 +0000";
layers = (
{
layerId = "10BC12B3-5274-42E3-B5BC-F74F362F0DF4";
paths = (
{
closed = 1;
nodes = (
"886 425 LINE",
"979 1075 LINE",
"94 1075 LINE",
"51 775 LINE",
"641 775 LINE",
"592 425 LINE"
);
}
);
width = 1050;
},
{
layerId = "9AF1F7D9-E035-453E-B2A8-46DE370997D0";
paths = (
{
closed = 1;
nodes = (
"782 485 LINE",
"856 1015 LINE",
"82 1015 LINE",
"74 955 LINE",
"788 955 LINE",
"722 485 LINE"
);
}
);
width = 934;
}
);
leftKerningGroup = logicalnot;
rightKerningGroup = logicalnot;
unicode = 00AC;
},
{
glyphname = asciicircum;
lastChange = "2020-01-28 10:10:21 +0000";
layers = (
{
layerId = "10BC12B3-5274-42E3-B5BC-F74F362F0DF4";
paths = (
{
closed = 1;
nodes = (
"402 1000 LINE",
"581 1348 LINE",
"656 1000 LINE",
"967 1000 LINE",
"822 1650 LINE",
"406 1650 LINE",
"78 1000 LINE"
);
}
);
width = 1052;
},
{
layerId = "9AF1F7D9-E035-453E-B2A8-46DE370997D0";
paths = (
{
closed = 1;
nodes = (
"143 1000 LINE",
"398 1502 LINE",
"509 1000 LINE",
"571 1000 LINE",
"427 1650 LINE",
"407 1650 LINE",
"79 1000 LINE"
);
}
);
width = 652;
}
);
leftKerningGroup = asciicircum;
rightKerningGroup = asciicircum;
unicode = 005E;
},
{
glyphname = emptyset;
lastChange = "2020-01-28 10:10:21 +0000";
layers = (
{
layerId = "10BC12B3-5274-42E3-B5BC-F74F362F0DF4";
paths = (
{
closed = 1;
nodes = (
"300 1 LINE",
"342 -15 OFFCURVE",
"390 -26 OFFCURVE",
"453 -26 CURVE SMOOTH",
"720 -26 OFFCURVE",
"962 202 OFFCURVE",
"995 482 CURVE SMOOTH",
"1023 638 OFFCURVE",
"982 773 OFFCURVE",
"906 869 CURVE",
"986 968 LINE",
"787 1088 LINE",
"718 1001 LINE",
"678 1017 OFFCURVE",
"628 1028 OFFCURVE",
"567 1028 CURVE SMOOTH",
"300 1028 OFFCURVE",
"58 800 OFFCURVE",
"24 518 CURVE SMOOTH",
"-3 364 OFFCURVE",
"38 229 OFFCURVE",
"114 133 CURVE",
"34 34 LINE",
"232 -86 LINE"
);
},
{
closed = 1;
nodes = (
"272 405 OFFCURVE",
"269 435 OFFCURVE",
"267 463 CURVE SMOOTH",
"297 624 OFFCURVE",
"436 762 OFFCURVE",
"571 766 CURVE",
"276 373 LINE"
);
},
{
closed = 1;
nodes = (
"743 630 LINE",
"745 598 OFFCURVE",
"751 565 OFFCURVE",
"753 537 CURVE SMOOTH",
"722 376 OFFCURVE",
"588 240 OFFCURVE",
"448 236 CURVE"
);
}
);
width = 1160;
},
{
layerId = "9AF1F7D9-E035-453E-B2A8-46DE370997D0";
paths = (
{
closed = 1;
nodes = (
"213 37 LINE",
"277 -1 OFFCURVE",
"353 -26 OFFCURVE",
"439 -26 CURVE SMOOTH",
"713 -26 OFFCURVE",
"969 208 OFFCURVE",
"1009 497 CURVE SMOOTH",
"1035 680 OFFCURVE",
"972 839 OFFCURVE",
"856 935 CURVE",
"914 1014 LINE",
"865 1044 LINE",
"807 967 LINE",
"745 1005 OFFCURVE",
"668 1028 OFFCURVE",
"581 1028 CURVE SMOOTH",
"306 1028 OFFCURVE",
"51 794 OFFCURVE",
"10 503 CURVE SMOOTH",
"-15 324 OFFCURVE",
"50 165 OFFCURVE",
"167 69 CURVE",
"108 -10 LINE",
"157 -40 LINE"
);
},
{
closed = 1;
nodes = (
"101 205 OFFCURVE",
"48 342 OFFCURVE",
"69 497 CURVE SMOOTH",
"118 844 OFFCURVE",
"505 1081 OFFCURVE",
"774 917 CURVE",
"200 121 LINE"
);
},
{
closed = 1;
nodes = (
"822 883 LINE",
"921 797 OFFCURVE",
"972 658 OFFCURVE",
"950 503 CURVE SMOOTH",
"902 164 OFFCURVE",
"527 -81 OFFCURVE",
"246 87 CURVE"
);
}
);
width = 1160;
}
);
leftKerningGroup = emptyset;
rightKerningGroup = emptyset;
unicode = 2205;
},
{
glyphname = infinity;
lastChange = "2020-01-28 10:10:21 +0000";
layers = (
{
layerId = "10BC12B3-5274-42E3-B5BC-F74F362F0DF4";
paths = (
{
closed = 1;
nodes = (
"485 219 OFFCURVE",
"586 271 OFFCURVE",
"699 380 CURVE",
"769 290 OFFCURVE",
"858 228 OFFCURVE",
"992 228 CURVE SMOOTH",
"1214 228 OFFCURVE",
"1376 386 OFFCURVE",
"1399 596 CURVE SMOOTH",
"1436 812 OFFCURVE",
"1320 1000 OFFCURVE",
"1067 1000 CURVE SMOOTH",
"956 1000 OFFCURVE",
"855 955 OFFCURVE",
"740 846 CURVE",
"672 939 OFFCURVE",
"582 1000 OFFCURVE",
"449 1000 CURVE SMOOTH",
"228 1000 OFFCURVE",
"64 840 OFFCURVE",
"40 632 CURVE SMOOTH",
"5 416 OFFCURVE",
"127 249 OFFCURVE",
"374 230 CURVE SMOOTH"
);
},
{
closed = 1;
nodes = (
"315 500 OFFCURVE",
"280 542 OFFCURVE",
"280 595 CURVE SMOOTH",
"295 658 OFFCURVE",
"358 724 OFFCURVE",
"439 725 CURVE SMOOTH",
"487 729 OFFCURVE",
"547 655 OFFCURVE",
"567 628 CURVE",
"532 590 OFFCURVE",
"441 500 OFFCURVE",
"375 500 CURVE SMOOTH"
);
},
{
closed = 1;
nodes = (
"953 498 OFFCURVE",
"893 573 OFFCURVE",
"874 600 CURVE",
"926 654 OFFCURVE",
"1002 728 OFFCURVE",
"1079 728 CURVE SMOOTH",
"1128 728 OFFCURVE",
"1162 680 OFFCURVE",
"1161 633 CURVE SMOOTH",
"1145 566 OFFCURVE",
"1084 502 OFFCURVE",
"1001 501 CURVE SMOOTH"
);
}
);
width = 1548;
},
{
layerId = "9AF1F7D9-E035-453E-B2A8-46DE370997D0";
paths = (
{
closed = 1;
nodes = (
"421 340 OFFCURVE",
"492 411 OFFCURVE",
"662 586 CURVE",
"785 403 OFFCURVE",
"837 340 OFFCURVE",
"1001 340 CURVE",
"1151 358 OFFCURVE",
"1281 480 OFFCURVE",
"1302 629 CURVE SMOOTH",
"1324 786 OFFCURVE",
"1234 910 OFFCURVE",
"1048 924 CURVE",
"914 924 OFFCURVE",
"825 841 OFFCURVE",
"671 678 CURVE",
"555 847 OFFCURVE",
"502 924 OFFCURVE",
"332 924 CURVE",
"180 910 OFFCURVE",
"50 784 OFFCURVE",
"29 635 CURVE SMOOTH",
"8 490 OFFCURVE",
"100 360 OFFCURVE",
"257 340 CURVE"
);
},
{
closed = 1;
nodes = (
"152 414 OFFCURVE",
"70 504 OFFCURVE",
"88 629 CURVE SMOOTH",
"105 750 OFFCURVE",
"211 850 OFFCURVE",
"334 864 CURVE",
"475 864 OFFCURVE",
"499 817 OFFCURVE",
"627 635 CURVE",
"452 455 OFFCURVE",
"408 400 OFFCURVE",
"262 400 CURVE"
);
},
{
closed = 1;
nodes = (
"868 400 OFFCURVE",
"846 427 OFFCURVE",
"704 629 CURVE",
"871 799 OFFCURVE",
"925 864 OFFCURVE",
"1046 864 CURVE",
"1189 850 OFFCURVE",
"1260 758 OFFCURVE",
"1243 635 CURVE SMOOTH",
"1226 514 OFFCURVE",
"1118 414 OFFCURVE",
"996 400 CURVE"
);
}
);
width = 1434;
}
);
leftKerningGroup = infinity;
rightKerningGroup = infinity;
unicode = 221E;
},
{
glyphname = integral;
lastChange = "2020-01-28 10:10:21 +0000";
layers = (
{
layerId = "10BC12B3-5274-42E3-B5BC-F74F362F0DF4";
paths = (
{
closed = 1;
nodes = (
"390 -26 OFFCURVE",
"509 29 OFFCURVE",
"572 193 CURVE",
"789 1107 LINE",
"802 1151 OFFCURVE",
"846 1179 OFFCURVE",
"883 1180 CURVE",
"918 1190 OFFCURVE",
"955 1184 OFFCURVE",
"956 1116 CURVE",
"1105 1083 LINE",
"1146 1255 OFFCURVE",
"1023 1426 OFFCURVE",
"835 1426 CURVE SMOOTH",
"705 1426 OFFCURVE",
"559 1333 OFFCURVE",
"524 1205 CURVE",
"303 285 LINE",
"289 243 OFFCURVE",
"239 210 OFFCURVE",
"186 210 CURVE SMOOTH",
"151 210 OFFCURVE",
"157 238 OFFCURVE",
"156 284 CURVE",
"-12 314 LINE",
"-48 120 OFFCURVE",
"76 -26 OFFCURVE",
"275 -26 CURVE SMOOTH"
);
}
);
width = 1179;
},
{
layerId = "9AF1F7D9-E035-453E-B2A8-46DE370997D0";
paths = (
{
closed = 1;
nodes = (
"141 -24 OFFCURVE",
"195 14 OFFCURVE",
"214 92 CURVE",
"487 1300 LINE",
"494 1332 OFFCURVE",
"533 1372 OFFCURVE",
"578 1366 CURVE",
"614 1364 OFFCURVE",
"638 1332 OFFCURVE",
"630 1292 CURVE",
"687 1282 LINE",
"703 1356 OFFCURVE",
"656 1420 OFFCURVE",
"583 1426 CURVE",
"518 1430 OFFCURVE",
"449 1388 OFFCURVE",
"428 1310 CURVE",
"154 100 LINE",
"143 60 OFFCURVE",
"105 30 OFFCURVE",
"66 33 CURVE",
"27 42 OFFCURVE",
"5 70 OFFCURVE",
"16 108 CURVE",
"-43 118 LINE",
"-64 44 OFFCURVE",
"-11 -24 OFFCURVE",
"58 -26 CURVE"
);
}
);
width = 727;
}
);
leftKerningGroup = integral;
rightKerningGroup = integral;
unicode = 222B;
},
{
glyphname = product;
lastChange = "2020-01-28 10:10:21 +0000";
layers = (
{
layerId = "10BC12B3-5274-42E3-B5BC-F74F362F0DF4";
paths = (
{
closed = 1;
nodes = (
"96 1100 LINE",
"1211 1100 LINE",
"1253 1400 LINE",
"138 1400 LINE"
);
},
{
closed = 1;
nodes = (
"51 0 LINE",
"346 0 LINE",
"515 1194 LINE",
"220 1194 LINE"
);
},
{
closed = 1;
nodes = (
"651 0 LINE",
"946 0 LINE",
"1115 1194 LINE",
"820 1194 LINE"
);
}
);
width = 1280;
},
{
layerId = "9AF1F7D9-E035-453E-B2A8-46DE370997D0";
paths = (
{
closed = 1;
nodes = (
"128 1340 LINE",
"1248 1340 LINE",
"1256 1400 LINE",
"136 1400 LINE"
);
},
{
closed = 1;
nodes = (
"169 0 LINE",
"229 0 LINE",
"421 1364 LINE",
"361 1364 LINE"
);
},
{
closed = 1;
nodes = (
"769 0 LINE",
"829 0 LINE",
"1021 1364 LINE",
"961 1364 LINE"
);
}
);
width = 1280;
}
);
leftKerningGroup = product;
rightKerningGroup = product;
unicode = 220F;
},
{
glyphname = summation;
lastChange = "2020-01-28 10:10:21 +0000";
layers = (
{
layerId = "10BC12B3-5274-42E3-B5BC-F74F362F0DF4";
paths = (
{
closed = 1;
nodes = (
"702 0 LINE",
"745 300 LINE",
"323 300 LINE",
"576 698 LINE",
"427 1096 LINE",
"856 1096 LINE",
"899 1396 LINE",
"138 1396 LINE",
"102 1096 LINE",
"244 698 LINE",
"-18 300 LINE",
"-57 0 LINE"
);
}
);
width = 906;
},
{
layerId = "9AF1F7D9-E035-453E-B2A8-46DE370997D0";
paths = (
{
closed = 1;
nodes = (
"779 0 LINE",
"788 60 LINE",
"16 60 LINE",
"432 698 LINE",
"195 1336 LINE",
"967 1336 LINE",
"976 1396 LINE",
"136 1396 LINE",
"128 1336 LINE",
"364 698 LINE",
"-53 60 LINE",
"-61 0 LINE"
);
}
);
width = 980;
}
);
leftKerningGroup = summation;
rightKerningGroup = summation;
unicode = 2211;
},
{
glyphname = radical;
lastChange = "2020-01-28 10:10:21 +0000";
layers = (
{
layerId = "10BC12B3-5274-42E3-B5BC-F74F362F0DF4";
paths = (
{
closed = 1;
nodes = (
"433 344 LINE",
"351 708 LINE",
"44 708 LINE",
"203 0 LINE",
"587 0 LINE",
"1144 1100 LINE",
"1309 1100 LINE",
"1351 1400 LINE",
"973 1400 LINE"
);
}
);
width = 1378;
},
{
layerId = "9AF1F7D9-E035-453E-B2A8-46DE370997D0";
paths = (
{
closed = 1;
nodes = (
"240 96 LINE",
"102 708 LINE",
"39 708 LINE",
"198 0 LINE",
"256 0 LINE",
"934 1340 LINE",
"1208 1340 LINE",
"1216 1400 LINE",
"900 1400 LINE"
);
}
);
width = 1240;
}
);
leftKerningGroup = radical;
rightKerningGroup = radical;
unicode = 221A;
},
{
glyphname = partialdiff;
lastChange = "2020-01-28 10:10:21 +0000";
layers = (
{
layerId = "10BC12B3-5274-42E3-B5BC-F74F362F0DF4";
paths = (
{
closed = 1;
nodes = (
"738 -26 OFFCURVE",
"966 190 OFFCURVE",
"1003 494 CURVE",
"1085 1038 OFFCURVE",
"868 1540 OFFCURVE",
"406 1540 CURVE",
"385 1240 LINE",
"600 1240 OFFCURVE",
"633 1086 OFFCURVE",
"665 984 CURVE",
"628 983 OFFCURVE",
"599 980 OFFCURVE",
"564 980 CURVE",
"295 980 OFFCURVE",
"53 762 OFFCURVE",
"20 494 CURVE",
"-25 208 OFFCURVE",
"170 -26 OFFCURVE",
"457 -26 CURVE"
);
},
{
closed = 1;
nodes = (
"362 274 OFFCURVE",
"283 358 OFFCURVE",
"292 458 CURVE",
"314 580 OFFCURVE",
"435 680 OFFCURVE",
"556 680 CURVE",
"657 680 OFFCURVE",
"735 596 OFFCURVE",
"728 494 CURVE",
"704 374 OFFCURVE",
"584 274 OFFCURVE",
"465 274 CURVE"
);
}
);
width = 1166;
},
{
layerId = "9AF1F7D9-E035-453E-B2A8-46DE370997D0";
paths = (
{
closed = 1;
nodes = (
"739 -26 OFFCURVE",
"971 196 OFFCURVE",
"1016 519 CURVE",
"1087 1050 OFFCURVE",
"826 1478 OFFCURVE",
"426 1478 CURVE",
"420 1418 LINE",
"752 1418 OFFCURVE",
"954 1096 OFFCURVE",
"968 750 CURVE",
"897 887 OFFCURVE",
"755 978 OFFCURVE",
"576 978 CURVE",
"301 978 OFFCURVE",
"46 756 OFFCURVE",
"7 479 CURVE",
"-32 200 OFFCURVE",
"163 -26 OFFCURVE",
"441 -26 CURVE"
);
},
{
closed = 1;
nodes = (
"199 34 OFFCURVE",
"32 234 OFFCURVE",
"66 473 CURVE",
"100 712 OFFCURVE",
"322 918 OFFCURVE",
"574 918 CURVE",
"820 918 OFFCURVE",
"987 720 OFFCURVE",
"953 479 CURVE",
"919 242 OFFCURVE",
"697 34 OFFCURVE",
"443 34 CURVE"
);
}
);
width = 1164;
}
);
leftKerningGroup = partialdiff;
rightKerningGroup = partialdiff;
unicode = 2202;
},
{
glyphname = percent;
lastChange = "2020-01-28 10:10:21 +0000";
layers = (
{
layerId = "10BC12B3-5274-42E3-B5BC-F74F362F0DF4";
paths = (
{
closed = 1;
nodes = (
"447 0 LINE",
"1452 1400 LINE",
"1099 1400 LINE",
"94 0 LINE"
);
},
{
closed = 1;
nodes = (
"565 760 OFFCURVE",
"725 894 OFFCURVE",
"745 1074 CURVE SMOOTH",
"778 1270 OFFCURVE",
"647 1424 OFFCURVE",
"457 1424 CURVE SMOOTH",
"287 1424 OFFCURVE",
"127 1292 OFFCURVE",
"107 1110 CURVE SMOOTH",
"74 914 OFFCURVE",
"207 760 OFFCURVE",
"397 760 CURVE SMOOTH"
);
},
{
closed = 1;
nodes = (
"326 960 OFFCURVE",
"275 1010 OFFCURVE",
"278 1074 CURVE SMOOTH",
"295 1158 OFFCURVE",
"380 1224 OFFCURVE",
"462 1224 CURVE SMOOTH",
"526 1224 OFFCURVE",
"578 1174 OFFCURVE",
"574 1111 CURVE SMOOTH",
"556 1026 OFFCURVE",
"472 960 OFFCURVE",
"392 960 CURVE SMOOTH"
);
},
{
closed = 1;
nodes = (
"1264 -26 OFFCURVE",
"1420 116 OFFCURVE",
"1438 288 CURVE SMOOTH",
"1470 474 OFFCURVE",
"1349 640 OFFCURVE",
"1149 640 CURVE SMOOTH",
"981 640 OFFCURVE",
"820 504 OFFCURVE",
"802 324 CURVE SMOOTH",
"769 140 OFFCURVE",
"894 -26 OFFCURVE",
"1089 -26 CURVE SMOOTH"
);
},
{
closed = 1;
nodes = (
"1020 174 OFFCURVE",
"968 226 OFFCURVE",
"971 287 CURVE SMOOTH",
"990 372 OFFCURVE",
"1074 440 OFFCURVE",
"1154 440 CURVE SMOOTH",
"1220 440 OFFCURVE",
"1270 388 OFFCURVE",
"1268 324 CURVE SMOOTH",
"1250 242 OFFCURVE",
"1166 174 OFFCURVE",
"1083 174 CURVE SMOOTH"
);
}
);
width = 1630;
},
{
layerId = "9AF1F7D9-E035-453E-B2A8-46DE370997D0";
paths = (
{
closed = 1;
nodes = (
"44 0 LINE",
"1049 1400 LINE",
"978 1400 LINE",
"-27 0 LINE"
);
},
{
closed = 1;
nodes = (
"366 900 OFFCURVE",
"462 984 OFFCURVE",
"476 1089 CURVE",
"492 1196 OFFCURVE",
"417 1286 OFFCURVE",
"309 1286 CURVE",
"205 1286 OFFCURVE",
"108 1200 OFFCURVE",
"93 1095 CURVE",
"78 988 OFFCURVE",
"154 900 OFFCURVE",
"261 900 CURVE"
);
},
{
closed = 1;
nodes = (
"191 960 OFFCURVE",
"143 1018 OFFCURVE",
"152 1089 CURVE",
"163 1164 OFFCURVE",
"231 1226 OFFCURVE",
"307 1226 CURVE",
"379 1226 OFFCURVE",
"428 1168 OFFCURVE",
"417 1095 CURVE",
"407 1022 OFFCURVE",
"339 960 OFFCURVE",
"263 960 CURVE"
);
},
{
closed = 1;
nodes = (
"819 114 OFFCURVE",
"916 200 OFFCURVE",
"930 305 CURVE",
"945 412 OFFCURVE",
"870 500 OFFCURVE",
"762 500 CURVE",
"658 500 OFFCURVE",
"560 416 OFFCURVE",
"545 311 CURVE",
"530 204 OFFCURVE",
"607 114 OFFCURVE",
"715 114 CURVE"
);
},
{
closed = 1;
nodes = (
"644 174 OFFCURVE",
"594 232 OFFCURVE",
"604 305 CURVE",
"615 378 OFFCURVE",
"685 440 OFFCURVE",
"761 440 CURVE",
"831 440 OFFCURVE",
"881 382 OFFCURVE",
"871 311 CURVE",
"861 236 OFFCURVE",
"790 174 OFFCURVE",
"717 174 CURVE"
);
}
);
width = 1108;
}
);
leftKerningGroup = percent;
rightKerningGroup = percent;
unicode = 0025;
},
{
glyphname = perthousand;
lastChange = "2020-01-28 10:10:21 +0000";
layers = (
{
layerId = "10BC12B3-5274-42E3-B5BC-F74F362F0DF4";
paths = (
{
closed = 1;
nodes = (
"447 0 LINE",
"1452 1400 LINE",
"1099 1400 LINE",
"94 0 LINE"
);
},
{
closed = 1;
nodes = (
"565 760 OFFCURVE",
"725 894 OFFCURVE",
"745 1074 CURVE",
"778 1268 OFFCURVE",
"647 1424 OFFCURVE",
"457 1424 CURVE",
"287 1424 OFFCURVE",
"127 1292 OFFCURVE",
"107 1110 CURVE",
"74 914 OFFCURVE",
"207 760 OFFCURVE",
"397 760 CURVE"
);
},
{
closed = 1;
nodes = (
"326 960 OFFCURVE",
"275 1010 OFFCURVE",
"278 1074 CURVE",
"295 1158 OFFCURVE",
"380 1224 OFFCURVE",
"462 1224 CURVE",
"526 1224 OFFCURVE",
"578 1174 OFFCURVE",
"574 1111 CURVE",
"556 1026 OFFCURVE",
"472 960 OFFCURVE",
"392 960 CURVE"
);
},
{
closed = 1;
nodes = (
"1264 -26 OFFCURVE",
"1420 116 OFFCURVE",
"1438 288 CURVE",
"1470 474 OFFCURVE",
"1349 640 OFFCURVE",
"1149 640 CURVE",
"981 640 OFFCURVE",
"820 504 OFFCURVE",
"802 324 CURVE",
"769 140 OFFCURVE",
"894 -26 OFFCURVE",
"1089 -26 CURVE"
);
},
{
closed = 1;
nodes = (
"1020 174 OFFCURVE",
"968 226 OFFCURVE",
"971 287 CURVE",
"990 372 OFFCURVE",
"1074 440 OFFCURVE",
"1154 440 CURVE",
"1220 440 OFFCURVE",
"1270 388 OFFCURVE",
"1268 324 CURVE",
"1250 242 OFFCURVE",
"1166 174 OFFCURVE",
"1083 174 CURVE"
);
},
{
closed = 1;
nodes = (
"1984 -26 OFFCURVE",
"2140 116 OFFCURVE",
"2158 288 CURVE",
"2190 474 OFFCURVE",
"2069 640 OFFCURVE",
"1869 640 CURVE",
"1701 640 OFFCURVE",
"1540 504 OFFCURVE",
"1522 324 CURVE",
"1489 140 OFFCURVE",
"1614 -26 OFFCURVE",
"1809 -26 CURVE"
);
},
{
closed = 1;
nodes = (
"1740 174 OFFCURVE",
"1688 226 OFFCURVE",
"1691 287 CURVE",
"1710 372 OFFCURVE",
"1794 440 OFFCURVE",
"1874 440 CURVE",
"1940 440 OFFCURVE",
"1990 388 OFFCURVE",
"1988 324 CURVE",
"1970 242 OFFCURVE",
"1886 174 OFFCURVE",
"1803 174 CURVE"
);
}
);
width = 2350;
},
{
layerId = "9AF1F7D9-E035-453E-B2A8-46DE370997D0";
paths = (
{
closed = 1;
nodes = (
"44 0 LINE",
"1049 1400 LINE",
"978 1400 LINE",
"-27 0 LINE"
);
},
{
closed = 1;
nodes = (
"366 900 OFFCURVE",
"462 984 OFFCURVE",
"476 1089 CURVE",
"492 1196 OFFCURVE",
"417 1286 OFFCURVE",
"309 1286 CURVE",
"205 1286 OFFCURVE",
"108 1200 OFFCURVE",
"93 1095 CURVE",
"78 988 OFFCURVE",
"154 900 OFFCURVE",
"261 900 CURVE"
);
},
{
closed = 1;
nodes = (
"191 960 OFFCURVE",
"143 1018 OFFCURVE",
"152 1089 CURVE",
"163 1164 OFFCURVE",
"231 1226 OFFCURVE",
"307 1226 CURVE",
"379 1226 OFFCURVE",
"428 1168 OFFCURVE",
"417 1095 CURVE",
"407 1022 OFFCURVE",
"339 960 OFFCURVE",
"263 960 CURVE"
);
},
{
closed = 1;
nodes = (
"759 114 OFFCURVE",
"856 200 OFFCURVE",
"870 305 CURVE",
"885 412 OFFCURVE",
"810 500 OFFCURVE",
"702 500 CURVE",
"598 500 OFFCURVE",
"500 416 OFFCURVE",
"485 311 CURVE",
"470 204 OFFCURVE",
"547 114 OFFCURVE",
"655 114 CURVE"
);
},
{
closed = 1;
nodes = (
"584 174 OFFCURVE",
"534 232 OFFCURVE",
"544 305 CURVE",
"555 378 OFFCURVE",
"625 440 OFFCURVE",
"701 440 CURVE",
"771 440 OFFCURVE",
"821 382 OFFCURVE",
"811 311 CURVE",
"801 236 OFFCURVE",
"730 174 OFFCURVE",
"657 174 CURVE"
);
},
{
closed = 1;
nodes = (
"1229 114 OFFCURVE",
"1326 200 OFFCURVE",
"1340 305 CURVE",
"1355 412 OFFCURVE",
"1280 500 OFFCURVE",
"1172 500 CURVE",
"1068 500 OFFCURVE",
"970 416 OFFCURVE",
"955 311 CURVE",
"940 204 OFFCURVE",
"1017 114 OFFCURVE",
"1125 114 CURVE"
);
},
{
closed = 1;
nodes = (
"1054 174 OFFCURVE",
"1004 232 OFFCURVE",
"1014 305 CURVE",
"1025 378 OFFCURVE",
"1095 440 OFFCURVE",
"1171 440 CURVE",
"1241 440 OFFCURVE",
"1291 382 OFFCURVE",
"1281 311 CURVE",
"1271 236 OFFCURVE",
"1200 174 OFFCURVE",
"1127 174 CURVE"
);
}
);
width = 1518;
}
);
leftKerningGroup = percent;
rightKerningGroup = percent;
unicode = 2030;
},
{
glyphname = upArrow;
lastChange = "2020-01-28 10:10:21 +0000";
layers = (
{
layerId = "10BC12B3-5274-42E3-B5BC-F74F362F0DF4";
paths = (
{
closed = 1;
nodes = (
"656 116 LINE",
"755 808 LINE",
"925 620 LINE",
"1161 832 LINE",
"679 1384 LINE",
"55 832 LINE",
"245 620 LINE",
"461 808 LINE",
"361 116 LINE"
);
}
);
width = 1264;
},
{
layerId = "9AF1F7D9-E035-453E-B2A8-46DE370997D0";
paths = (
{
closed = 1;
nodes = (
"460 158 LINE",
"611 1228 LINE",
"950 832 LINE",
"997 876 LINE",
"595 1342 LINE",
"63 876 LINE",
"102 832 LINE",
"551 1228 LINE",
"400 158 LINE"
);
}
);
width = 1094;
}
);
leftKerningGroup = upArrow;
rightKerningGroup = upArrow;
unicode = 2191;
},
{
glyphname = northEastArrow;
lastChange = "2020-01-28 10:10:21 +0000";
layers = (
{
layerId = "10BC12B3-5274-42E3-B5BC-F74F362F0DF4";
paths = (
{
closed = 1;
nodes = (
"751 738 LINE",
"710 470 LINE",
"1005 470 LINE",
"1114 1250 LINE",
"338 1250 LINE",
"296 950 LINE",
"560 950 LINE",
"3 462 LINE",
"193 250 LINE"
);
}
);
width = 1162;
},
{
layerId = "9AF1F7D9-E035-453E-B2A8-46DE370997D0";
paths = (
{
closed = 1;
nodes = (
"887 1076 LINE",
"808 518 LINE",
"868 518 LINE",
"961 1178 LINE",
"301 1178 LINE",
"293 1118 LINE",
"850 1118 LINE",
"-9 364 LINE",
"28 322 LINE"
);
}
);
width = 1016;
}
);
leftKerningGroup = northEastArrow;
rightKerningGroup = northEastArrow;
unicode = 2197;
},
{
glyphname = rightArrow;
lastChange = "2020-01-28 10:10:21 +0000";
layers = (
{
layerId = "10BC12B3-5274-42E3-B5BC-F74F362F0DF4";
paths = (
{
closed = 1;
nodes = (
"1313 750 LINE",
"832 1302 LINE",
"596 1090 LINE",
"760 900 LINE",
"69 900 LINE",
"27 600 LINE",
"712 600 LINE",
"500 410 LINE",
"689 198 LINE"
);
}
);
width = 1428;
},
{
layerId = "9AF1F7D9-E035-453E-B2A8-46DE370997D0";
paths = (
{
closed = 1;
nodes = (
"1227 750 LINE",
"823 1216 LINE",
"776 1174 LINE",
"1116 780 LINE",
"49 780 LINE",
"41 720 LINE",
"1106 720 LINE",
"657 326 LINE",
"695 284 LINE"
);
}
);
width = 1342;
}
);
leftKerningGroup = rightArrow;
rightKerningGroup = rightArrow;
unicode = 2192;
},
{
glyphname = southEastArrow;
lastChange = "2020-01-28 10:10:21 +0000";
layers = (
{
layerId = "10BC12B3-5274-42E3-B5BC-F74F362F0DF4";
paths = (
{
closed = 1;
nodes = (
"974 250 LINE",
"1084 1030 LINE",
"789 1030 LINE",
"750 762 LINE",
"321 1250 LINE",
"84 1038 LINE",
"510 550 LINE",
"241 550 LINE",
"199 250 LINE"
);
}
);
width = 1162;
},
{
layerId = "9AF1F7D9-E035-453E-B2A8-46DE370997D0";
paths = (
{
closed = 1;
nodes = (
"841 322 LINE",
"933 982 LINE",
"873 982 LINE",
"794 424 LINE",
"146 1178 LINE",
"99 1136 LINE",
"748 382 LINE",
"189 382 LINE",
"181 322 LINE"
);
}
);
width = 1016;
}
);
leftKerningGroup = southEastArrow;
rightKerningGroup = southEastArrow;
unicode = 2198;
},
{
glyphname = downArrow;
lastChange = "2020-01-28 10:10:21 +0000";
layers = (
{
layerId = "10BC12B3-5274-42E3-B5BC-F74F362F0DF4";
paths = (
{
closed = 1;
nodes = (
"1136 668 LINE",
"946 880 LINE",
"731 692 LINE",
"831 1384 LINE",
"536 1384 LINE",
"437 692 LINE",
"268 880 LINE",
"32 668 LINE",
"513 116 LINE"
);
}
);
width = 1262;
},
{
layerId = "9AF1F7D9-E035-453E-B2A8-46DE370997D0";
paths = (
{
closed = 1;
nodes = (
"961 626 LINE",
"924 668 LINE",
"473 274 LINE",
"624 1340 LINE",
"564 1340 LINE",
"413 274 LINE",
"74 668 LINE",
"27 626 LINE",
"429 160 LINE"
);
}
);
width = 1094;
}
);
leftKerningGroup = downArrow;
rightKerningGroup = downArrow;
unicode = 2193;
},
{
glyphname = southWestArrow;
lastChange = "2020-01-28 10:10:21 +0000";
layers = (
{
layerId = "10BC12B3-5274-42E3-B5BC-F74F362F0DF4";
paths = (
{
closed = 1;
nodes = (
"752 250 LINE",
"794 550 LINE",
"532 550 LINE",
"1088 1038 LINE",
"899 1250 LINE",
"341 762 LINE",
"382 1030 LINE",
"87 1030 LINE",
"-23 250 LINE"
);
}
);
width = 1162;
},
{
layerId = "9AF1F7D9-E035-453E-B2A8-46DE370997D0";
paths = (
{
closed = 1;
nodes = (
"645 322 LINE",
"653 382 LINE",
"96 382 LINE",
"955 1136 LINE",
"918 1178 LINE",
"58 424 LINE",
"137 982 LINE",
"77 982 LINE",
"-15 322 LINE"
);
}
);
width = 1016;
}
);
leftKerningGroup = southWestArrow;
rightKerningGroup = southWestArrow;
unicode = 2199;
},
{
glyphname = leftArrow;
lastChange = "2020-01-28 10:10:21 +0000";
layers = (
{
layerId = "10BC12B3-5274-42E3-B5BC-F74F362F0DF4";
paths = (
{
closed = 1;
nodes = (
"762 410 LINE",
"596 600 LINE",
"1288 600 LINE",
"1330 900 LINE",
"644 900 LINE",
"857 1090 LINE",
"669 1302 LINE",
"44 750 LINE",
"525 198 LINE"
);
}
);
width = 1426;
},
{
layerId = "9AF1F7D9-E035-453E-B2A8-46DE370997D0";
paths = (
{
closed = 1;
nodes = (
"493 326 LINE",
"154 720 LINE",
"1223 720 LINE",
"1231 780 LINE",
"164 780 LINE",
"612 1174 LINE",
"575 1216 LINE",
"45 750 LINE",
"447 284 LINE"
);
}
);
width = 1342;
}
);
leftKerningGroup = leftArrow;
rightKerningGroup = leftArrow;
unicode = 2190;
},
{
glyphname = northWestArrow;
lastChange = "2020-01-28 10:10:21 +0000";
layers = (
{
layerId = "10BC12B3-5274-42E3-B5BC-F74F362F0DF4";
paths = (
{
closed = 1;
nodes = (
"1007 461 LINE",
"582 951 LINE",
"851 951 LINE",
"893 1251 LINE",
"118 1251 LINE",
"8 471 LINE",
"303 471 LINE",
"342 739 LINE",
"770 249 LINE"
);
}
);
width = 1162;
},
{
layerId = "9AF1F7D9-E035-453E-B2A8-46DE370997D0";
paths = (
{
closed = 1;
nodes = (
"849 364 LINE",
"200 1118 LINE",
"757 1118 LINE",
"765 1178 LINE",
"105 1178 LINE",
"12 518 LINE",
"72 518 LINE",
"151 1076 LINE",
"802 322 LINE"
);
}
);
width = 1018;
}
);
leftKerningGroup = northWestArrow;
rightKerningGroup = northWestArrow;
unicode = 2196;
},
{
glyphname = leftRightArrow;
lastChange = "2020-01-28 10:10:21 +0000";
layers = (
{
layerId = "10BC12B3-5274-42E3-B5BC-F74F362F0DF4";
paths = (
{
closed = 1;
nodes = (
"762 410 LINE",
"596 600 LINE",
"1212 600 LINE",
"1000 410 LINE",
"1189 198 LINE",
"1813 750 LINE",
"1332 1302 LINE",
"1096 1090 LINE",
"1260 900 LINE",
"644 900 LINE",
"857 1090 LINE",
"669 1302 LINE",
"44 750 LINE",
"525 198 LINE"
);
}
);
width = 1928;
},
{
layerId = "9AF1F7D9-E035-453E-B2A8-46DE370997D0";
paths = (
{
closed = 1;
nodes = (
"493 326 LINE",
"154 720 LINE",
"1326 720 LINE",
"877 326 LINE",
"915 284 LINE",
"1447 750 LINE",
"1043 1216 LINE",
"996 1174 LINE",
"1336 780 LINE",
"164 780 LINE",
"612 1174 LINE",
"575 1216 LINE",
"45 750 LINE",
"447 284 LINE"
);
}
);
width = 1562;
}
);
leftKerningGroup = leftRightArrow;
rightKerningGroup = leftRightArrow;
unicode = 2194;
},
{
glyphname = upDownArrow;
lastChange = "2020-01-28 10:10:21 +0000";
layers = (
{
layerId = "10BC12B3-5274-42E3-B5BC-F74F362F0DF4";
paths = (
{
closed = 1;
nodes = (
"1103 418 LINE",
"913 630 LINE",
"698 442 LINE",
"790 1058 LINE",
"961 870 LINE",
"1197 1082 LINE",
"714 1634 LINE",
"90 1082 LINE",
"280 870 LINE",
"496 1058 LINE",
"404 442 LINE",
"233 630 LINE",
"-3 418 LINE",
"479 -134 LINE"
);
}
);
width = 1264;
},
{
layerId = "9AF1F7D9-E035-453E-B2A8-46DE370997D0";
paths = (
{
closed = 1;
nodes = (
"946 516 LINE",
"907 560 LINE",
"458 162 LINE",
"624 1338 LINE",
"963 942 LINE",
"1012 986 LINE",
"608 1452 LINE",
"78 986 LINE",
"115 942 LINE",
"564 1338 LINE",
"398 162 LINE",
"59 560 LINE",
"12 516 LINE",
"413 48 LINE"
);
}
);
width = 1094;
}
);
leftKerningGroup = upDownArrow;
rightKerningGroup = upDownArrow;
unicode = 2195;
},
{
glyphname = lozenge;
lastChange = "2020-01-28 10:10:21 +0000";
layers = (
{
layerId = "10BC12B3-5274-42E3-B5BC-F74F362F0DF4";
paths = (
{
closed = 1;
nodes = (
"733 0 LINE",
"1095 702 LINE",
"925 1400 LINE",
"381 1400 LINE",
"21 702 LINE",
"192 0 LINE"
);
},
{
closed = 1;
nodes = (
"331 702 LINE",
"645 1270 LINE",
"787 702 LINE",
"471 134 LINE"
);
}
);
width = 1200;
},
{
layerId = "9AF1F7D9-E035-453E-B2A8-46DE370997D0";
paths = (
{
closed = 1;
nodes = (
"228 0 LINE",
"594 702 LINE",
"426 1400 LINE",
"382 1400 LINE",
"18 702 LINE",
"188 0 LINE"
);
},
{
closed = 1;
nodes = (
"82 702 LINE",
"387 1270 LINE",
"532 702 LINE",
"225 134 LINE"
);
}
);
width = 696;
}
);
leftKerningGroup = lozenge;
rightKerningGroup = lozenge;
unicode = 25CA;
},
